<svg width="458" height="37" viewBox="0 0 458 37" fill="none" xmlns="http://www.w3.org/2000/svg">
<path d="M16.9041 37C13.8399 37 11.014 36.2938 8.42651 34.8813C5.87302 33.4344 3.83023 31.3156 2.29814 28.5251C0.766046 25.7346 0 22.3929 0 18.5C0 14.6071 0.766046 11.2654 2.29814 8.47486C3.83023 5.68436 5.87302 3.58287 8.42651 2.17039C11.014 0.723464 13.8399 0 16.9041 0C20.7854 0 24.0028 0.964618 26.5563 2.89385C29.1438 4.78864 30.8632 7.47579 31.7143 10.9553L25.7392 12.5056C24.9901 10.5074 23.9177 8.95717 22.5218 7.85475C21.1259 6.75233 19.2533 6.20112 16.9041 6.20112C14.9975 6.20112 13.2781 6.6662 11.746 7.59637C10.214 8.49208 8.98828 9.87011 8.06902 11.7304C7.18381 13.5563 6.74121 15.8128 6.74121 18.5C6.74121 21.1872 7.18381 23.4609 8.06902 25.3212C8.98828 27.1471 10.214 28.5251 11.746 29.4553C13.2781 30.351 14.9975 30.7989 16.9041 30.7989C19.2533 30.7989 21.1259 30.2477 22.5218 29.1453C23.9177 28.0428 24.9901 26.4926 25.7392 24.4944L31.7143 26.0447C30.8632 29.5242 29.1438 32.2286 26.5563 34.1578C24.0028 36.0526 20.7854 37 16.9041 37Z" fill="#211F1A"/>
<path d="M37.8443 0.413406H59.9575V6.61452H44.4834V14.2109H56.8933V20.412H44.4834V30.3855H60.4682V36.5866H37.8443V0.413406Z" fill="#211F1A"/>
<path d="M66.9201 0.413406H73.5592V30.3855H88.7269V36.5866H66.9201V0.413406Z" fill="#211F1A"/>
<path d="M94.5497 0.413406H116.663V6.61452H101.189V14.2109H113.599V20.412H101.189V30.3855H117.174V36.5866H94.5497V0.413406Z" fill="#211F1A"/>
<path d="M133.133 37C131.022 37 129.098 36.5521 127.362 35.6564C125.66 34.7607 124.23 33.5377 123.072 31.9874C121.949 30.4372 121.2 28.7318 120.825 26.8715L126.187 23.4609C126.732 25.6657 127.583 27.4399 128.741 28.7835C129.933 30.1271 131.448 30.7989 133.286 30.7989C134.682 30.7989 135.806 30.4544 136.657 29.7654C137.508 29.0419 137.933 27.9567 137.933 26.5098C137.933 25.6141 137.644 24.8217 137.065 24.1327C136.486 23.4437 135.754 22.8408 134.869 22.324C134.018 21.8073 132.792 21.1527 131.192 20.3603L129.711 19.6369C127.668 18.6034 126.034 17.3115 124.809 15.7612C123.583 14.1764 122.97 12.1611 122.97 9.71508C122.97 7.8892 123.379 6.23557 124.196 4.75419C125.047 3.27281 126.221 2.11871 127.719 1.2919C129.252 0.430633 130.988 0 132.929 0C137.865 0 141.236 2.18762 143.04 6.56285L137.678 10.0251C136.793 7.47579 135.21 6.20112 132.929 6.20112C131.941 6.20112 131.09 6.5284 130.375 7.18296C129.66 7.80307 129.303 8.57821 129.303 9.50838C129.303 10.4385 129.609 11.2654 130.222 11.9888C130.869 12.6778 131.635 13.2807 132.52 13.7975C133.439 14.2798 134.75 14.9171 136.452 15.7095C138.121 16.5019 139.517 17.3115 140.64 18.1383C141.798 18.9651 142.734 20.0503 143.449 21.3939C144.198 22.703 144.573 24.3049 144.573 26.1997C144.573 28.3701 144.079 30.2821 143.091 31.9358C142.138 33.5549 140.793 34.8124 139.057 35.7081C137.321 36.5694 135.346 37 133.133 37Z" fill="#211F1A"/>
<path d="M155.461 6.61452H145.503V0.413406H172.059V6.61452H162.1V36.5866H155.461V6.61452Z" fill="#211F1A"/>
<path d="M176.391 0.413406H183.03V36.5866H176.391V0.413406Z" fill="#211F1A"/>
<path d="M199.732 0.413406H206.371L218.474 36.5866H211.325L208.72 28.0601H197.383L194.778 36.5866H187.628L199.732 0.413406ZM206.831 21.8589L203.051 9.30168L199.272 21.8589H206.831Z" fill="#211F1A"/>
<path d="M222.573 0.413406H229.212V30.3855H244.38V36.5866H222.573V0.413406Z" fill="#211F1A"/>
<path d="M262.87 0.413406H270.327L278.753 22.9958L287.18 0.413406H294.636V36.5866H287.997V14.2626L281.153 33.2793H276.353L269.509 14.2626V36.5866H262.87V0.413406Z" fill="#211F1A"/>
<path d="M311.347 0.413406H317.986L330.09 36.5866H322.94L320.335 28.0601H308.998L306.393 36.5866H299.244L311.347 0.413406ZM318.446 21.8589L314.667 9.30168L310.888 21.8589H318.446Z" fill="#211F1A"/>
<path d="M334.189 0.413406H341.185L354.31 24.2877V0.413406H360.949V36.5866H353.953L340.828 12.7123V36.5866H334.189V0.413406Z" fill="#211F1A"/>
<path d="M384.216 37C381.118 37 378.292 36.311 375.739 34.933C373.185 33.5549 371.142 31.4879 369.61 28.7318C368.112 25.9413 367.363 22.5307 367.363 18.5C367.363 14.4693 368.112 11.0759 369.61 8.31983C371.142 5.52933 373.185 3.44506 375.739 2.06704C378.292 0.689013 381.118 0 384.216 0C387.314 0 390.14 0.689013 392.694 2.06704C395.247 3.44506 397.273 5.52933 398.771 8.31983C400.303 11.0759 401.069 14.4693 401.069 18.5C401.069 22.5307 400.303 25.9413 398.771 28.7318C397.273 31.4879 395.247 33.5549 392.694 34.933C390.14 36.311 387.314 37 384.216 37ZM384.216 30.7989C386.089 30.7989 387.774 30.3682 389.272 29.507C390.804 28.6113 392.03 27.2505 392.949 25.4246C393.868 23.5642 394.328 21.2561 394.328 18.5C394.328 15.7439 393.868 13.453 392.949 11.6271C392.03 9.76676 390.804 8.40596 389.272 7.54469C387.774 6.64898 386.089 6.20112 384.216 6.20112C382.344 6.20112 380.641 6.64898 379.109 7.54469C377.611 8.40596 376.402 9.76676 375.483 11.6271C374.564 13.453 374.104 15.7439 374.104 18.5C374.104 21.2561 374.564 23.5642 375.483 25.4246C376.402 27.2505 377.611 28.6113 379.109 29.507C380.641 30.3682 382.344 30.7989 384.216 30.7989Z" fill="#211F1A"/>
<path d="M407.502 0.413406H420.524C423.997 0.413406 426.67 1.3608 428.542 3.25558C430.449 5.11592 431.402 7.59637 431.402 10.6969C431.402 13.1085 430.823 15.1755 429.666 16.898C428.508 18.5861 426.857 19.7574 424.712 20.412L434.62 36.5866H427.215L417.613 20.9804H414.141V36.5866H407.502V0.413406ZM420.575 14.7793C421.869 14.7793 422.891 14.452 423.64 13.7975C424.389 13.1429 424.763 12.1094 424.763 10.6969C424.763 9.28445 424.389 8.25093 423.64 7.59637C422.891 6.9418 421.869 6.61452 420.575 6.61452H414.141V14.7793H420.575Z" fill="#211F1A"/>
<path d="M440.432 15.7095L443.854 11.007L438.287 9.09497L439.972 3.97905L445.539 5.83938V0H450.748V5.83938L456.315 3.97905L458 9.09497L452.433 11.007L455.855 15.7095L451.514 18.9651L448.144 14.1592L444.773 18.9651L440.432 15.7095Z" fill="#211F1A"/>
</svg>
