<svg width="42" height="142" viewBox="0 0 42 142" fill="none" xmlns="http://www.w3.org/2000/svg">
<path d="M11.834 44.9207C8.59811 43.0921 6.01958 40.3921 4.09378 36.8254C2.16798 33.2586 1.20508 28.9872 1.20508 24.0061C1.20508 19.0251 2.16798 14.7536 4.09378 11.1869C6.01958 7.62017 8.60274 4.92013 11.834 3.09153C15.0699 1.26293 18.6113 0.348633 22.4676 0.348633C27.3515 0.348633 31.4068 1.57246 34.6427 4.01535C37.874 6.45825 40.0266 9.90592 41.1006 14.3584L33.5826 16.3393C32.6382 13.7869 31.2911 11.8012 29.5365 10.3916C27.782 8.98209 25.4257 8.27732 22.4676 8.27732C20.0696 8.27732 17.9077 8.86305 15.9773 10.0297C14.0515 11.1964 12.5191 12.9583 11.385 15.3155C10.2508 17.6727 9.68137 20.568 9.68137 24.0061C9.68137 27.4443 10.2508 30.3396 11.385 32.6967C12.5191 35.0539 14.0515 36.8158 15.9773 37.9825C17.9031 39.1492 20.0649 39.7349 22.4676 39.7349C25.4211 39.7349 27.7774 39.0302 29.5365 37.6206C31.2911 36.2111 32.6428 34.2301 33.5826 31.6729L41.1006 33.6539C40.0312 38.1063 37.8786 41.5492 34.6427 43.9969C31.4068 46.4398 27.3515 47.6636 22.4676 47.6636C18.6113 47.6636 15.0699 46.7493 11.834 44.9207Z" fill="#FFFCFA"/>
<path d="M1.0752 51.8306H10.4588L21.06 80.7072L31.6611 51.8306H41.0402V98.0884H32.6889V69.5404L24.0783 93.8598H18.0417L9.43113 69.5404V98.0884H1.0752V51.8306Z" fill="#FFFCFA"/>
<path d="M5.15834 135.065L12.1903 125.241L0.751221 121.25L4.21396 110.565L15.6484 114.45V102.255H26.3514V114.45L37.7858 110.565L41.2486 121.25L29.8095 125.246L36.8414 135.07L27.9207 141.87L20.9953 131.832L14.0698 141.87L5.15371 135.07L5.15834 135.065Z" fill="#FFFCFA"/>
</svg>
