<svg width="15" height="48" viewBox="0 0 15 48" fill="none" xmlns="http://www.w3.org/2000/svg">
<g clip-path="url(#clip0_310_54)">
<path d="M4.33076 15.1181C3.21223 14.4979 2.32093 13.5821 1.65525 12.3723C0.989576 11.1625 0.656738 9.71371 0.656738 8.02423C0.656738 6.33475 0.989576 4.88593 1.65525 3.67616C2.32093 2.46638 3.21383 1.55058 4.33076 0.930345C5.44929 0.310115 6.67343 0 8.00638 0C9.69457 0 11.0963 0.415102 12.2149 1.24369C13.3318 2.07228 14.0759 3.24167 14.4471 4.75187L11.8484 5.42378C11.522 4.55805 11.0563 3.88451 10.4499 3.40642C9.84339 2.92833 9.02889 2.68928 8.00638 2.68928C7.17748 2.68928 6.4302 2.88795 5.76292 3.28367C5.09725 3.67939 4.56758 4.277 4.17554 5.07652C3.7835 5.87603 3.58667 6.85807 3.58667 8.02423C3.58667 9.19039 3.7835 10.1724 4.17554 10.9719C4.56758 11.7715 5.09725 12.3691 5.76292 12.7648C6.4286 13.1605 7.17588 13.3592 8.00638 13.3592C9.02729 13.3592 9.84179 13.1201 10.4499 12.642C11.0563 12.1639 11.5236 11.492 11.8484 10.6247L14.4471 11.2966C14.0775 12.8068 13.3334 13.9746 12.2149 14.8048C11.0963 15.6334 9.69457 16.0485 8.00638 16.0485C6.67343 16.0485 5.44929 15.7383 4.33076 15.1181Z" fill="#211F1A"/>
<path d="M0.612061 17.4617H3.85563L7.52005 27.2561L11.1845 17.4617H14.4264V33.1516H11.5397V23.4685L8.56337 31.7173H6.47673L3.50039 23.4685V33.1516H0.612061V17.4617Z" fill="#211F1A"/>
<path d="M2.02337 45.6935L4.45405 42.3614L0.5 41.0079L1.69694 37.3834L5.64939 38.7014V34.5649H9.34901V38.7014L13.3015 37.3834L14.4984 41.0079L10.5443 42.363L12.975 45.6952L9.89147 48.0016L7.4976 44.5968L5.10373 48.0016L2.02177 45.6952L2.02337 45.6935Z" fill="#211F1A"/>
</g>
<defs>
<clipPath id="clip0_310_54">
<rect width="14" height="48" fill="white" transform="translate(0.5)"/>
</clipPath>
</defs>
</svg>
