<svg width="1453" height="1025" viewBox="0 0 1453 1025" fill="none" xmlns="http://www.w3.org/2000/svg">
<path d="M0.524902 564.25H787.525L1445.52 914.25" stroke="#211F1A" stroke-width="2" stroke-miterlimit="10"/>
<path d="M802.025 0.749756C802.025 0.749756 782.025 18.7498 782.025 116.75C782.025 214.75 782.025 549.92 782.025 549.92L787.525 564.25" stroke="#211F1A" stroke-width="2" stroke-miterlimit="10"/>
<path d="M562.195 0.749756V564.25C562.195 564.25 546.525 653.25 635.525 775.25C724.525 897.25 729.585 898.25 745.055 1007.25" stroke="#211F1A" stroke-width="2" stroke-miterlimit="10"/>
<path d="M573.125 592.16C572.875 592.38 572.585 592.5 572.255 592.51C571.975 592.52 571.715 592.46 571.485 592.33C571.255 592.19 571.065 591.99 570.925 591.72C570.785 591.45 570.705 591.13 570.685 590.76L570.585 588.54L576.135 588.29L576.235 590.41C576.255 590.79 576.205 591.12 576.085 591.39C575.965 591.67 575.805 591.88 575.595 592.03C575.385 592.18 575.145 592.26 574.885 592.27C574.565 592.28 574.295 592.21 574.075 592.05C573.855 591.89 573.685 591.67 573.575 591.38C573.525 591.68 573.385 591.94 573.125 592.16ZM571.675 591.36C571.835 591.53 572.045 591.61 572.315 591.6C572.585 591.59 572.795 591.48 572.945 591.29C573.095 591.1 573.165 590.84 573.155 590.54L573.095 589.34L571.365 589.42L571.425 590.65C571.435 590.95 571.515 591.19 571.675 591.36ZM573.835 589.3L573.885 590.43C573.895 590.73 573.975 590.96 574.125 591.12C574.265 591.28 574.465 591.36 574.725 591.34C574.975 591.33 575.165 591.24 575.305 591.06C575.435 590.89 575.495 590.65 575.485 590.35L575.435 589.22L573.835 589.3Z" fill="#211F1A"/>
<path d="M574.195 593.11C574.545 593.27 574.835 593.5 575.045 593.8C575.255 594.1 575.375 594.45 575.405 594.83C575.425 595.18 575.385 595.48 575.265 595.75C575.145 596.02 574.995 596.24 574.805 596.4L575.445 596.36L575.505 597.28L571.105 597.59L571.045 596.67L571.695 596.62C571.475 596.48 571.285 596.28 571.135 596.03C570.975 595.77 570.885 595.47 570.865 595.13C570.835 594.75 570.915 594.4 571.085 594.07C571.255 593.74 571.515 593.47 571.845 593.27C572.185 593.06 572.565 592.94 573.015 592.91C573.445 592.88 573.845 592.95 574.195 593.11ZM574.015 596.27C574.225 596.13 574.385 595.95 574.495 595.74C574.595 595.53 574.645 595.31 574.625 595.07C574.605 594.84 574.535 594.62 574.405 594.43C574.275 594.24 574.095 594.08 573.865 593.97C573.635 593.86 573.365 593.82 573.065 593.84C572.765 593.86 572.505 593.94 572.285 594.08C572.065 594.22 571.905 594.4 571.795 594.61C571.685 594.82 571.645 595.04 571.665 595.27C571.685 595.5 571.755 595.72 571.885 595.91C572.015 596.1 572.195 596.26 572.435 596.37C572.675 596.48 572.935 596.52 573.245 596.5C573.555 596.48 573.805 596.41 574.015 596.27Z" fill="#211F1A"/>
<path d="M574.945 599.35L572.515 599.57C572.355 599.58 572.235 599.63 572.175 599.72C572.115 599.8 572.085 599.94 572.105 600.12L572.155 600.68L571.395 600.75L571.335 600.03C571.295 599.62 571.365 599.3 571.535 599.06C571.705 598.83 572.005 598.69 572.435 598.65L574.865 598.44L574.815 597.92L575.555 597.85L575.605 598.37L576.695 598.27L576.775 599.19L575.685 599.29L575.775 600.36L575.035 600.43L574.945 599.35Z" fill="#211F1A"/>
<path d="M576.365 607.14C576.255 607.43 576.065 607.67 575.805 607.85C575.545 608.04 575.215 608.15 574.815 608.2L572.235 608.49L572.135 607.59L574.585 607.31C574.975 607.27 575.265 607.13 575.455 606.91C575.645 606.69 575.715 606.41 575.675 606.07C575.635 605.73 575.505 605.47 575.275 605.3C575.045 605.12 574.735 605.06 574.335 605.1L571.885 605.38L571.785 604.48L574.235 604.2C574.625 604.16 574.915 604.02 575.105 603.8C575.295 603.58 575.365 603.3 575.325 602.96C575.285 602.62 575.155 602.36 574.925 602.19C574.695 602.02 574.385 601.95 573.985 601.99L571.535 602.27L571.435 601.36L575.815 600.87L575.915 601.78L575.415 601.84C575.615 601.97 575.775 602.14 575.895 602.36C576.015 602.58 576.095 602.82 576.125 603.07C576.165 603.42 576.125 603.74 576.005 604.03C575.885 604.32 575.695 604.56 575.435 604.74C575.715 604.84 575.945 605.03 576.135 605.29C576.325 605.55 576.435 605.85 576.475 606.17C576.515 606.53 576.475 606.85 576.365 607.14Z" fill="#211F1A"/>
<path d="M575.725 608.94C576.085 609.07 576.385 609.29 576.615 609.57C576.845 609.86 576.985 610.19 577.045 610.57C577.095 610.91 577.065 611.22 576.965 611.5C576.865 611.78 576.725 612 576.545 612.18L577.175 612.09L577.305 613L572.935 613.61L572.805 612.7L573.455 612.61C573.225 612.49 573.025 612.3 572.855 612.06C572.685 611.81 572.565 611.52 572.525 611.18C572.475 610.8 572.525 610.45 572.665 610.11C572.805 609.77 573.045 609.49 573.365 609.26C573.685 609.03 574.065 608.88 574.505 608.82C574.965 608.77 575.365 608.81 575.725 608.94ZM575.765 612.11C575.965 611.95 576.115 611.77 576.205 611.55C576.295 611.33 576.325 611.11 576.285 610.88C576.245 610.65 576.165 610.44 576.025 610.25C575.885 610.07 575.695 609.93 575.455 609.83C575.215 609.74 574.945 609.71 574.645 609.75C574.345 609.79 574.085 609.89 573.875 610.05C573.665 610.21 573.515 610.39 573.425 610.61C573.335 610.83 573.305 611.05 573.335 611.28C573.365 611.51 573.455 611.72 573.605 611.9C573.755 612.08 573.945 612.22 574.185 612.32C574.425 612.41 574.695 612.44 574.995 612.4C575.315 612.37 575.565 612.27 575.765 612.11Z" fill="#211F1A"/>
<path d="M577.815 617.08C577.715 617.37 577.545 617.62 577.285 617.82C577.035 618.02 576.705 618.15 576.315 618.21L573.745 618.62L573.605 617.73L576.035 617.34C576.425 617.28 576.705 617.13 576.885 616.9C577.065 616.67 577.125 616.39 577.065 616.05C577.015 615.71 576.865 615.46 576.625 615.3C576.385 615.14 576.075 615.09 575.685 615.15L573.255 615.54L573.105 614.64L577.455 613.94L577.605 614.84L577.105 614.92C577.305 615.04 577.475 615.2 577.615 615.42C577.755 615.63 577.845 615.87 577.885 616.13C577.935 616.47 577.915 616.79 577.815 617.08Z" fill="#211F1A"/>
<path d="M575.975 624.53L575.545 622.24L574.355 622.06L574.175 621.12L580.015 622.04L580.215 623.08L575.115 626.07L574.935 625.13L575.975 624.53ZM576.665 624.14L579.035 622.77L576.325 622.35L576.665 624.14Z" fill="#211F1A"/>
<path d="M576.405 628.26L580.175 628.75L580.375 629.7L575.715 628.95L575.495 627.88L579.475 625.35L579.675 626.31L576.405 628.26Z" fill="#211F1A"/>
<path d="M578.855 634.58L578.115 631.29C577.775 631.39 577.535 631.58 577.375 631.86C577.215 632.14 577.175 632.44 577.255 632.77C577.365 633.25 577.635 633.54 578.085 633.65L578.305 634.61C577.885 634.57 577.505 634.41 577.175 634.12C576.845 633.84 576.625 633.44 576.515 632.94C576.425 632.53 576.435 632.14 576.545 631.77C576.655 631.4 576.855 631.09 577.155 630.83C577.445 630.57 577.815 630.39 578.255 630.29C578.695 630.19 579.105 630.19 579.485 630.3C579.865 630.4 580.175 630.6 580.435 630.88C580.695 631.17 580.865 631.52 580.955 631.94C581.045 632.35 581.035 632.73 580.935 633.08C580.825 633.44 580.635 633.74 580.355 633.99C580.075 634.24 579.725 634.41 579.315 634.5C579.135 634.54 578.985 634.57 578.855 634.58ZM579.365 633.52C579.695 633.44 579.925 633.27 580.075 632.99C580.225 632.71 580.255 632.41 580.185 632.07C580.115 631.76 579.955 631.52 579.715 631.35C579.475 631.18 579.175 631.1 578.835 631.14L579.365 633.52Z" fill="#211F1A"/>
<path d="M580.865 640.63C580.665 640.9 580.395 641.07 580.075 641.15C579.805 641.22 579.535 641.21 579.285 641.12C579.035 641.03 578.805 640.87 578.615 640.63C578.425 640.39 578.275 640.09 578.195 639.74L577.655 637.58L583.055 636.24L583.565 638.3C583.655 638.67 583.675 639 583.615 639.29C583.555 639.58 583.435 639.83 583.265 640.01C583.095 640.19 582.875 640.32 582.615 640.39C582.305 640.47 582.025 640.45 581.775 640.33C581.525 640.22 581.315 640.03 581.155 639.78C581.165 640.08 581.075 640.37 580.865 640.63ZM579.285 640.14C579.475 640.27 579.695 640.31 579.955 640.25C580.215 640.18 580.405 640.04 580.515 639.82C580.625 639.6 580.645 639.34 580.565 639.04L580.275 637.87L578.595 638.29L578.895 639.49C578.965 639.78 579.095 640 579.285 640.14ZM581.005 637.69L581.275 638.78C581.345 639.07 581.465 639.28 581.645 639.41C581.815 639.54 582.025 639.58 582.275 639.51C582.515 639.45 582.685 639.32 582.785 639.12C582.885 638.92 582.895 638.68 582.825 638.39L582.555 637.3L581.005 637.69Z" fill="#211F1A"/>
<path d="M583.355 642.6C583.535 642.78 583.655 643.02 583.735 643.31L582.825 643.55L582.765 643.33C582.675 642.98 582.515 642.75 582.295 642.61C582.075 642.48 581.745 642.47 581.315 642.58L579.075 643.17L578.845 642.29L583.105 641.17L583.335 642.05L582.715 642.21C582.965 642.29 583.175 642.42 583.355 642.6Z" fill="#211F1A"/>
<path d="M584.075 644.84L579.825 645.99L579.585 645.11L583.835 643.96L584.075 644.84ZM584.575 643.81C584.655 643.67 584.775 643.58 584.935 643.54C585.095 643.5 585.245 643.51 585.385 643.59C585.525 643.67 585.615 643.79 585.655 643.95C585.695 644.1 585.675 644.25 585.595 644.39C585.515 644.53 585.395 644.62 585.235 644.66C585.075 644.7 584.925 644.69 584.785 644.61C584.645 644.53 584.555 644.41 584.515 644.26C584.485 644.1 584.495 643.95 584.575 643.81Z" fill="#211F1A"/>
<path d="M583.355 646.04C583.735 646.12 584.055 646.29 584.325 646.55C584.595 646.8 584.785 647.12 584.885 647.49C584.965 647.77 584.985 648.06 584.935 648.36C584.895 648.66 584.795 648.92 584.635 649.14L586.685 648.56L586.935 649.44L581.245 651.06L580.995 650.18L581.635 650C581.385 649.92 581.165 649.76 580.955 649.55C580.745 649.34 580.605 649.06 580.505 648.73C580.405 648.36 580.395 648 580.495 647.64C580.595 647.28 580.785 646.97 581.075 646.69C581.365 646.41 581.715 646.22 582.145 646.1C582.575 645.97 582.975 645.95 583.355 646.04ZM583.825 649.17C584.005 648.99 584.125 648.78 584.185 648.56C584.245 648.33 584.235 648.11 584.175 647.88C584.115 647.65 583.995 647.46 583.835 647.3C583.665 647.14 583.465 647.02 583.215 646.96C582.965 646.9 582.695 646.91 582.405 647C582.115 647.09 581.875 647.22 581.685 647.4C581.495 647.58 581.375 647.79 581.315 648.02C581.255 648.25 581.255 648.48 581.315 648.7C581.375 648.93 581.495 649.12 581.665 649.28C581.835 649.44 582.045 649.55 582.295 649.61C582.545 649.67 582.815 649.66 583.115 649.57C583.415 649.48 583.645 649.35 583.825 649.17Z" fill="#211F1A"/>
<path d="M586.395 653.35C586.345 653.64 586.235 653.89 586.085 654.09L586.695 653.91L586.965 654.79L582.675 656.08C582.285 656.2 581.915 656.22 581.565 656.15C581.215 656.08 580.905 655.91 580.635 655.66C580.365 655.4 580.165 655.06 580.045 654.63C579.875 654.06 579.865 653.54 580.015 653.09C580.165 652.63 580.465 652.31 580.915 652.12L581.175 652.99C580.975 653.12 580.845 653.32 580.775 653.58C580.705 653.84 580.715 654.12 580.805 654.42C580.915 654.77 581.105 655.02 581.385 655.18C581.665 655.33 582.005 655.35 582.415 655.22L583.115 655.01C582.875 654.92 582.645 654.77 582.435 654.56C582.225 654.35 582.065 654.08 581.975 653.76C581.865 653.39 581.855 653.03 581.955 652.67C582.045 652.31 582.235 651.99 582.515 651.71C582.795 651.43 583.145 651.23 583.575 651.1C584.005 650.97 584.405 650.95 584.785 651.02C585.165 651.1 585.495 651.26 585.765 651.51C586.035 651.76 586.235 652.07 586.345 652.43C586.425 652.75 586.445 653.06 586.395 653.35ZM585.295 654.13C585.475 653.94 585.585 653.74 585.645 653.51C585.695 653.28 585.695 653.05 585.625 652.83C585.555 652.61 585.435 652.41 585.275 652.25C585.105 652.09 584.895 651.98 584.655 651.92C584.405 651.86 584.135 651.88 583.845 651.97C583.555 652.06 583.315 652.2 583.135 652.38C582.955 652.57 582.835 652.78 582.775 653.01C582.715 653.24 582.725 653.47 582.795 653.69C582.865 653.91 582.985 654.11 583.155 654.27C583.325 654.43 583.535 654.54 583.795 654.59C584.045 654.64 584.315 654.63 584.615 654.54C584.915 654.45 585.125 654.32 585.295 654.13Z" fill="#211F1A"/>
<path d="M586.045 660.29L585.025 657.08C584.695 657.21 584.465 657.42 584.335 657.71C584.205 658 584.185 658.3 584.295 658.63C584.445 659.1 584.745 659.37 585.195 659.43L585.495 660.37C585.065 660.37 584.675 660.24 584.325 659.98C583.975 659.73 583.715 659.35 583.565 658.86C583.435 658.46 583.415 658.07 583.495 657.7C583.575 657.32 583.745 656.99 584.015 656.71C584.285 656.42 584.635 656.21 585.065 656.08C585.495 655.94 585.905 655.91 586.285 655.98C586.665 656.05 586.995 656.22 587.275 656.48C587.555 656.74 587.755 657.08 587.895 657.49C588.025 657.89 588.045 658.27 587.975 658.63C587.905 658.99 587.735 659.31 587.475 659.59C587.215 659.87 586.885 660.06 586.475 660.19C586.325 660.24 586.185 660.27 586.045 660.29ZM586.475 659.19C586.795 659.08 587.015 658.89 587.135 658.6C587.255 658.31 587.265 658.01 587.155 657.68C587.055 657.38 586.885 657.15 586.625 657C586.365 656.85 586.065 656.8 585.725 656.87L586.475 659.19Z" fill="#211F1A"/>
<path d="M335.195 0.749756V564.25V686.25" stroke="#211F1A" stroke-width="2" stroke-miterlimit="10"/>
<path d="M111.195 0.749756V564.25" stroke="#211F1A" stroke-width="2" stroke-miterlimit="10"/>
<path d="M0.524902 448.58C3.0249 448.75 782.025 448.58 782.025 448.58" stroke="#211F1A" stroke-width="2" stroke-miterlimit="10"/>
<path d="M782.025 339.92H0.524902" stroke="#211F1A" stroke-width="2" stroke-miterlimit="10"/>
<path d="M781.525 226.75C781.525 226.91 2.0249 226.75 2.0249 226.75" stroke="#211F1A" stroke-width="2" stroke-miterlimit="10"/>
<path d="M782.025 116.75H2.0249" stroke="#211F1A" stroke-width="2" stroke-miterlimit="10"/>
<path d="M466.415 14.2498V118.75" stroke="#211F1A" stroke-width="2" stroke-miterlimit="10"/>
<path d="M408.195 14.2498V116.75" stroke="#211F1A" stroke-width="2" stroke-miterlimit="10"/>
<path d="M715.195 339.92V406.25L721.355 412.42V448.58" stroke="#211F1A" stroke-width="2" stroke-miterlimit="10"/>
<path d="M709.195 226.97V339.92" stroke="#211F1A" stroke-width="2" stroke-miterlimit="10"/>
<path d="M1037.02 45.7498L996.025 118.75L782.025 320.36" stroke="#211F1A" stroke-width="2" stroke-miterlimit="10"/>
<path d="M881.385 226.75C881.025 226.75 881.385 298.75 881.385 298.75L891.205 308.57H920.025L928.025 295.75V250.14L939.745 226.97" stroke="#211F1A" stroke-width="2" stroke-miterlimit="10"/>
<path d="M900.195 308.57V378.75" stroke="#211F1A" stroke-width="2" stroke-miterlimit="10"/>
<path d="M1050.06 285.52L1022.71 311.47V378.75" stroke="#211F1A" stroke-width="2" stroke-miterlimit="10"/>
<path d="M1027.35 307.06H1063.31L1071.82 297.25" stroke="#211F1A" stroke-width="2" stroke-miterlimit="10"/>
<path d="M996.025 118.75C998.025 120.75 1188.02 223.75 1188.02 223.75" stroke="#211F1A" stroke-width="2" stroke-miterlimit="10"/>
<path d="M958.025 654.75L1240.02 128.75" stroke="#211F1A" stroke-width="2" stroke-miterlimit="10"/>
<path d="M1016.12 546.37L931.005 509.74" stroke="#211F1A" stroke-width="2" stroke-miterlimit="10"/>
<path d="M782.025 453.25H799.745L892.445 493.14" stroke="#211F1A" stroke-width="2" stroke-miterlimit="10"/>
<path d="M866.025 378.75V385.75L871.025 400.75L903.305 481.64" stroke="#211F1A" stroke-width="2" stroke-miterlimit="10"/>
<path d="M966.255 639.39L918.855 520.61" stroke="#211F1A" stroke-width="2" stroke-miterlimit="10"/>
<path d="M892.095 507.38L783.525 553.83" stroke="#211F1A" stroke-width="2" stroke-miterlimit="10"/>
<path d="M932.365 506L944.855 501.17C946.025 501.75 1066.02 430.75 1066.02 430.75L1075.67 435.31L1452.19 639.39" stroke="#211F1A" stroke-width="2" stroke-miterlimit="10"/>
<path d="M799.745 453.25L830.025 432.75L850.515 400.5" stroke="#211F1A" stroke-width="2" stroke-miterlimit="10"/>
<path d="M1077.52 378.75L1062.02 396.75L1066.02 430.75L1001.02 398.75L829.025 400.75L796.195 378.75" stroke="#211F1A" stroke-width="2" stroke-miterlimit="10"/>
<path d="M1036.38 448.66L1061.89 461" stroke="#211F1A" stroke-width="2" stroke-miterlimit="10"/>
<path d="M1105.99 378.75H781.525" stroke="#211F1A" stroke-width="2" stroke-miterlimit="10"/>
<path d="M933.025 500.75C933.025 502.56 932.795 504.32 932.365 506V506.01C932.025 507.3 931.575 508.55 931.005 509.74C928.605 514.81 924.225 518.77 918.855 520.61C916.715 521.35 914.415 521.75 912.025 521.75C902.745 521.75 894.865 515.73 892.095 507.38C891.405 505.3 891.025 503.07 891.025 500.75C891.025 498.07 891.525 495.5 892.445 493.14C894.435 488.04 898.355 483.9 903.305 481.64C905.965 480.43 908.915 479.75 912.025 479.75C923.625 479.75 933.025 489.15 933.025 500.75Z" stroke="#211F1A" stroke-width="2" stroke-miterlimit="10"/>
<path d="M1049.58 148.44L1020.19 206.95L975.305 183.06" stroke="#211F1A" stroke-width="2" stroke-miterlimit="10"/>
<path d="M1005.77 124.35L948.755 231.14" stroke="#211F1A" stroke-width="2" stroke-miterlimit="10"/>
<path d="M654.855 448.66V503.75H670.415V547.2" stroke="#211F1A" stroke-width="2" stroke-miterlimit="10"/>
<path d="M598.525 226.97V282.5H603.195V308.57" stroke="#211F1A" stroke-width="2" stroke-miterlimit="10"/>
<path d="M730.525 116.25V226.75" stroke="#211F1A" stroke-width="2" stroke-miterlimit="10"/>
<path d="M613.525 116.75V144.75L606.275 152V226.75" stroke="#211F1A" stroke-width="2" stroke-miterlimit="10"/>
<path d="M644.195 564.25C644.195 564.25 673.025 570.75 694.025 588.75L1289.02 918.75" stroke="#211F1A" stroke-width="2" stroke-miterlimit="10"/>
<path d="M1102.62 731.85L1071.81 798.28" stroke="#211F1A" stroke-width="2" stroke-miterlimit="10"/>
<path d="M1433.02 260.75C1433.02 262.75 1171.83 768.67 1171.83 768.67" stroke="#211F1A" stroke-width="2" stroke-miterlimit="10"/>
<path d="M969.295 660.94L1258.02 556.75L1276.19 521.75L1192.66 217.1" stroke="#211F1A" stroke-width="2" stroke-miterlimit="10"/>
<path d="M782.025 217.1H881.225" stroke="#211F1A" stroke-width="2" stroke-miterlimit="10"/>
<path d="M935.105 176.15C935.025 175.75 883.025 145.75 883.025 145.75H845.965" stroke="#211F1A" stroke-width="2" stroke-miterlimit="10"/>
<path d="M866.025 145.75C866.025 145.75 877.245 153.54 876.635 176.15C876.025 198.75 902.395 206.96 902.395 206.96C902.995 205.8 1132.52 330.25 1132.52 330.25" stroke="#211F1A" stroke-width="2" stroke-miterlimit="10"/>
<path d="M789.545 31.4797C789.545 31.4797 818.025 48.7497 840.025 25.7497C862.025 2.74969 916.145 8.35969 916.145 8.35969" stroke="#211F1A" stroke-width="2" stroke-miterlimit="10"/>
<path d="M812.525 278.75C829.37 278.75 843.025 265.094 843.025 248.25C843.025 231.405 829.37 217.75 812.525 217.75C795.68 217.75 782.025 231.405 782.025 248.25C782.025 265.094 795.68 278.75 812.525 278.75Z" stroke="#211F1A" stroke-width="2" stroke-miterlimit="10"/>
<path d="M507.745 448.58C507.965 448.8 507.745 521.75 507.745 521.75H554.025" stroke="#211F1A" stroke-width="2" stroke-miterlimit="10"/>
<path d="M495.745 448.66V497.93H463.305V515.47" stroke="#211F1A" stroke-width="2" stroke-miterlimit="10"/>
<path d="M525.085 448.58V402.58H459.745" stroke="#211F1A" stroke-width="2" stroke-miterlimit="10"/>
<path d="M421.085 339.92V448.25" stroke="#211F1A" stroke-width="2" stroke-miterlimit="10"/>
<path d="M443.305 226.75C443.305 229.85 443.305 340.25 443.305 340.25" stroke="#211F1A" stroke-width="2" stroke-miterlimit="10"/>
<path d="M479.525 226.97V276.75H495.745V308.57" stroke="#211F1A" stroke-width="2" stroke-miterlimit="10"/>
<path d="M690.525 116.75V226.75" stroke="#211F1A" stroke-width="2" stroke-miterlimit="10"/>
<path d="M335.525 712.25C342.705 712.25 348.525 706.429 348.525 699.25C348.525 692.07 342.705 686.25 335.525 686.25C328.345 686.25 322.525 692.07 322.525 699.25C322.525 706.429 328.345 712.25 335.525 712.25Z" stroke="#211F1A" stroke-width="2" stroke-miterlimit="10"/>
<path d="M348.525 699.25C348.525 699.25 629.525 629.25 783.525 891.25L858.525 1024.25" stroke="#211F1A" stroke-width="2" stroke-miterlimit="10"/>
<path d="M771.055 237.82C771.185 237.52 771.375 237.29 771.615 237.12C771.855 236.95 772.135 236.86 772.455 236.86V237.84C772.215 237.86 772.015 237.96 771.865 238.12C771.715 238.28 771.635 238.52 771.635 238.83C771.635 239.15 771.715 239.39 771.865 239.57C772.015 239.75 772.215 239.83 772.455 239.83C772.645 239.83 772.795 239.78 772.915 239.67C773.035 239.56 773.125 239.42 773.185 239.26C773.245 239.1 773.315 238.87 773.395 238.58C773.495 238.22 773.585 237.92 773.685 237.7C773.785 237.47 773.935 237.28 774.145 237.12C774.355 236.96 774.625 236.88 774.975 236.88C775.295 236.88 775.575 236.96 775.815 237.12C776.055 237.28 776.235 237.5 776.365 237.79C776.495 238.08 776.555 238.41 776.555 238.79C776.555 239.33 776.425 239.77 776.155 240.11C775.885 240.45 775.515 240.65 775.045 240.68V239.67C775.245 239.65 775.425 239.56 775.565 239.38C775.705 239.2 775.785 238.97 775.785 238.68C775.785 238.42 775.715 238.21 775.585 238.04C775.455 237.87 775.255 237.79 775.005 237.79C774.835 237.79 774.695 237.84 774.585 237.95C774.475 238.05 774.385 238.19 774.325 238.35C774.265 238.51 774.195 238.73 774.115 239.01C774.015 239.38 773.915 239.68 773.815 239.91C773.715 240.14 773.555 240.34 773.345 240.5C773.135 240.66 772.855 240.74 772.505 240.74C772.225 240.74 771.955 240.66 771.705 240.51C771.455 240.36 771.255 240.14 771.105 239.85C770.955 239.56 770.875 239.22 770.875 238.82C770.855 238.45 770.925 238.12 771.055 237.82Z" fill="#211F1A"/>
<path d="M775.185 243.21C775.325 243.48 775.395 243.78 775.395 244.11C775.395 244.49 775.305 244.84 775.115 245.16C774.925 245.48 774.665 245.73 774.315 245.91C773.975 246.09 773.585 246.18 773.135 246.18C772.695 246.18 772.295 246.09 771.945 245.91C771.595 245.73 771.325 245.48 771.125 245.16C770.925 244.84 770.835 244.49 770.835 244.11C770.835 243.77 770.905 243.48 771.035 243.21C771.175 242.95 771.335 242.74 771.545 242.57H768.805V241.66H775.305V242.57H774.655C774.875 242.73 775.045 242.94 775.185 243.21ZM773.925 245.07C774.145 244.95 774.315 244.78 774.425 244.57C774.535 244.36 774.595 244.15 774.595 243.91C774.595 243.68 774.535 243.46 774.415 243.26C774.295 243.05 774.125 242.89 773.905 242.76C773.685 242.63 773.415 242.57 773.115 242.57C772.815 242.57 772.545 242.63 772.315 242.76C772.085 242.88 771.915 243.05 771.795 243.26C771.675 243.47 771.615 243.68 771.615 243.91C771.615 244.15 771.675 244.37 771.795 244.57C771.915 244.77 772.085 244.94 772.315 245.07C772.545 245.19 772.815 245.26 773.115 245.26C773.445 245.26 773.705 245.19 773.925 245.07Z" fill="#211F1A"/>
<path d="M775.205 248.37C775.325 248.59 775.395 248.85 775.395 249.16H774.455V248.93C774.455 248.57 774.365 248.3 774.185 248.12C774.005 247.94 773.685 247.84 773.245 247.84H770.925V246.93H775.335V247.84H774.695C774.905 247.97 775.085 248.15 775.205 248.37Z" fill="#211F1A"/>
<path d="M775.325 250.75H770.915V249.84H775.325V250.75ZM776.075 249.89C776.185 249.78 776.325 249.72 776.495 249.72C776.665 249.72 776.795 249.78 776.915 249.89C777.025 250 777.085 250.14 777.085 250.31C777.085 250.47 777.025 250.61 776.915 250.72C776.805 250.83 776.665 250.89 776.495 250.89C776.325 250.89 776.195 250.83 776.075 250.72C775.965 250.61 775.905 250.47 775.905 250.31C775.905 250.14 775.965 250 776.075 249.89Z" fill="#211F1A"/>
<path d="M775.185 254.95C775.045 255.22 774.825 255.44 774.545 255.59C774.265 255.74 773.925 255.82 773.525 255.82H770.925V254.92H773.385C773.775 254.92 774.085 254.82 774.295 254.62C774.505 254.42 774.615 254.15 774.615 253.81C774.615 253.47 774.505 253.2 774.295 253C774.085 252.8 773.785 252.7 773.385 252.7H770.925V251.79H775.335V252.7H774.835C775.015 252.85 775.155 253.04 775.255 253.27C775.355 253.5 775.405 253.75 775.405 254.01C775.395 254.36 775.325 254.67 775.185 254.95Z" fill="#211F1A"/>
<path d="M775.195 259.51C775.055 259.77 774.885 259.98 774.685 260.13H775.325V261.05H770.845C770.435 261.05 770.075 260.96 769.765 260.79C769.445 260.62 769.195 260.37 769.015 260.05C768.835 259.73 768.745 259.34 768.745 258.89C768.745 258.29 768.885 257.8 769.165 257.4C769.445 257.01 769.825 256.78 770.305 256.73V257.63C770.075 257.7 769.885 257.85 769.745 258.07C769.605 258.3 769.535 258.57 769.535 258.88C769.535 259.25 769.645 259.55 769.875 259.77C770.095 260 770.425 260.11 770.855 260.11H771.595C771.385 259.95 771.215 259.75 771.075 259.48C770.935 259.22 770.865 258.92 770.865 258.58C770.865 258.2 770.965 257.85 771.155 257.53C771.345 257.21 771.625 256.96 771.975 256.78C772.325 256.6 772.715 256.5 773.165 256.5C773.605 256.5 773.995 256.59 774.345 256.78C774.685 256.96 774.955 257.21 775.145 257.53C775.335 257.85 775.425 258.2 775.425 258.58C775.395 258.94 775.325 259.24 775.195 259.51ZM773.915 259.94C774.135 259.82 774.305 259.65 774.425 259.45C774.545 259.25 774.605 259.03 774.605 258.79C774.605 258.55 774.545 258.34 774.435 258.13C774.325 257.93 774.155 257.76 773.935 257.64C773.715 257.52 773.455 257.45 773.145 257.45C772.845 257.45 772.575 257.51 772.345 257.64C772.115 257.76 771.945 257.93 771.825 258.14C771.705 258.35 771.645 258.56 771.645 258.79C771.645 259.02 771.705 259.24 771.825 259.45C771.945 259.65 772.115 259.82 772.345 259.94C772.575 260.06 772.835 260.13 773.145 260.13C773.425 260.13 773.695 260.07 773.915 259.94Z" fill="#211F1A"/>
<path d="M771.055 264.83C771.185 264.53 771.375 264.3 771.615 264.13C771.855 263.96 772.135 263.87 772.455 263.87V264.85C772.215 264.87 772.015 264.97 771.865 265.13C771.715 265.29 771.635 265.53 771.635 265.84C771.635 266.16 771.715 266.4 771.865 266.58C772.015 266.76 772.215 266.84 772.455 266.84C772.645 266.84 772.795 266.79 772.915 266.68C773.035 266.57 773.125 266.43 773.185 266.27C773.245 266.11 773.315 265.88 773.395 265.59C773.495 265.23 773.585 264.93 773.685 264.71C773.785 264.48 773.935 264.29 774.145 264.13C774.355 263.97 774.625 263.89 774.975 263.89C775.295 263.89 775.575 263.97 775.815 264.13C776.055 264.29 776.235 264.51 776.365 264.8C776.495 265.09 776.555 265.42 776.555 265.8C776.555 266.34 776.425 266.78 776.155 267.12C775.885 267.46 775.515 267.66 775.045 267.69V266.68C775.245 266.66 775.425 266.57 775.565 266.39C775.705 266.21 775.785 265.98 775.785 265.69C775.785 265.43 775.715 265.22 775.585 265.05C775.455 264.88 775.255 264.8 775.005 264.8C774.835 264.8 774.695 264.85 774.585 264.96C774.475 265.06 774.385 265.2 774.325 265.36C774.265 265.52 774.195 265.74 774.115 266.02C774.015 266.39 773.915 266.69 773.815 266.92C773.715 267.15 773.555 267.35 773.345 267.51C773.135 267.67 772.855 267.75 772.505 267.75C772.225 267.75 771.955 267.67 771.705 267.52C771.455 267.37 771.255 267.15 771.105 266.86C770.955 266.57 770.875 266.23 770.875 265.83C770.855 265.47 770.925 265.13 771.055 264.83Z" fill="#211F1A"/>
<path d="M774.575 269.74H772.135C771.965 269.74 771.855 269.78 771.775 269.86C771.705 269.94 771.665 270.07 771.665 270.26V270.82H770.905V270.1C770.905 269.69 771.005 269.38 771.195 269.16C771.385 268.94 771.695 268.83 772.135 268.83H774.575V268.31H775.315V268.83H776.415V269.75H775.315V270.82H774.575V269.74Z" fill="#211F1A"/>
<path d="M573.445 330.42C573.695 329.99 574.045 329.65 574.475 329.41C574.905 329.17 575.385 329.05 575.905 329.05C576.495 329.05 577.025 329.2 577.485 329.49C577.945 329.78 578.285 330.19 578.485 330.73H577.385C577.245 330.44 577.045 330.22 576.785 330.07C576.525 329.93 576.235 329.85 575.895 329.85C575.525 329.85 575.195 329.93 574.915 330.1C574.625 330.27 574.405 330.5 574.235 330.81C574.075 331.12 573.995 331.48 573.995 331.89C573.995 332.3 574.075 332.66 574.235 332.97C574.395 333.28 574.625 333.52 574.915 333.69C575.205 333.86 575.535 333.94 575.895 333.94C576.235 333.94 576.525 333.87 576.785 333.72C577.045 333.58 577.245 333.36 577.385 333.06H578.485C578.275 333.59 577.945 334 577.485 334.29C577.025 334.58 576.495 334.72 575.905 334.72C575.385 334.72 574.905 334.6 574.475 334.36C574.045 334.12 573.705 333.78 573.445 333.35C573.195 332.92 573.065 332.43 573.065 331.89C573.065 331.35 573.185 330.85 573.445 330.42Z" fill="#211F1A"/>
<path d="M580.175 334.46C579.835 334.27 579.575 334 579.385 333.66C579.195 333.32 579.095 332.92 579.095 332.46C579.095 332.01 579.195 331.61 579.395 331.27C579.595 330.93 579.865 330.66 580.205 330.47C580.545 330.28 580.925 330.19 581.345 330.19C581.765 330.19 582.145 330.28 582.485 330.47C582.825 330.66 583.095 330.92 583.295 331.27C583.495 331.62 583.595 332.01 583.595 332.46C583.595 332.91 583.495 333.31 583.295 333.65C583.095 334 582.815 334.26 582.465 334.45C582.115 334.64 581.735 334.73 581.305 334.73C580.885 334.75 580.505 334.65 580.175 334.46ZM581.965 333.79C582.175 333.68 582.335 333.51 582.465 333.29C582.595 333.07 582.655 332.79 582.655 332.47C582.655 332.15 582.595 331.88 582.475 331.66C582.355 331.44 582.185 331.27 581.985 331.16C581.785 331.05 581.565 330.99 581.325 330.99C581.085 330.99 580.875 331.05 580.675 331.16C580.475 331.27 580.315 331.44 580.195 331.66C580.075 331.88 580.015 332.15 580.015 332.47C580.015 332.94 580.135 333.31 580.375 333.57C580.615 333.83 580.925 333.96 581.295 333.96C581.535 333.96 581.755 333.9 581.965 333.79Z" fill="#211F1A"/>
<path d="M585.245 328.76V334.68H584.335V328.76H585.245Z" fill="#211F1A"/>
<path d="M587.195 328.76V334.68H586.285V328.76H587.195Z" fill="#211F1A"/>
<path d="M588.285 329.52C588.175 329.41 588.115 329.27 588.115 329.1C588.115 328.93 588.175 328.8 588.285 328.68C588.395 328.57 588.535 328.51 588.705 328.51C588.865 328.51 589.005 328.57 589.115 328.68C589.225 328.79 589.285 328.93 589.285 329.1C589.285 329.27 589.225 329.4 589.115 329.52C589.005 329.63 588.865 329.69 588.705 329.69C588.535 329.68 588.395 329.63 588.285 329.52ZM589.145 330.27V334.68H588.235V330.27H589.145Z" fill="#211F1A"/>
<path d="M593.345 330.41C593.615 330.55 593.835 330.77 593.985 331.05C594.135 331.33 594.215 331.67 594.215 332.07V334.67H593.315V332.21C593.315 331.82 593.215 331.51 593.015 331.3C592.815 331.09 592.545 330.98 592.205 330.98C591.865 330.98 591.595 331.09 591.395 331.3C591.195 331.51 591.095 331.81 591.095 332.21V334.67H590.185V330.26H591.095V330.76C591.245 330.58 591.435 330.44 591.665 330.34C591.895 330.24 592.145 330.19 592.405 330.19C592.755 330.2 593.075 330.27 593.345 330.41Z" fill="#211F1A"/>
<path d="M595.885 334.56C595.615 334.44 595.395 334.26 595.235 334.05C595.075 333.83 594.985 333.59 594.975 333.33H595.915C595.935 333.52 596.025 333.67 596.185 333.8C596.345 333.92 596.555 333.99 596.795 333.99C597.055 333.99 597.255 333.94 597.395 333.84C597.535 333.74 597.605 333.61 597.605 333.46C597.605 333.29 597.525 333.17 597.365 333.09C597.205 333.01 596.955 332.92 596.615 332.83C596.285 332.74 596.015 332.65 595.805 332.57C595.595 332.49 595.415 332.35 595.265 332.18C595.115 332 595.035 331.77 595.035 331.48C595.035 331.25 595.105 331.03 595.245 330.84C595.385 330.65 595.585 330.49 595.845 330.38C596.105 330.27 596.405 330.21 596.735 330.21C597.235 330.21 597.645 330.34 597.945 330.59C598.255 330.84 598.415 331.19 598.435 331.63H597.525C597.505 331.43 597.425 331.28 597.285 331.16C597.145 331.04 596.945 330.98 596.705 330.98C596.465 330.98 596.285 331.03 596.155 331.12C596.025 331.21 595.965 331.33 595.965 331.48C595.965 331.6 596.005 331.7 596.095 331.78C596.175 331.86 596.285 331.92 596.405 331.97C596.525 332.02 596.705 332.07 596.945 332.14C597.265 332.23 597.525 332.31 597.735 332.4C597.945 332.49 598.115 332.62 598.265 332.79C598.415 332.96 598.495 333.19 598.495 333.47C598.495 333.72 598.425 333.94 598.285 334.14C598.145 334.34 597.955 334.49 597.695 334.6C597.445 334.71 597.145 334.77 596.805 334.77C596.475 334.75 596.165 334.69 595.885 334.56Z" fill="#211F1A"/>
<path d="M602.075 334.54C601.775 334.41 601.545 334.22 601.375 333.98C601.205 333.74 601.115 333.46 601.115 333.14H602.095C602.115 333.38 602.215 333.58 602.375 333.73C602.535 333.88 602.775 333.96 603.085 333.96C603.405 333.96 603.645 333.88 603.825 333.73C604.005 333.58 604.085 333.38 604.085 333.14C604.085 332.95 604.035 332.8 603.925 332.68C603.815 332.56 603.675 332.47 603.515 332.41C603.355 332.35 603.125 332.28 602.835 332.2C602.475 332.1 602.175 332.01 601.955 331.91C601.735 331.81 601.535 331.66 601.375 331.45C601.215 331.24 601.135 330.96 601.135 330.62C601.135 330.3 601.215 330.02 601.375 329.78C601.535 329.54 601.755 329.36 602.045 329.23C602.335 329.1 602.665 329.04 603.045 329.04C603.585 329.04 604.025 329.17 604.365 329.44C604.705 329.71 604.905 330.08 604.935 330.55H603.925C603.905 330.35 603.815 330.17 603.635 330.03C603.455 329.89 603.225 329.81 602.935 329.81C602.675 329.81 602.465 329.88 602.295 330.01C602.125 330.14 602.045 330.34 602.045 330.59C602.045 330.76 602.095 330.9 602.205 331.01C602.305 331.12 602.445 331.21 602.605 331.27C602.765 331.33 602.985 331.4 603.265 331.48C603.635 331.58 603.935 331.68 604.165 331.78C604.395 331.88 604.595 332.04 604.755 332.25C604.915 332.46 604.995 332.74 604.995 333.09C604.995 333.37 604.915 333.64 604.765 333.89C604.615 334.14 604.395 334.34 604.105 334.49C603.815 334.64 603.475 334.72 603.075 334.72C602.715 334.73 602.375 334.67 602.075 334.54Z" fill="#211F1A"/>
<path d="M606.985 331.01V333.45C606.985 333.62 607.025 333.73 607.105 333.81C607.185 333.88 607.315 333.92 607.505 333.92H608.065V334.68H607.345C606.935 334.68 606.625 334.58 606.405 334.39C606.185 334.2 606.075 333.89 606.075 333.45V331.01H605.555V330.27H606.075V329.17H606.995V330.27H608.065V331.01H606.985Z" fill="#211F1A"/>
<path d="M575.635 436.12V436.86H573.275V438.5H575.115V439.24H573.275V441.67H572.365V436.11H575.635V436.12Z" fill="#211F1A"/>
<path d="M577.235 435.76V441.68H576.325V435.76H577.235Z" fill="#211F1A"/>
<path d="M578.325 436.52C578.215 436.41 578.155 436.27 578.155 436.1C578.155 435.93 578.215 435.8 578.325 435.68C578.435 435.57 578.575 435.51 578.745 435.51C578.905 435.51 579.045 435.57 579.155 435.68C579.265 435.79 579.325 435.93 579.325 436.1C579.325 436.27 579.265 436.4 579.155 436.52C579.045 436.63 578.905 436.69 578.745 436.69C578.575 436.68 578.435 436.63 578.325 436.52ZM579.185 437.27V441.68H578.275V437.27H579.185Z" fill="#211F1A"/>
<path d="M583.385 437.41C583.655 437.55 583.875 437.77 584.025 438.05C584.175 438.33 584.255 438.67 584.255 439.07V441.67H583.355V439.21C583.355 438.82 583.255 438.51 583.055 438.3C582.855 438.09 582.585 437.98 582.245 437.98C581.905 437.98 581.635 438.09 581.435 438.3C581.235 438.51 581.135 438.81 581.135 439.21V441.67H580.225V437.26H581.135V437.76C581.285 437.58 581.475 437.44 581.705 437.34C581.935 437.24 582.185 437.19 582.445 437.19C582.805 437.2 583.115 437.27 583.385 437.41Z" fill="#211F1A"/>
<path d="M585.235 438.28C585.415 437.94 585.665 437.67 585.985 437.48C586.305 437.29 586.655 437.2 587.045 437.2C587.335 437.2 587.615 437.26 587.895 437.39C588.175 437.52 588.395 437.68 588.565 437.89V435.76H589.485V441.68H588.565V441.02C588.415 441.23 588.205 441.41 587.945 441.55C587.685 441.69 587.375 441.76 587.035 441.76C586.655 441.76 586.305 441.66 585.985 441.47C585.665 441.28 585.415 441 585.235 440.65C585.055 440.3 584.955 439.9 584.955 439.46C584.955 439.01 585.045 438.62 585.235 438.28ZM588.375 438.68C588.255 438.46 588.085 438.29 587.885 438.17C587.685 438.05 587.465 437.99 587.225 437.99C586.985 437.99 586.775 438.05 586.565 438.16C586.365 438.27 586.195 438.44 586.075 438.66C585.955 438.88 585.885 439.14 585.885 439.45C585.885 439.75 585.945 440.02 586.075 440.25C586.195 440.48 586.365 440.65 586.575 440.77C586.785 440.89 586.995 440.95 587.225 440.95C587.455 440.95 587.675 440.89 587.885 440.77C588.085 440.65 588.255 440.48 588.375 440.25C588.495 440.02 588.565 439.76 588.565 439.45C588.565 439.14 588.505 438.9 588.375 438.68Z" fill="#211F1A"/>
<path d="M594.535 439.81H591.165C591.195 440.16 591.325 440.44 591.555 440.66C591.785 440.88 592.075 440.98 592.415 440.98C592.905 440.98 593.255 440.77 593.455 440.36H594.435C594.305 440.77 594.065 441.1 593.715 441.36C593.365 441.62 592.935 441.75 592.415 441.75C591.995 441.75 591.615 441.66 591.285 441.47C590.955 441.28 590.695 441.01 590.505 440.67C590.315 440.33 590.225 439.93 590.225 439.47C590.225 439.02 590.315 438.62 590.505 438.27C590.685 437.93 590.945 437.66 591.285 437.47C591.615 437.28 592.005 437.19 592.435 437.19C592.855 437.19 593.225 437.28 593.545 437.46C593.875 437.64 594.125 437.9 594.305 438.22C594.485 438.55 594.575 438.93 594.575 439.35C594.565 439.53 594.555 439.68 594.535 439.81ZM593.615 439.08C593.605 438.74 593.485 438.48 593.255 438.27C593.015 438.07 592.725 437.97 592.385 437.97C592.075 437.97 591.805 438.07 591.575 438.27C591.355 438.47 591.215 438.74 591.175 439.08H593.615Z" fill="#211F1A"/>
<path d="M596.745 437.38C596.965 437.25 597.225 437.19 597.535 437.19V438.13H597.305C596.945 438.13 596.675 438.22 596.495 438.4C596.315 438.58 596.215 438.9 596.215 439.34V441.66H595.305V437.25H596.215V437.89C596.345 437.68 596.525 437.51 596.745 437.38Z" fill="#211F1A"/>
<path d="M598.885 441.56C598.615 441.44 598.395 441.26 598.235 441.05C598.075 440.83 597.985 440.59 597.975 440.33H598.915C598.935 440.52 599.025 440.67 599.185 440.8C599.345 440.92 599.555 440.99 599.795 440.99C600.055 440.99 600.255 440.94 600.395 440.84C600.535 440.74 600.605 440.61 600.605 440.46C600.605 440.29 600.525 440.17 600.365 440.09C600.205 440.01 599.955 439.92 599.615 439.83C599.285 439.74 599.015 439.65 598.805 439.57C598.595 439.49 598.415 439.35 598.265 439.18C598.115 439 598.035 438.77 598.035 438.48C598.035 438.25 598.105 438.03 598.245 437.84C598.385 437.65 598.585 437.49 598.845 437.38C599.105 437.27 599.405 437.21 599.735 437.21C600.235 437.21 600.645 437.34 600.945 437.59C601.255 437.84 601.415 438.19 601.435 438.63H600.525C600.505 438.43 600.425 438.28 600.285 438.16C600.145 438.04 599.945 437.98 599.705 437.98C599.465 437.98 599.285 438.03 599.155 438.12C599.025 438.21 598.965 438.33 598.965 438.48C598.965 438.6 599.005 438.7 599.095 438.78C599.175 438.86 599.285 438.92 599.405 438.97C599.525 439.02 599.705 439.07 599.945 439.14C600.265 439.23 600.525 439.31 600.735 439.4C600.945 439.49 601.115 439.62 601.265 439.79C601.415 439.96 601.495 440.19 601.495 440.47C601.495 440.72 601.425 440.94 601.285 441.14C601.145 441.34 600.955 441.49 600.695 441.6C600.445 441.71 600.145 441.77 599.805 441.77C599.465 441.75 599.155 441.69 598.885 441.56Z" fill="#211F1A"/>
<path d="M605.155 440.94H607.035V441.68H604.245V436.12H605.155V440.94Z" fill="#211F1A"/>
<path d="M610.795 437.41C611.065 437.55 611.285 437.77 611.435 438.05C611.585 438.33 611.665 438.67 611.665 439.07V441.67H610.765V439.21C610.765 438.82 610.665 438.51 610.465 438.3C610.265 438.09 609.995 437.98 609.655 437.98C609.315 437.98 609.045 438.09 608.845 438.3C608.645 438.51 608.545 438.81 608.545 439.21V441.67H607.635V437.26H608.545V437.76C608.695 437.58 608.885 437.44 609.115 437.34C609.345 437.24 609.595 437.19 609.855 437.19C610.205 437.2 610.515 437.27 610.795 437.41Z" fill="#211F1A"/>
<path d="M754.605 607.16L750.475 611.23L749.575 610.73L750.585 606.48L747.465 609.57L746.565 609.08L747.875 603.44L748.725 603.91L747.545 608.43L750.825 605.07L751.725 605.56L750.565 610.06L753.755 606.68L754.605 607.16Z" fill="#211F1A"/>
<path d="M756.855 612.62L753.905 610.99C753.755 611.31 753.735 611.62 753.835 611.92C753.935 612.22 754.135 612.45 754.435 612.62C754.865 612.86 755.265 612.84 755.645 612.58L756.505 613.05C756.195 613.34 755.825 613.51 755.385 613.57C754.955 613.63 754.515 613.53 754.055 613.28C753.685 613.08 753.405 612.81 753.205 612.49C753.005 612.16 752.905 611.8 752.905 611.41C752.905 611.02 753.015 610.62 753.235 610.23C753.455 609.83 753.725 609.53 754.055 609.32C754.385 609.11 754.735 609 755.115 609C755.495 609 755.875 609.1 756.255 609.31C756.615 609.51 756.895 609.77 757.095 610.09C757.295 610.41 757.395 610.75 757.395 611.13C757.395 611.51 757.295 611.88 757.085 612.25C757.015 612.38 756.935 612.51 756.855 612.62ZM756.405 611.53C756.565 611.23 756.585 610.94 756.485 610.65C756.375 610.36 756.175 610.13 755.865 609.96C755.585 609.81 755.305 609.77 755.015 609.83C754.725 609.9 754.475 610.07 754.275 610.35L756.405 611.53Z" fill="#211F1A"/>
<path d="M760.275 609.87L757.415 615.05L756.615 614.61L759.475 609.43L760.275 609.87Z" fill="#211F1A"/>
<path d="M761.985 610.82L759.125 616L758.325 615.56L761.185 610.38L761.985 610.82Z" fill="#211F1A"/>
<path d="M762.965 613.08L760.835 616.94L760.035 616.5L762.165 612.64L762.965 613.08ZM762.575 612.01C762.535 611.86 762.545 611.71 762.625 611.56C762.705 611.42 762.825 611.32 762.975 611.28C763.125 611.24 763.275 611.25 763.425 611.33C763.565 611.41 763.655 611.52 763.705 611.67C763.745 611.82 763.735 611.97 763.655 612.12C763.575 612.27 763.455 612.36 763.305 612.4C763.155 612.44 763.005 612.43 762.865 612.35C762.715 612.28 762.615 612.16 762.575 612.01Z" fill="#211F1A"/>
<path d="M766.575 615.24C766.745 615.5 766.835 615.79 766.835 616.11C766.835 616.43 766.735 616.77 766.545 617.12L765.295 619.4L764.505 618.96L765.695 616.8C765.885 616.45 765.945 616.14 765.875 615.86C765.805 615.58 765.615 615.36 765.325 615.19C765.035 615.02 764.735 614.99 764.465 615.07C764.185 615.16 763.955 615.37 763.765 615.72L762.575 617.88L761.775 617.44L763.905 613.58L764.705 614.02L764.465 614.46C764.685 614.37 764.915 614.34 765.175 614.36C765.425 614.38 765.665 614.46 765.895 614.58C766.165 614.76 766.405 614.98 766.575 615.24Z" fill="#211F1A"/>
<path d="M770.575 617.43C770.745 617.68 770.845 617.92 770.875 618.17L771.185 617.61L771.995 618.05L769.835 621.97C769.635 622.33 769.385 622.6 769.085 622.8C768.785 623 768.445 623.09 768.075 623.1C767.705 623.1 767.325 623 766.935 622.78C766.415 622.49 766.045 622.13 765.835 621.69C765.625 621.25 765.615 620.81 765.795 620.37L766.585 620.81C766.535 621.04 766.575 621.28 766.705 621.51C766.835 621.74 767.035 621.94 767.315 622.09C767.635 622.27 767.955 622.31 768.255 622.23C768.565 622.14 768.815 621.91 769.025 621.54L769.385 620.9C769.145 621.01 768.885 621.06 768.585 621.06C768.285 621.06 767.985 620.97 767.695 620.81C767.355 620.62 767.095 620.37 766.915 620.05C766.735 619.73 766.645 619.37 766.655 618.97C766.665 618.58 766.775 618.18 766.985 617.8C767.195 617.41 767.465 617.11 767.795 616.9C768.125 616.69 768.465 616.58 768.835 616.57C769.205 616.56 769.555 616.64 769.895 616.83C770.175 616.97 770.405 617.18 770.575 617.43ZM770.335 618.75C770.335 618.49 770.275 618.26 770.155 618.06C770.035 617.86 769.875 617.7 769.665 617.59C769.455 617.48 769.235 617.42 769.005 617.42C768.775 617.42 768.545 617.49 768.335 617.62C768.125 617.75 767.935 617.95 767.795 618.22C767.645 618.49 767.575 618.75 767.575 619.01C767.575 619.27 767.635 619.5 767.755 619.71C767.875 619.91 768.035 620.07 768.235 620.18C768.445 620.29 768.665 620.35 768.895 620.34C769.125 620.34 769.355 620.26 769.575 620.13C769.795 619.99 769.975 619.79 770.125 619.52C770.275 619.25 770.335 619.01 770.335 618.75Z" fill="#211F1A"/>
<path d="M773.465 619.72L772.285 621.86C772.205 622.01 772.185 622.13 772.215 622.23C772.245 622.33 772.345 622.43 772.505 622.52L772.995 622.79L772.625 623.46L771.995 623.11C771.635 622.91 771.405 622.68 771.305 622.4C771.205 622.13 771.265 621.8 771.475 621.42L772.655 619.28L772.195 619.03L772.555 618.38L773.015 618.63L773.545 617.67L774.355 618.11L773.825 619.07L774.765 619.59L774.405 620.24L773.465 619.72Z" fill="#211F1A"/>
<path d="M774.025 623.97C773.825 623.64 773.725 623.28 773.715 622.89C773.715 622.5 773.825 622.1 774.045 621.7C774.265 621.31 774.545 621.01 774.875 620.8C775.215 620.59 775.585 620.49 775.965 620.49C776.355 620.49 776.735 620.59 777.105 620.8C777.475 621 777.765 621.27 777.975 621.6C778.185 621.93 778.295 622.29 778.295 622.69C778.295 623.09 778.195 623.48 777.975 623.88C777.755 624.27 777.475 624.57 777.135 624.78C776.795 624.99 776.415 625.09 776.025 625.08C775.635 625.07 775.245 624.97 774.875 624.77C774.505 624.56 774.225 624.3 774.025 623.97ZM775.915 624.24C776.145 624.24 776.375 624.17 776.595 624.04C776.815 623.91 777.005 623.7 777.155 623.42C777.305 623.14 777.385 622.87 777.385 622.62C777.385 622.37 777.325 622.14 777.195 621.95C777.075 621.75 776.905 621.6 776.705 621.49C776.495 621.38 776.285 621.32 776.055 621.32C775.825 621.32 775.605 621.39 775.395 621.53C775.185 621.67 775.005 621.88 774.845 622.16C774.615 622.58 774.545 622.96 774.635 623.3C774.725 623.64 774.925 623.9 775.255 624.08C775.465 624.18 775.685 624.24 775.915 624.24Z" fill="#211F1A"/>
<path d="M782.385 623.95C782.555 624.21 782.645 624.5 782.645 624.82C782.645 625.14 782.545 625.48 782.355 625.83L781.095 628.11L780.305 627.67L781.495 625.51C781.685 625.16 781.745 624.85 781.675 624.57C781.605 624.29 781.415 624.07 781.115 623.9C780.815 623.73 780.525 623.7 780.255 623.78C779.985 623.86 779.745 624.08 779.555 624.43L778.365 626.59L777.565 626.15L779.695 622.29L780.495 622.73L780.255 623.17C780.475 623.08 780.705 623.05 780.965 623.07C781.215 623.09 781.455 623.17 781.685 623.29C781.975 623.48 782.215 623.69 782.385 623.95Z" fill="#211F1A"/>
<path d="M788.375 628.58C788.135 628.74 787.855 628.81 787.515 628.81C787.185 628.81 786.815 628.69 786.415 628.47L785.535 627.98L784.445 629.96L783.645 629.52L786.325 624.65L788.005 625.58C788.375 625.79 788.655 626.02 788.845 626.3C789.035 626.57 789.135 626.85 789.135 627.14C789.145 627.43 789.075 627.71 788.925 627.98C788.805 628.23 788.615 628.43 788.375 628.58ZM787.575 627.99C787.805 627.93 787.985 627.78 788.125 627.53C788.415 627 788.265 626.57 787.665 626.23L786.785 625.74L785.905 627.33L786.785 627.82C787.085 627.99 787.345 628.04 787.575 627.99Z" fill="#211F1A"/>
<path d="M789.295 628.75C789.625 628.54 789.965 628.43 790.335 628.42C790.705 628.41 791.055 628.49 791.395 628.68C791.695 628.85 791.935 629.05 792.095 629.3C792.255 629.55 792.355 629.79 792.395 630.04L792.705 629.48L793.515 629.92L791.385 633.78L790.575 633.34L790.895 632.77C790.655 632.88 790.395 632.93 790.095 632.92C789.795 632.91 789.495 632.83 789.195 632.66C788.865 632.48 788.605 632.22 788.425 631.9C788.245 631.58 788.155 631.22 788.165 630.82C788.175 630.43 788.285 630.03 788.495 629.65C788.695 629.26 788.975 628.96 789.295 628.75ZM791.855 630.62C791.855 630.36 791.795 630.14 791.675 629.93C791.555 629.73 791.395 629.57 791.185 629.46C790.975 629.35 790.765 629.29 790.525 629.29C790.295 629.29 790.065 629.36 789.855 629.49C789.635 629.62 789.455 629.82 789.315 630.09C789.165 630.36 789.095 630.62 789.095 630.88C789.095 631.14 789.155 631.37 789.275 631.58C789.395 631.78 789.555 631.94 789.755 632.05C789.965 632.16 790.175 632.22 790.415 632.21C790.645 632.21 790.875 632.13 791.095 632C791.315 631.86 791.495 631.66 791.645 631.39C791.785 631.14 791.855 630.87 791.855 630.62Z" fill="#211F1A"/>
<path d="M795.625 631.22C795.875 631.22 796.135 631.29 796.405 631.44L795.945 632.27L795.745 632.16C795.435 631.99 795.155 631.94 794.905 632.01C794.655 632.08 794.425 632.31 794.205 632.7L793.085 634.73L792.285 634.29L794.415 630.43L795.215 630.87L794.905 631.43C795.135 631.29 795.375 631.22 795.625 631.22Z" fill="#211F1A"/>
<path d="M796.455 632.7C796.785 632.49 797.125 632.38 797.495 632.37C797.865 632.36 798.215 632.44 798.555 632.63C798.855 632.8 799.095 633 799.255 633.25C799.415 633.49 799.515 633.74 799.555 633.99L799.865 633.43L800.675 633.87L798.545 637.73L797.735 637.29L798.055 636.72C797.815 636.83 797.555 636.88 797.255 636.87C796.955 636.86 796.655 636.78 796.355 636.61C796.025 636.43 795.765 636.17 795.585 635.85C795.405 635.53 795.315 635.17 795.325 634.77C795.335 634.38 795.445 633.98 795.655 633.6C795.865 633.22 796.125 632.91 796.455 632.7ZM799.015 634.57C799.015 634.31 798.955 634.09 798.835 633.88C798.715 633.68 798.555 633.52 798.345 633.41C798.135 633.3 797.915 633.24 797.685 633.24C797.455 633.24 797.225 633.31 797.015 633.44C796.795 633.57 796.615 633.77 796.475 634.04C796.325 634.31 796.255 634.57 796.255 634.83C796.255 635.09 796.315 635.32 796.435 635.53C796.555 635.73 796.715 635.89 796.915 636C797.125 636.11 797.345 636.17 797.575 636.16C797.805 636.16 798.035 636.08 798.255 635.95C798.475 635.81 798.655 635.61 798.805 635.34C798.955 635.07 799.015 634.82 799.015 634.57Z" fill="#211F1A"/>
<path d="M801.065 635.24C801.395 635.03 801.735 634.92 802.105 634.91C802.475 634.9 802.825 634.99 803.165 635.17C803.415 635.31 803.635 635.5 803.825 635.75C804.005 636 804.125 636.25 804.165 636.51L805.195 634.65L806.005 635.09L803.145 640.27L802.335 639.82L802.655 639.24C802.425 639.35 802.155 639.41 801.855 639.4C801.555 639.39 801.255 639.31 800.955 639.14C800.615 638.95 800.355 638.7 800.175 638.38C799.995 638.06 799.905 637.7 799.915 637.3C799.925 636.91 800.035 636.51 800.245 636.13C800.465 635.75 800.735 635.45 801.065 635.24ZM803.625 637.11C803.625 636.85 803.565 636.62 803.445 636.42C803.325 636.22 803.165 636.06 802.955 635.95C802.745 635.84 802.525 635.78 802.295 635.78C802.065 635.78 801.835 635.85 801.625 635.98C801.415 636.11 801.225 636.31 801.085 636.58C800.945 636.85 800.865 637.11 800.865 637.37C800.865 637.63 800.925 637.86 801.045 638.07C801.165 638.28 801.325 638.43 801.525 638.54C801.735 638.65 801.955 638.71 802.185 638.7C802.415 638.7 802.645 638.62 802.865 638.49C803.085 638.35 803.265 638.15 803.415 637.88C803.555 637.63 803.625 637.36 803.625 637.11Z" fill="#211F1A"/>
<path d="M808.465 641.08L805.515 639.45C805.365 639.77 805.345 640.08 805.445 640.38C805.545 640.68 805.745 640.91 806.045 641.08C806.475 641.32 806.875 641.3 807.255 641.04L808.115 641.52C807.805 641.81 807.435 641.98 807.005 642.04C806.575 642.1 806.135 642 805.675 641.75C805.305 641.55 805.025 641.28 804.825 640.96C804.625 640.63 804.525 640.27 804.525 639.88C804.525 639.49 804.635 639.09 804.855 638.7C805.075 638.3 805.345 638 805.675 637.79C806.005 637.58 806.355 637.47 806.735 637.47C807.115 637.47 807.495 637.57 807.875 637.78C808.235 637.98 808.515 638.24 808.715 638.56C808.915 638.88 809.015 639.22 809.015 639.6C809.015 639.97 808.915 640.35 808.705 640.72C808.635 640.84 808.555 640.97 808.465 641.08ZM808.015 639.99C808.175 639.69 808.195 639.4 808.095 639.11C807.985 638.82 807.785 638.59 807.475 638.42C807.195 638.27 806.915 638.23 806.625 638.29C806.335 638.36 806.085 638.53 805.885 638.81L808.015 639.99Z" fill="#211F1A"/>
<path d="M810.715 644.28C810.515 644.02 810.405 643.75 810.365 643.45C810.335 643.16 810.395 642.87 810.545 642.59L811.405 643.06C811.305 643.28 811.295 643.5 811.365 643.72C811.435 643.94 811.605 644.12 811.875 644.26C812.155 644.41 812.405 644.46 812.625 644.42C812.845 644.38 813.025 644.24 813.135 644.03C813.225 643.87 813.255 643.71 813.215 643.55C813.175 643.39 813.105 643.25 812.995 643.11C812.885 642.98 812.715 642.81 812.505 642.6C812.235 642.34 812.025 642.11 811.875 641.92C811.725 641.72 811.625 641.5 811.585 641.24C811.545 640.98 811.605 640.7 811.775 640.4C811.925 640.12 812.135 639.91 812.395 639.78C812.655 639.65 812.935 639.59 813.245 639.62C813.555 639.65 813.885 639.75 814.215 639.93C814.685 640.19 815.005 640.52 815.175 640.92C815.345 641.32 815.335 641.74 815.145 642.17L814.265 641.68C814.345 641.49 814.345 641.3 814.265 641.09C814.185 640.88 814.015 640.7 813.755 640.56C813.525 640.43 813.305 640.39 813.095 640.43C812.885 640.47 812.725 640.6 812.595 640.81C812.515 640.96 812.495 641.11 812.525 641.25C812.565 641.4 812.635 641.54 812.745 641.67C812.855 641.8 813.015 641.97 813.215 642.17C813.485 642.44 813.705 642.67 813.855 642.87C814.005 643.07 814.105 643.3 814.145 643.57C814.185 643.83 814.125 644.12 813.955 644.43C813.815 644.68 813.625 644.87 813.365 645.02C813.115 645.17 812.825 645.24 812.495 645.23C812.165 645.22 811.825 645.12 811.485 644.93C811.175 644.76 810.905 644.54 810.715 644.28Z" fill="#211F1A"/>
<path d="M918.395 422.81V424.3H915.435V433.93H913.615V424.3H910.635V422.81H918.395Z" fill="#211F1A"/>
<path d="M922.805 425.34C923.245 425.09 923.775 424.96 924.385 424.96V426.85H923.925C923.215 426.85 922.665 427.03 922.305 427.39C921.945 427.75 921.755 428.38 921.755 429.28V433.92H919.935V425.1H921.755V426.38C922.005 425.94 922.355 425.59 922.805 425.34Z" fill="#211F1A"/>
<path d="M933.755 430.2H927.015C927.065 430.9 927.325 431.47 927.795 431.9C928.265 432.33 928.845 432.54 929.525 432.54C930.505 432.54 931.195 432.13 931.605 431.31H933.575C933.305 432.12 932.825 432.78 932.125 433.3C931.425 433.82 930.555 434.08 929.525 434.08C928.685 434.08 927.925 433.89 927.265 433.51C926.595 433.13 926.075 432.6 925.695 431.91C925.315 431.22 925.125 430.42 925.125 429.52C925.125 428.61 925.305 427.82 925.675 427.13C926.045 426.44 926.565 425.91 927.225 425.54C927.895 425.17 928.655 424.98 929.525 424.98C930.355 424.98 931.095 425.16 931.745 425.52C932.395 425.88 932.905 426.39 933.265 427.05C933.625 427.71 933.805 428.46 933.805 429.31C933.815 429.63 933.795 429.93 933.755 430.2ZM931.915 428.73C931.905 428.06 931.665 427.52 931.195 427.11C930.725 426.7 930.145 426.5 929.455 426.5C928.825 426.5 928.285 426.7 927.835 427.1C927.385 427.5 927.125 428.04 927.035 428.72H931.915V428.73Z" fill="#211F1A"/>
<path d="M935.235 427.13C935.605 426.45 936.105 425.92 936.735 425.54C937.365 425.16 938.075 424.97 938.835 424.97C939.525 424.97 940.135 425.11 940.655 425.38C941.175 425.65 941.585 425.99 941.895 426.4V425.12H943.735V433.94H941.895V432.63C941.585 433.05 941.165 433.39 940.635 433.67C940.105 433.95 939.495 434.09 938.815 434.09C938.055 434.09 937.365 433.9 936.735 433.51C936.105 433.12 935.605 432.58 935.235 431.88C934.865 431.18 934.685 430.39 934.685 429.5C934.685 428.59 934.865 427.81 935.235 427.13ZM941.525 427.93C941.275 427.48 940.945 427.14 940.545 426.91C940.135 426.68 939.705 426.56 939.235 426.56C938.765 426.56 938.325 426.67 937.925 426.9C937.515 427.13 937.195 427.47 936.945 427.91C936.695 428.35 936.565 428.88 936.565 429.49C936.565 430.1 936.685 430.63 936.945 431.09C937.195 431.55 937.525 431.9 937.935 432.14C938.345 432.38 938.785 432.5 939.235 432.5C939.705 432.5 940.145 432.38 940.545 432.15C940.955 431.92 941.275 431.57 941.525 431.12C941.775 430.67 941.905 430.14 941.905 429.53C941.905 428.92 941.775 428.38 941.525 427.93Z" fill="#211F1A"/>
<path d="M947.155 433.7C946.605 433.45 946.175 433.11 945.855 432.68C945.535 432.25 945.365 431.77 945.345 431.23H947.235C947.265 431.6 947.445 431.92 947.775 432.17C948.105 432.42 948.505 432.55 948.995 432.55C949.505 432.55 949.905 432.45 950.185 432.25C950.465 432.05 950.605 431.8 950.605 431.49C950.605 431.16 950.445 430.91 950.135 430.75C949.825 430.59 949.325 430.41 948.635 430.22C947.975 430.04 947.435 429.86 947.015 429.69C946.595 429.52 946.235 429.26 945.935 428.91C945.635 428.56 945.475 428.09 945.475 427.52C945.475 427.05 945.615 426.62 945.895 426.23C946.175 425.84 946.565 425.53 947.085 425.31C947.605 425.09 948.195 424.97 948.865 424.97C949.865 424.97 950.675 425.22 951.285 425.73C951.895 426.24 952.225 426.93 952.265 427.8H950.445C950.415 427.41 950.255 427.09 949.965 426.86C949.675 426.63 949.285 426.51 948.795 426.51C948.315 426.51 947.945 426.6 947.695 426.78C947.445 426.96 947.315 427.2 947.315 427.5C947.315 427.73 947.395 427.93 947.575 428.09C947.745 428.25 947.955 428.38 948.195 428.47C948.435 428.56 948.805 428.68 949.285 428.81C949.925 428.98 950.455 429.15 950.865 429.33C951.275 429.51 951.635 429.77 951.925 430.11C952.225 430.45 952.375 430.9 952.385 431.47C952.385 431.97 952.245 432.42 951.965 432.81C951.685 433.21 951.295 433.51 950.785 433.74C950.275 433.96 949.685 434.08 949.005 434.08C948.325 434.07 947.705 433.95 947.155 433.7Z" fill="#211F1A"/>
<path d="M962.025 425.11V433.93H960.205V432.89C959.915 433.25 959.545 433.54 959.075 433.75C958.615 433.96 958.115 434.06 957.595 434.06C956.905 434.06 956.285 433.92 955.735 433.63C955.185 433.34 954.755 432.92 954.435 432.35C954.115 431.78 953.965 431.1 953.965 430.3V425.12H955.775V430.03C955.775 430.82 955.975 431.42 956.365 431.85C956.755 432.28 957.295 432.48 957.985 432.48C958.675 432.48 959.205 432.27 959.605 431.85C960.005 431.43 960.205 430.82 960.205 430.03V425.12H962.025V425.11Z" fill="#211F1A"/>
<path d="M966.995 425.34C967.435 425.09 967.965 424.96 968.575 424.96V426.85H968.115C967.405 426.85 966.855 427.03 966.495 427.39C966.135 427.75 965.945 428.38 965.945 429.28V433.92H964.125V425.1H965.945V426.38C966.195 425.94 966.555 425.59 966.995 425.34Z" fill="#211F1A"/>
<path d="M977.865 425.11L972.455 438.07H970.565L972.355 433.78L968.885 425.11H970.915L973.395 431.83L975.975 425.11H977.865Z" fill="#211F1A"/>
<path d="M919.725 445.21C919.435 444.66 919.035 444.24 918.525 443.95C918.015 443.66 917.425 443.53 916.745 443.53C916.005 443.53 915.355 443.7 914.775 444.03C914.195 444.36 913.745 444.83 913.425 445.44C913.095 446.05 912.935 446.75 912.935 447.55C912.935 448.35 913.095 449.06 913.425 449.67C913.755 450.28 914.205 450.76 914.775 451.09C915.345 451.42 916.005 451.59 916.745 451.59C917.735 451.59 918.545 451.31 919.165 450.76C919.785 450.21 920.165 449.45 920.305 448.5H916.125V447.04H922.255V448.46C922.135 449.32 921.835 450.12 921.335 450.84C920.835 451.57 920.195 452.14 919.395 452.58C918.605 453.01 917.715 453.23 916.745 453.23C915.695 453.23 914.745 452.99 913.885 452.5C913.025 452.01 912.335 451.34 911.825 450.48C911.315 449.62 911.065 448.64 911.065 447.55C911.065 446.46 911.315 445.49 911.825 444.62C912.335 443.76 913.025 443.08 913.885 442.6C914.755 442.11 915.705 441.87 916.745 441.87C917.925 441.87 918.985 442.16 919.905 442.74C920.825 443.32 921.495 444.15 921.915 445.21H919.725Z" fill="#211F1A"/>
<path d="M923.675 446.33C924.045 445.65 924.545 445.12 925.175 444.74C925.805 444.36 926.515 444.17 927.275 444.17C927.965 444.17 928.575 444.31 929.095 444.58C929.615 444.85 930.025 445.19 930.335 445.6V444.32H932.175V453.14H930.335V451.83C930.025 452.25 929.605 452.59 929.075 452.87C928.545 453.15 927.935 453.29 927.255 453.29C926.495 453.29 925.805 453.1 925.175 452.71C924.545 452.32 924.045 451.78 923.675 451.08C923.305 450.38 923.125 449.59 923.125 448.7C923.125 447.79 923.305 447.01 923.675 446.33ZM929.965 447.13C929.715 446.68 929.385 446.34 928.985 446.11C928.575 445.88 928.145 445.76 927.675 445.76C927.205 445.76 926.765 445.87 926.365 446.1C925.955 446.33 925.635 446.67 925.385 447.11C925.135 447.55 925.005 448.08 925.005 448.69C925.005 449.3 925.125 449.83 925.385 450.29C925.635 450.75 925.965 451.1 926.375 451.34C926.785 451.58 927.225 451.7 927.675 451.7C928.145 451.7 928.585 451.58 928.985 451.35C929.395 451.12 929.715 450.77 929.965 450.32C930.215 449.87 930.345 449.34 930.345 448.73C930.345 448.12 930.215 447.58 929.965 447.13Z" fill="#211F1A"/>
<path d="M937.145 444.54C937.585 444.29 938.115 444.16 938.725 444.16V446.05H938.265C937.555 446.05 937.005 446.23 936.645 446.59C936.285 446.95 936.095 447.58 936.095 448.48V453.12H934.275V444.3H936.095V445.58C936.345 445.14 936.705 444.79 937.145 444.54Z" fill="#211F1A"/>
<path d="M940.025 446.33C940.395 445.65 940.895 445.12 941.525 444.74C942.155 444.36 942.865 444.17 943.645 444.17C944.225 444.17 944.785 444.3 945.345 444.55C945.905 444.8 946.355 445.13 946.685 445.55V441.29H948.525V453.13H946.685V451.8C946.385 452.23 945.975 452.58 945.445 452.86C944.915 453.14 944.315 453.28 943.625 453.28C942.855 453.28 942.155 453.09 941.525 452.7C940.895 452.31 940.385 451.77 940.025 451.07C939.655 450.37 939.475 449.58 939.475 448.69C939.475 447.79 939.655 447.01 940.025 446.33ZM946.315 447.13C946.065 446.68 945.735 446.34 945.335 446.11C944.925 445.88 944.495 445.76 944.025 445.76C943.555 445.76 943.115 445.87 942.715 446.1C942.305 446.33 941.985 446.67 941.735 447.11C941.485 447.55 941.355 448.08 941.355 448.69C941.355 449.3 941.475 449.83 941.735 450.29C941.985 450.75 942.315 451.1 942.725 451.34C943.135 451.58 943.575 451.7 944.025 451.7C944.495 451.7 944.935 451.58 945.335 451.35C945.745 451.12 946.065 450.77 946.315 450.32C946.565 449.87 946.695 449.34 946.695 448.73C946.695 448.12 946.565 447.58 946.315 447.13Z" fill="#211F1A"/>
<path d="M958.625 449.4H951.885C951.935 450.1 952.195 450.67 952.665 451.1C953.135 451.53 953.715 451.74 954.395 451.74C955.375 451.74 956.065 451.33 956.475 450.51H958.445C958.175 451.32 957.695 451.98 956.995 452.5C956.295 453.02 955.425 453.28 954.395 453.28C953.555 453.28 952.795 453.09 952.135 452.71C951.465 452.33 950.945 451.8 950.565 451.11C950.185 450.42 949.995 449.62 949.995 448.72C949.995 447.81 950.175 447.02 950.545 446.33C950.915 445.64 951.435 445.11 952.095 444.74C952.765 444.37 953.525 444.18 954.395 444.18C955.225 444.18 955.965 444.36 956.615 444.72C957.265 445.08 957.775 445.59 958.135 446.25C958.495 446.91 958.675 447.66 958.675 448.51C958.685 448.83 958.665 449.13 958.625 449.4ZM956.785 447.93C956.775 447.26 956.535 446.72 956.065 446.31C955.595 445.9 955.015 445.7 954.325 445.7C953.695 445.7 953.155 445.9 952.705 446.3C952.255 446.7 951.995 447.24 951.905 447.92H956.785V447.93Z" fill="#211F1A"/>
<path d="M966.475 444.6C967.025 444.89 967.455 445.31 967.765 445.88C968.075 446.45 968.225 447.13 968.225 447.93V453.13H966.415V448.2C966.415 447.41 966.215 446.81 965.825 446.38C965.435 445.96 964.895 445.75 964.205 445.75C963.515 445.75 962.985 445.96 962.585 446.38C962.185 446.8 961.985 447.41 961.985 448.2V453.13H960.165V444.31H961.985V445.32C962.285 444.96 962.665 444.67 963.125 444.47C963.585 444.27 964.085 444.17 964.605 444.17C965.305 444.17 965.925 444.31 966.475 444.6Z" fill="#211F1A"/>
<path d="M971.565 452.9C971.015 452.65 970.585 452.31 970.265 451.88C969.945 451.45 969.775 450.97 969.755 450.43H971.645C971.675 450.8 971.855 451.12 972.185 451.37C972.515 451.62 972.915 451.75 973.405 451.75C973.915 451.75 974.315 451.65 974.595 451.45C974.875 451.25 975.015 451 975.015 450.69C975.015 450.36 974.855 450.11 974.545 449.95C974.235 449.79 973.735 449.61 973.045 449.42C972.385 449.24 971.845 449.06 971.425 448.89C971.005 448.72 970.645 448.46 970.345 448.11C970.045 447.76 969.885 447.29 969.885 446.72C969.885 446.25 970.025 445.82 970.305 445.43C970.585 445.04 970.975 444.73 971.495 444.51C972.015 444.29 972.605 444.17 973.275 444.17C974.275 444.17 975.085 444.42 975.695 444.93C976.305 445.44 976.635 446.13 976.675 447H974.855C974.825 446.61 974.665 446.29 974.375 446.06C974.085 445.83 973.695 445.71 973.205 445.71C972.725 445.71 972.355 445.8 972.105 445.98C971.855 446.16 971.725 446.4 971.725 446.7C971.725 446.93 971.805 447.13 971.985 447.29C972.155 447.45 972.365 447.58 972.605 447.67C972.845 447.76 973.215 447.88 973.695 448.01C974.335 448.18 974.865 448.35 975.275 448.53C975.685 448.71 976.045 448.97 976.335 449.31C976.635 449.65 976.785 450.1 976.795 450.67C976.795 451.17 976.655 451.62 976.375 452.01C976.095 452.41 975.705 452.71 975.195 452.94C974.685 453.16 974.095 453.28 973.415 453.28C972.735 453.27 972.105 453.15 971.565 452.9Z" fill="#211F1A"/>
<path d="M799.995 182.01C799.705 181.46 799.305 181.04 798.795 180.75C798.285 180.46 797.695 180.33 797.015 180.33C796.275 180.33 795.625 180.5 795.045 180.83C794.465 181.16 794.015 181.63 793.695 182.24C793.365 182.85 793.205 183.55 793.205 184.35C793.205 185.15 793.365 185.86 793.695 186.47C794.025 187.08 794.475 187.56 795.045 187.89C795.615 188.22 796.275 188.39 797.015 188.39C798.005 188.39 798.815 188.11 799.435 187.56C800.055 187.01 800.435 186.25 800.575 185.3H796.395V183.84H802.525V185.26C802.405 186.12 802.105 186.92 801.605 187.64C801.105 188.37 800.465 188.94 799.665 189.38C798.875 189.81 797.985 190.03 797.015 190.03C795.965 190.03 795.015 189.79 794.155 189.3C793.295 188.81 792.605 188.14 792.095 187.28C791.585 186.42 791.335 185.44 791.335 184.35C791.335 183.26 791.585 182.29 792.095 181.42C792.605 180.56 793.295 179.88 794.155 179.4C795.025 178.91 795.975 178.67 797.015 178.67C798.195 178.67 799.255 178.96 800.175 179.54C801.095 180.12 801.765 180.95 802.185 182.01H799.995Z" fill="#211F1A"/>
<path d="M805.565 189.5C804.895 189.12 804.365 188.59 803.985 187.9C803.605 187.21 803.405 186.41 803.405 185.51C803.405 184.61 803.605 183.82 803.995 183.13C804.385 182.44 804.925 181.9 805.615 181.53C806.295 181.16 807.065 180.97 807.905 180.97C808.745 180.97 809.515 181.16 810.195 181.53C810.875 181.9 811.415 182.44 811.815 183.13C812.215 183.82 812.405 184.62 812.405 185.51C812.405 186.4 812.205 187.2 811.795 187.89C811.385 188.58 810.835 189.12 810.135 189.5C809.435 189.88 808.665 190.07 807.825 190.07C806.985 190.07 806.235 189.88 805.565 189.5ZM809.135 188.15C809.545 187.93 809.875 187.59 810.135 187.14C810.395 186.69 810.515 186.15 810.515 185.51C810.515 184.87 810.395 184.33 810.145 183.89C809.895 183.45 809.575 183.11 809.165 182.89C808.755 182.67 808.325 182.55 807.855 182.55C807.385 182.55 806.955 182.66 806.555 182.89C806.155 183.11 805.835 183.45 805.605 183.89C805.365 184.33 805.255 184.87 805.255 185.51C805.255 186.46 805.495 187.19 805.985 187.71C806.475 188.23 807.085 188.49 807.815 188.49C808.285 188.49 808.725 188.38 809.135 188.15Z" fill="#211F1A"/>
<path d="M816.765 181.34C817.205 181.09 817.735 180.96 818.345 180.96V182.85H817.885C817.175 182.85 816.625 183.03 816.265 183.39C815.905 183.75 815.715 184.38 815.715 185.28V189.92H813.895V181.1H815.715V182.38C815.975 181.94 816.325 181.59 816.765 181.34Z" fill="#211F1A"/>
<path d="M819.645 183.13C820.015 182.45 820.515 181.92 821.145 181.54C821.775 181.16 822.485 180.97 823.265 180.97C823.845 180.97 824.405 181.1 824.965 181.35C825.525 181.6 825.975 181.93 826.305 182.35V178.09H828.145V189.93H826.305V188.6C826.005 189.03 825.595 189.38 825.065 189.66C824.535 189.94 823.935 190.08 823.245 190.08C822.475 190.08 821.775 189.89 821.145 189.5C820.515 189.11 820.005 188.57 819.645 187.87C819.275 187.17 819.095 186.38 819.095 185.49C819.095 184.59 819.285 183.81 819.645 183.13ZM825.935 183.93C825.685 183.48 825.355 183.14 824.955 182.91C824.545 182.68 824.115 182.56 823.645 182.56C823.175 182.56 822.735 182.67 822.335 182.9C821.925 183.13 821.605 183.47 821.355 183.91C821.105 184.35 820.975 184.88 820.975 185.49C820.975 186.1 821.095 186.63 821.355 187.09C821.605 187.55 821.935 187.9 822.345 188.14C822.755 188.38 823.195 188.5 823.645 188.5C824.115 188.5 824.555 188.38 824.955 188.15C825.365 187.92 825.685 187.57 825.935 187.12C826.185 186.67 826.315 186.14 826.315 185.53C826.315 184.92 826.185 184.38 825.935 183.93Z" fill="#211F1A"/>
<path d="M831.805 189.5C831.135 189.12 830.605 188.59 830.225 187.9C829.845 187.21 829.645 186.41 829.645 185.51C829.645 184.61 829.845 183.82 830.235 183.13C830.625 182.44 831.165 181.9 831.855 181.53C832.535 181.16 833.305 180.97 834.145 180.97C834.985 180.97 835.755 181.16 836.435 181.53C837.115 181.9 837.655 182.44 838.055 183.13C838.455 183.82 838.645 184.62 838.645 185.51C838.645 186.4 838.445 187.2 838.035 187.89C837.625 188.58 837.075 189.12 836.375 189.5C835.675 189.88 834.905 190.07 834.065 190.07C833.225 190.07 832.475 189.88 831.805 189.5ZM835.375 188.15C835.785 187.93 836.115 187.59 836.375 187.14C836.635 186.69 836.755 186.15 836.755 185.51C836.755 184.87 836.635 184.33 836.385 183.89C836.135 183.45 835.815 183.11 835.405 182.89C834.995 182.67 834.565 182.55 834.095 182.55C833.625 182.55 833.195 182.66 832.795 182.89C832.395 183.11 832.075 183.45 831.845 183.89C831.605 184.33 831.495 184.87 831.495 185.51C831.495 186.46 831.735 187.19 832.225 187.71C832.715 188.23 833.325 188.49 834.055 188.49C834.525 188.49 834.965 188.38 835.375 188.15Z" fill="#211F1A"/>
<path d="M846.435 181.4C846.985 181.69 847.415 182.11 847.725 182.68C848.035 183.25 848.185 183.93 848.185 184.73V189.93H846.375V185C846.375 184.21 846.175 183.61 845.785 183.18C845.395 182.76 844.855 182.55 844.165 182.55C843.475 182.55 842.945 182.76 842.545 183.18C842.145 183.6 841.945 184.21 841.945 185V189.93H840.125V181.11H841.945V182.12C842.245 181.76 842.625 181.47 843.085 181.27C843.545 181.07 844.045 180.97 844.565 180.97C845.265 180.97 845.885 181.11 846.435 181.4Z" fill="#211F1A"/>
<path d="M796.145 209.13L793.585 204.68H792.195V209.13H790.375V198.01H794.215C795.065 198.01 795.795 198.16 796.385 198.46C796.975 198.76 797.415 199.16 797.715 199.66C798.005 200.16 798.155 200.72 798.155 201.34C798.155 202.07 797.945 202.72 797.525 203.32C797.105 203.91 796.455 204.31 795.585 204.53L798.335 209.14H796.145V209.13ZM792.195 203.22H794.215C794.895 203.22 795.415 203.05 795.755 202.71C796.095 202.37 796.275 201.91 796.275 201.33C796.275 200.75 796.105 200.3 795.765 199.98C795.425 199.65 794.905 199.49 794.215 199.49H792.195V203.22Z" fill="#211F1A"/>
<path d="M808.175 205.4H801.435C801.485 206.1 801.745 206.67 802.215 207.1C802.685 207.53 803.265 207.74 803.945 207.74C804.925 207.74 805.615 207.33 806.025 206.51H807.995C807.725 207.32 807.245 207.98 806.545 208.5C805.845 209.02 804.975 209.28 803.945 209.28C803.105 209.28 802.345 209.09 801.685 208.71C801.015 208.33 800.495 207.8 800.115 207.11C799.735 206.42 799.545 205.62 799.545 204.72C799.545 203.81 799.725 203.02 800.095 202.33C800.465 201.64 800.985 201.11 801.645 200.74C802.315 200.37 803.075 200.18 803.945 200.18C804.775 200.18 805.515 200.36 806.165 200.72C806.815 201.08 807.325 201.59 807.685 202.25C808.045 202.91 808.225 203.66 808.225 204.51C808.245 204.83 808.225 205.13 808.175 205.4ZM806.335 203.93C806.325 203.26 806.085 202.72 805.615 202.31C805.145 201.9 804.565 201.7 803.875 201.7C803.245 201.7 802.705 201.9 802.255 202.3C801.805 202.7 801.545 203.24 801.455 203.92H806.335V203.93Z" fill="#211F1A"/>
<path d="M811.045 208.9C810.495 208.65 810.065 208.31 809.745 207.88C809.425 207.45 809.255 206.97 809.235 206.43H811.125C811.155 206.8 811.335 207.12 811.665 207.37C811.995 207.62 812.395 207.75 812.885 207.75C813.395 207.75 813.795 207.65 814.075 207.45C814.355 207.25 814.495 207 814.495 206.69C814.495 206.36 814.335 206.11 814.025 205.95C813.715 205.79 813.215 205.61 812.525 205.42C811.865 205.24 811.325 205.06 810.905 204.89C810.485 204.72 810.125 204.46 809.825 204.11C809.525 203.76 809.365 203.29 809.365 202.72C809.365 202.25 809.505 201.82 809.785 201.43C810.065 201.04 810.455 200.73 810.975 200.51C811.495 200.29 812.085 200.17 812.755 200.17C813.755 200.17 814.565 200.42 815.175 200.93C815.785 201.44 816.115 202.13 816.155 203H814.335C814.305 202.61 814.145 202.29 813.855 202.06C813.565 201.83 813.175 201.71 812.685 201.71C812.205 201.71 811.835 201.8 811.585 201.98C811.335 202.16 811.205 202.4 811.205 202.7C811.205 202.93 811.285 203.13 811.465 203.29C811.635 203.45 811.845 203.58 812.085 203.67C812.325 203.76 812.695 203.88 813.175 204.01C813.815 204.18 814.345 204.35 814.755 204.53C815.165 204.71 815.525 204.97 815.815 205.31C816.115 205.65 816.265 206.1 816.275 206.67C816.275 207.17 816.135 207.62 815.855 208.01C815.575 208.41 815.185 208.71 814.675 208.94C814.165 209.16 813.575 209.28 812.895 209.28C812.215 209.27 811.595 209.15 811.045 208.9Z" fill="#211F1A"/>
<path d="M825.955 205.4H819.215C819.265 206.1 819.525 206.67 819.995 207.1C820.465 207.53 821.045 207.74 821.725 207.74C822.705 207.74 823.395 207.33 823.805 206.51H825.775C825.505 207.32 825.025 207.98 824.325 208.5C823.625 209.02 822.755 209.28 821.725 209.28C820.885 209.28 820.125 209.09 819.465 208.71C818.795 208.33 818.275 207.8 817.895 207.11C817.515 206.42 817.325 205.62 817.325 204.72C817.325 203.81 817.505 203.02 817.875 202.33C818.245 201.64 818.765 201.11 819.425 200.74C820.095 200.37 820.855 200.18 821.725 200.18C822.555 200.18 823.295 200.36 823.945 200.72C824.595 201.08 825.105 201.59 825.465 202.25C825.825 202.91 826.005 203.66 826.005 204.51C826.015 204.83 825.995 205.13 825.955 205.4ZM824.115 203.93C824.105 203.26 823.865 202.72 823.395 202.31C822.925 201.9 822.345 201.7 821.655 201.7C821.025 201.7 820.485 201.9 820.035 202.3C819.585 202.7 819.325 203.24 819.235 203.92H824.115V203.93Z" fill="#211F1A"/>
<path d="M830.375 200.54C830.815 200.29 831.345 200.16 831.955 200.16V202.05H831.495C830.785 202.05 830.235 202.23 829.875 202.59C829.515 202.95 829.325 203.58 829.325 204.48V209.12H827.505V200.3H829.325V201.58C829.575 201.14 829.935 200.79 830.375 200.54Z" fill="#211F1A"/>
<path d="M836.725 207.5L839.225 200.32H841.165L837.805 209.14H835.625L832.285 200.32H834.235L836.725 207.5Z" fill="#211F1A"/>
<path d="M850.225 205.4H843.485C843.535 206.1 843.795 206.67 844.265 207.1C844.735 207.53 845.315 207.74 845.995 207.74C846.975 207.74 847.665 207.33 848.075 206.51H850.045C849.775 207.32 849.295 207.98 848.595 208.5C847.895 209.02 847.025 209.28 845.995 209.28C845.155 209.28 844.395 209.09 843.735 208.71C843.065 208.33 842.545 207.8 842.165 207.11C841.785 206.42 841.595 205.62 841.595 204.72C841.595 203.81 841.775 203.02 842.145 202.33C842.515 201.64 843.035 201.11 843.695 200.74C844.365 200.37 845.125 200.18 845.995 200.18C846.825 200.18 847.565 200.36 848.215 200.72C848.865 201.08 849.375 201.59 849.735 202.25C850.095 202.91 850.275 203.66 850.275 204.51C850.285 204.83 850.265 205.13 850.225 205.4ZM848.385 203.93C848.375 203.26 848.135 202.72 847.665 202.31C847.195 201.9 846.615 201.7 845.925 201.7C845.295 201.7 844.755 201.9 844.305 202.3C843.855 202.7 843.595 203.24 843.505 203.92H848.385V203.93Z" fill="#211F1A"/>
</svg>
