<svg width="1376" height="111" viewBox="0 0 1376 111" fill="none" xmlns="http://www.w3.org/2000/svg">
<path d="M50.8391 110.227C41.6339 110.227 33.1447 108.131 25.3715 103.937C17.7005 99.6414 11.5637 93.3512 6.96116 85.0666C2.35858 76.7819 0.057291 66.8608 0.057291 55.3032C0.057291 43.7456 2.35858 33.8245 6.96116 25.5399C11.5637 17.2552 17.7005 11.0162 25.3715 6.82271C33.1447 2.52697 41.6339 0.379094 50.8391 0.379094C62.499 0.379094 72.1644 3.24292 79.8354 8.97058C87.6086 14.596 92.7737 22.5738 95.3307 32.904L77.3806 37.5066C75.1305 31.5744 71.9087 26.9718 67.7152 23.6988C63.5218 20.4259 57.8964 18.7894 50.8391 18.7894C45.1114 18.7894 39.9463 20.1702 35.3437 22.9317C30.7412 25.591 27.0591 29.6822 24.2976 35.2053C21.6383 40.6261 20.3086 47.3254 20.3086 55.3032C20.3086 63.281 21.6383 70.0315 24.2976 75.5546C27.0591 80.9754 30.7412 85.0666 35.3437 87.8281C39.9463 90.4874 45.1114 91.817 50.8391 91.817C57.8964 91.817 63.5218 90.1806 67.7152 86.9076C71.9087 83.6347 75.1305 79.0321 77.3806 73.0999L95.3307 77.7024C92.7737 88.0327 87.6086 96.0616 79.8354 101.789C72.1644 107.415 62.499 110.227 50.8391 110.227ZM113.746 1.60644H180.176V20.0168H133.69V42.5694H170.971V60.9797H133.69V90.5897H181.711V109H113.746V1.60644ZM201.093 1.60644H221.037V90.5897H266.603V109H201.093V1.60644ZM284.095 1.60644H350.526V20.0168H304.04V42.5694H341.321V60.9797H304.04V90.5897H352.06V109H284.095V1.60644ZM400.004 110.227C393.662 110.227 387.883 108.898 382.667 106.238C377.553 103.579 373.257 99.9483 369.78 95.3457C366.405 90.7431 364.155 85.6803 363.03 80.1572L379.139 70.0315C380.775 76.5774 383.332 81.8448 386.81 85.8337C390.389 89.8226 394.941 91.817 400.464 91.817C404.657 91.817 408.033 90.7942 410.59 88.7486C413.146 86.6008 414.425 83.379 414.425 79.0832C414.425 76.424 413.556 74.0715 411.817 72.0259C410.078 69.9803 407.879 68.1904 405.22 66.6563C402.663 65.1221 398.981 63.1788 394.174 60.8263L389.724 58.6784C383.588 55.6101 378.678 51.7746 374.996 47.172C371.314 42.4671 369.473 36.4838 369.473 29.2219C369.473 23.8011 370.7 18.8917 373.155 14.4937C375.712 10.0956 379.241 6.66928 383.741 4.21457C388.344 1.65759 393.56 0.379094 399.39 0.379094C414.22 0.379094 424.346 6.87385 429.767 19.8633L413.658 30.1425C410.999 22.5738 406.243 18.7894 399.39 18.7894C396.424 18.7894 393.867 19.7611 391.719 21.7044C389.571 23.5454 388.497 25.8467 388.497 28.6082C388.497 31.3698 389.418 33.8245 391.259 35.9724C393.202 38.018 395.503 39.8079 398.163 41.3421C400.924 42.774 404.862 44.6661 409.976 47.0186C414.988 49.371 419.181 51.7746 422.556 54.2293C426.034 56.684 428.846 59.9058 430.994 63.8947C433.244 67.7813 434.37 72.5373 434.37 78.1627C434.37 84.6063 432.886 90.2828 429.92 95.1923C427.057 99.9994 423.016 103.733 417.8 106.392C412.584 108.949 406.652 110.227 400.004 110.227ZM467.08 20.0168H437.163V1.60644H516.941V20.0168H487.025V109H467.08V20.0168ZM529.956 1.60644H549.9V109H529.956V1.60644ZM600.074 1.60644H620.019L656.379 109H634.901L627.076 83.6858H593.017L585.193 109H563.714L600.074 1.60644ZM621.4 65.2755L610.047 27.9946L598.694 65.2755H621.4ZM668.692 1.60644H688.637V90.5897H734.203V109H668.692V1.60644ZM789.75 1.60644H812.149L837.463 68.6507L862.777 1.60644H885.177V109H865.232V42.7228L844.674 99.1812H830.253L809.694 42.7228V109H789.75V1.60644ZM935.38 1.60644H955.324L991.684 109H970.206L962.381 83.6858H928.322L920.498 109H899.019L935.38 1.60644ZM956.705 65.2755L945.352 27.9946L933.999 65.2755H956.705ZM1004 1.60644H1025.02L1064.44 72.4862V1.60644H1084.39V109H1063.37L1023.94 38.1203V109H1004V1.60644ZM1154.29 110.227C1144.98 110.227 1136.49 108.182 1128.82 104.091C1121.15 99.9994 1115.01 93.8626 1110.41 85.6803C1105.91 77.3956 1103.66 67.2699 1103.66 55.3032C1103.66 43.3365 1105.91 33.262 1110.41 25.0796C1115.01 16.795 1121.15 10.607 1128.82 6.51586C1136.49 2.42468 1144.98 0.379094 1154.29 0.379094C1163.59 0.379094 1172.08 2.42468 1179.75 6.51586C1187.42 10.607 1193.51 16.795 1198.01 25.0796C1202.61 33.262 1204.91 43.3365 1204.91 55.3032C1204.91 67.2699 1202.61 77.3956 1198.01 85.6803C1193.51 93.8626 1187.42 99.9994 1179.75 104.091C1172.08 108.182 1163.59 110.227 1154.29 110.227ZM1154.29 91.817C1159.91 91.817 1164.97 90.5385 1169.47 87.9815C1174.08 85.3223 1177.76 81.2822 1180.52 75.8614C1183.28 70.3383 1184.66 63.4856 1184.66 55.3032C1184.66 47.1209 1183.28 40.3193 1180.52 34.8984C1177.76 29.3754 1174.08 25.3353 1169.47 22.7783C1164.97 20.1191 1159.91 18.7894 1154.29 18.7894C1148.66 18.7894 1143.55 20.1191 1138.94 22.7783C1134.44 25.3353 1130.81 29.3754 1128.05 34.8984C1125.29 40.3193 1123.91 47.1209 1123.91 55.3032C1123.91 63.4856 1125.29 70.3383 1128.05 75.8614C1130.81 81.2822 1134.44 85.3223 1138.94 87.9815C1143.55 90.5385 1148.66 91.817 1154.29 91.817ZM1224.24 1.60644H1263.36C1273.79 1.60644 1281.82 4.41913 1287.45 10.0445C1293.17 15.5676 1296.04 22.9317 1296.04 32.1369C1296.04 39.2965 1294.3 45.4332 1290.82 50.5472C1287.34 55.5589 1282.38 59.0364 1275.94 60.9797L1305.7 109H1283.46L1254.62 62.6674H1244.18V109H1224.24V1.60644ZM1263.51 44.257C1267.4 44.257 1270.47 43.2854 1272.72 41.3421C1274.97 39.3987 1276.09 36.3304 1276.09 32.1369C1276.09 27.9434 1274.97 24.875 1272.72 22.9317C1270.47 20.9884 1267.4 20.0168 1263.51 20.0168H1244.18V44.257H1263.51ZM1323.16 47.0186L1333.44 33.0574L1316.72 27.3809L1321.78 12.1924L1338.51 17.7155V0.379094H1354.16V17.7155L1370.88 12.1924L1375.94 27.3809L1359.22 33.0574L1369.5 47.0186L1356.46 56.684L1346.33 42.416L1336.21 56.684L1323.16 47.0186Z" fill="#211F1A"/>
</svg>
