<svg width="1462" height="1033" viewBox="0 0 1462 1033" fill="none" xmlns="http://www.w3.org/2000/svg">
<g filter="url(#filter0_d_375_184)">
<path d="M5 564.5H792L1450 914.5" stroke="#211F1A" stroke-width="2" stroke-miterlimit="10"/>
<path d="M806.5 1C806.5 1 786.5 19 786.5 117C786.5 215 786.5 550.17 786.5 550.17L792 564.5" stroke="#211F1A" stroke-width="2" stroke-miterlimit="10"/>
<path d="M566.67 1V564.5C566.67 564.5 551 653.5 640 775.5C729 897.5 734.06 898.5 749.53 1007.5" stroke="#211F1A" stroke-width="2" stroke-miterlimit="10"/>
<path d="M577.6 592.41C577.35 592.63 577.06 592.75 576.73 592.76C576.45 592.77 576.19 592.71 575.96 592.58C575.73 592.44 575.54 592.24 575.4 591.97C575.26 591.7 575.18 591.38 575.16 591.01L575.06 588.79L580.61 588.54L580.71 590.66C580.73 591.04 580.68 591.37 580.56 591.64C580.44 591.92 580.28 592.13 580.07 592.28C579.86 592.43 579.62 592.51 579.36 592.52C579.04 592.53 578.77 592.46 578.55 592.3C578.33 592.14 578.16 591.92 578.05 591.63C578 591.93 577.86 592.19 577.6 592.41ZM576.15 591.61C576.31 591.78 576.52 591.86 576.79 591.85C577.06 591.84 577.27 591.73 577.42 591.54C577.57 591.35 577.64 591.09 577.63 590.79L577.57 589.59L575.84 589.67L575.9 590.9C575.91 591.2 575.99 591.44 576.15 591.61ZM578.31 589.55L578.36 590.68C578.37 590.98 578.45 591.21 578.6 591.37C578.74 591.53 578.94 591.61 579.2 591.59C579.45 591.58 579.64 591.49 579.78 591.31C579.91 591.14 579.97 590.9 579.96 590.6L579.91 589.47L578.31 589.55Z" fill="#211F1A"/>
<path d="M578.67 593.36C579.02 593.52 579.31 593.75 579.52 594.05C579.73 594.35 579.85 594.7 579.88 595.08C579.9 595.43 579.86 595.73 579.74 596C579.62 596.27 579.47 596.49 579.28 596.65L579.92 596.61L579.98 597.53L575.58 597.84L575.52 596.92L576.17 596.87C575.95 596.73 575.76 596.53 575.61 596.28C575.45 596.02 575.36 595.72 575.34 595.38C575.31 595 575.39 594.65 575.56 594.32C575.73 593.99 575.99 593.72 576.32 593.52C576.66 593.31 577.04 593.19 577.49 593.16C577.92 593.13 578.32 593.2 578.67 593.36ZM578.49 596.52C578.7 596.38 578.86 596.2 578.97 595.99C579.07 595.78 579.12 595.56 579.1 595.32C579.08 595.09 579.01 594.87 578.88 594.68C578.75 594.49 578.57 594.33 578.34 594.22C578.11 594.11 577.84 594.07 577.54 594.09C577.24 594.11 576.98 594.19 576.76 594.33C576.54 594.47 576.38 594.65 576.27 594.86C576.16 595.07 576.12 595.29 576.14 595.52C576.16 595.75 576.23 595.97 576.36 596.16C576.49 596.35 576.67 596.51 576.91 596.62C577.15 596.73 577.41 596.77 577.72 596.75C578.03 596.73 578.28 596.66 578.49 596.52Z" fill="#211F1A"/>
<path d="M579.42 599.6L576.99 599.82C576.83 599.83 576.71 599.88 576.65 599.97C576.59 600.05 576.56 600.19 576.58 600.37L576.63 600.93L575.87 601L575.81 600.28C575.77 599.87 575.84 599.55 576.01 599.31C576.18 599.08 576.48 598.94 576.91 598.9L579.34 598.69L579.29 598.17L580.03 598.1L580.08 598.62L581.17 598.52L581.25 599.44L580.16 599.54L580.25 600.61L579.51 600.68L579.42 599.6Z" fill="#211F1A"/>
<path d="M580.84 607.39C580.73 607.68 580.54 607.92 580.28 608.1C580.02 608.29 579.69 608.4 579.29 608.45L576.71 608.74L576.61 607.84L579.06 607.56C579.45 607.52 579.74 607.38 579.93 607.16C580.12 606.94 580.19 606.66 580.15 606.32C580.11 605.98 579.98 605.72 579.75 605.55C579.52 605.37 579.21 605.31 578.81 605.35L576.36 605.63L576.26 604.73L578.71 604.45C579.1 604.41 579.39 604.27 579.58 604.05C579.77 603.83 579.84 603.55 579.8 603.21C579.76 602.87 579.63 602.61 579.4 602.44C579.17 602.27 578.86 602.2 578.46 602.24L576.01 602.52L575.91 601.61L580.29 601.12L580.39 602.03L579.89 602.09C580.09 602.22 580.25 602.39 580.37 602.61C580.49 602.83 580.57 603.07 580.6 603.32C580.64 603.67 580.6 603.99 580.48 604.28C580.36 604.57 580.17 604.81 579.91 604.99C580.19 605.09 580.42 605.28 580.61 605.54C580.8 605.8 580.91 606.1 580.95 606.42C580.99 606.78 580.95 607.1 580.84 607.39Z" fill="#211F1A"/>
<path d="M580.2 609.19C580.56 609.32 580.86 609.54 581.09 609.82C581.32 610.11 581.46 610.44 581.52 610.82C581.57 611.16 581.54 611.47 581.44 611.75C581.34 612.03 581.2 612.25 581.02 612.43L581.65 612.34L581.78 613.25L577.41 613.86L577.28 612.95L577.93 612.86C577.7 612.74 577.5 612.55 577.33 612.31C577.16 612.06 577.04 611.77 577 611.43C576.95 611.05 577 610.7 577.14 610.36C577.28 610.02 577.52 609.74 577.84 609.51C578.16 609.28 578.54 609.13 578.98 609.07C579.44 609.02 579.84 609.06 580.2 609.19ZM580.24 612.36C580.44 612.2 580.59 612.02 580.68 611.8C580.77 611.58 580.8 611.36 580.76 611.13C580.72 610.9 580.64 610.69 580.5 610.5C580.36 610.32 580.17 610.18 579.93 610.08C579.69 609.99 579.42 609.96 579.12 610C578.82 610.04 578.56 610.14 578.35 610.3C578.14 610.46 577.99 610.64 577.9 610.86C577.81 611.08 577.78 611.3 577.81 611.53C577.84 611.76 577.93 611.97 578.08 612.15C578.23 612.33 578.42 612.47 578.66 612.57C578.9 612.66 579.17 612.69 579.47 612.65C579.79 612.62 580.04 612.52 580.24 612.36Z" fill="#211F1A"/>
<path d="M582.29 617.33C582.19 617.62 582.02 617.87 581.76 618.07C581.51 618.27 581.18 618.4 580.79 618.46L578.22 618.87L578.08 617.98L580.51 617.59C580.9 617.53 581.18 617.38 581.36 617.15C581.54 616.92 581.6 616.64 581.54 616.3C581.49 615.96 581.34 615.71 581.1 615.55C580.86 615.39 580.55 615.34 580.16 615.4L577.73 615.79L577.58 614.89L581.93 614.19L582.08 615.09L581.58 615.17C581.78 615.29 581.95 615.45 582.09 615.67C582.23 615.88 582.32 616.12 582.36 616.38C582.41 616.72 582.39 617.04 582.29 617.33Z" fill="#211F1A"/>
<path d="M580.45 624.78L580.02 622.49L578.83 622.31L578.65 621.37L584.49 622.29L584.69 623.33L579.59 626.32L579.41 625.38L580.45 624.78ZM581.14 624.39L583.51 623.02L580.8 622.6L581.14 624.39Z" fill="#211F1A"/>
<path d="M580.88 628.51L584.65 629L584.85 629.95L580.19 629.2L579.97 628.13L583.95 625.6L584.15 626.56L580.88 628.51Z" fill="#211F1A"/>
<path d="M583.33 634.83L582.59 631.54C582.25 631.64 582.01 631.83 581.85 632.11C581.69 632.39 581.65 632.69 581.73 633.02C581.84 633.5 582.11 633.79 582.56 633.9L582.78 634.86C582.36 634.82 581.98 634.66 581.65 634.37C581.32 634.09 581.1 633.69 580.99 633.19C580.9 632.78 580.91 632.39 581.02 632.02C581.13 631.65 581.33 631.34 581.63 631.08C581.92 630.82 582.29 630.64 582.73 630.54C583.17 630.44 583.58 630.44 583.96 630.55C584.34 630.65 584.65 630.85 584.91 631.13C585.17 631.42 585.34 631.77 585.43 632.19C585.52 632.6 585.51 632.98 585.41 633.33C585.3 633.69 585.11 633.99 584.83 634.24C584.55 634.49 584.2 634.66 583.79 634.75C583.61 634.79 583.46 634.82 583.33 634.83ZM583.84 633.77C584.17 633.69 584.4 633.52 584.55 633.24C584.7 632.96 584.73 632.66 584.66 632.32C584.59 632.01 584.43 631.77 584.19 631.6C583.95 631.43 583.65 631.35 583.31 631.39L583.84 633.77Z" fill="#211F1A"/>
<path d="M585.34 640.88C585.14 641.15 584.87 641.32 584.55 641.4C584.28 641.47 584.01 641.46 583.76 641.37C583.51 641.28 583.28 641.12 583.09 640.88C582.9 640.64 582.75 640.34 582.67 639.99L582.13 637.83L587.53 636.49L588.04 638.55C588.13 638.92 588.15 639.25 588.09 639.54C588.03 639.83 587.91 640.08 587.74 640.26C587.57 640.44 587.35 640.57 587.09 640.64C586.78 640.72 586.5 640.7 586.25 640.58C586 640.47 585.79 640.28 585.63 640.03C585.64 640.33 585.55 640.62 585.34 640.88ZM583.76 640.39C583.95 640.52 584.17 640.56 584.43 640.5C584.69 640.43 584.88 640.29 584.99 640.07C585.1 639.85 585.12 639.59 585.04 639.29L584.75 638.12L583.07 638.54L583.37 639.74C583.44 640.03 583.57 640.25 583.76 640.39ZM585.48 637.94L585.75 639.03C585.82 639.32 585.94 639.53 586.12 639.66C586.29 639.79 586.5 639.83 586.75 639.76C586.99 639.7 587.16 639.57 587.26 639.37C587.36 639.17 587.37 638.93 587.3 638.64L587.03 637.55L585.48 637.94Z" fill="#211F1A"/>
<path d="M587.83 642.85C588.01 643.03 588.13 643.27 588.21 643.56L587.3 643.8L587.24 643.58C587.15 643.23 586.99 643 586.77 642.86C586.55 642.73 586.22 642.72 585.79 642.83L583.55 643.42L583.32 642.54L587.58 641.42L587.81 642.3L587.19 642.46C587.44 642.54 587.65 642.67 587.83 642.85Z" fill="#211F1A"/>
<path d="M588.55 645.09L584.3 646.24L584.06 645.36L588.31 644.21L588.55 645.09ZM589.05 644.06C589.13 643.92 589.25 643.83 589.41 643.79C589.57 643.75 589.72 643.76 589.86 643.84C590 643.92 590.09 644.04 590.13 644.2C590.17 644.35 590.15 644.5 590.07 644.64C589.99 644.78 589.87 644.87 589.71 644.91C589.55 644.95 589.4 644.94 589.26 644.86C589.12 644.78 589.03 644.66 588.99 644.51C588.96 644.35 588.97 644.2 589.05 644.06Z" fill="#211F1A"/>
<path d="M587.83 646.29C588.21 646.37 588.53 646.54 588.8 646.8C589.07 647.05 589.26 647.37 589.36 647.74C589.44 648.02 589.46 648.31 589.41 648.61C589.37 648.91 589.27 649.17 589.11 649.39L591.16 648.81L591.41 649.69L585.72 651.31L585.47 650.43L586.11 650.25C585.86 650.17 585.64 650.01 585.43 649.8C585.22 649.59 585.08 649.31 584.98 648.98C584.88 648.61 584.87 648.25 584.97 647.89C585.07 647.53 585.26 647.22 585.55 646.94C585.84 646.66 586.19 646.47 586.62 646.35C587.05 646.22 587.45 646.2 587.83 646.29ZM588.3 649.42C588.48 649.24 588.6 649.03 588.66 648.81C588.72 648.58 588.71 648.36 588.65 648.13C588.59 647.9 588.47 647.71 588.31 647.55C588.14 647.39 587.94 647.27 587.69 647.21C587.44 647.15 587.17 647.16 586.88 647.25C586.59 647.34 586.35 647.47 586.16 647.65C585.97 647.83 585.85 648.04 585.79 648.27C585.73 648.5 585.73 648.73 585.79 648.95C585.85 649.18 585.97 649.37 586.14 649.53C586.31 649.69 586.52 649.8 586.77 649.86C587.02 649.92 587.29 649.91 587.59 649.82C587.89 649.73 588.12 649.6 588.3 649.42Z" fill="#211F1A"/>
<path d="M590.87 653.6C590.82 653.89 590.71 654.14 590.56 654.34L591.17 654.16L591.44 655.04L587.15 656.33C586.76 656.45 586.39 656.47 586.04 656.4C585.69 656.33 585.38 656.16 585.11 655.91C584.84 655.65 584.64 655.31 584.52 654.88C584.35 654.31 584.34 653.79 584.49 653.34C584.64 652.88 584.94 652.56 585.39 652.37L585.65 653.24C585.45 653.37 585.32 653.57 585.25 653.83C585.18 654.09 585.19 654.37 585.28 654.67C585.39 655.02 585.58 655.27 585.86 655.43C586.14 655.58 586.48 655.6 586.89 655.47L587.59 655.26C587.35 655.17 587.12 655.02 586.91 654.81C586.7 654.6 586.54 654.33 586.45 654.01C586.34 653.64 586.33 653.28 586.43 652.92C586.52 652.56 586.71 652.24 586.99 651.96C587.27 651.68 587.62 651.48 588.05 651.35C588.48 651.22 588.88 651.2 589.26 651.27C589.64 651.35 589.97 651.51 590.24 651.76C590.51 652.01 590.71 652.32 590.82 652.68C590.9 653 590.92 653.31 590.87 653.6ZM589.77 654.38C589.95 654.19 590.06 653.99 590.12 653.76C590.17 653.53 590.17 653.3 590.1 653.08C590.03 652.86 589.91 652.66 589.75 652.5C589.58 652.34 589.37 652.23 589.13 652.17C588.88 652.11 588.61 652.13 588.32 652.22C588.03 652.31 587.79 652.45 587.61 652.63C587.43 652.82 587.31 653.03 587.25 653.26C587.19 653.49 587.2 653.72 587.27 653.94C587.34 654.16 587.46 654.36 587.63 654.52C587.8 654.68 588.01 654.79 588.27 654.84C588.52 654.89 588.79 654.88 589.09 654.79C589.39 654.7 589.6 654.57 589.77 654.38Z" fill="#211F1A"/>
<path d="M590.52 660.54L589.5 657.33C589.17 657.46 588.94 657.67 588.81 657.96C588.68 658.25 588.66 658.55 588.77 658.88C588.92 659.35 589.22 659.62 589.67 659.68L589.97 660.62C589.54 660.62 589.15 660.49 588.8 660.23C588.45 659.98 588.19 659.6 588.04 659.11C587.91 658.71 587.89 658.32 587.97 657.95C588.05 657.57 588.22 657.24 588.49 656.96C588.76 656.67 589.11 656.46 589.54 656.33C589.97 656.19 590.38 656.16 590.76 656.23C591.14 656.3 591.47 656.47 591.75 656.73C592.03 656.99 592.23 657.33 592.37 657.74C592.5 658.14 592.52 658.52 592.45 658.88C592.38 659.24 592.21 659.56 591.95 659.84C591.69 660.12 591.36 660.31 590.95 660.44C590.8 660.49 590.66 660.52 590.52 660.54ZM590.95 659.44C591.27 659.33 591.49 659.14 591.61 658.85C591.73 658.56 591.74 658.26 591.63 657.93C591.53 657.63 591.36 657.4 591.1 657.25C590.84 657.1 590.54 657.05 590.2 657.12L590.95 659.44Z" fill="#211F1A"/>
<path d="M339.67 1V564.5V686.5" stroke="#211F1A" stroke-width="2" stroke-miterlimit="10"/>
<path d="M115.67 1V564.5" stroke="#211F1A" stroke-width="2" stroke-miterlimit="10"/>
<path d="M5 448.83C7.5 449 786.5 448.83 786.5 448.83" stroke="#211F1A" stroke-width="2" stroke-miterlimit="10"/>
<path d="M786.5 340.17H5" stroke="#211F1A" stroke-width="2" stroke-miterlimit="10"/>
<path d="M786 227C786 227.16 6.5 227 6.5 227" stroke="#211F1A" stroke-width="2" stroke-miterlimit="10"/>
<path d="M786.5 117H6.5" stroke="#211F1A" stroke-width="2" stroke-miterlimit="10"/>
<path d="M470.89 14.5V119" stroke="#211F1A" stroke-width="2" stroke-miterlimit="10"/>
<path d="M412.67 14.5V117" stroke="#211F1A" stroke-width="2" stroke-miterlimit="10"/>
<path d="M719.67 340.17V406.5L725.83 412.67V448.83" stroke="#211F1A" stroke-width="2" stroke-miterlimit="10"/>
<path d="M713.67 227.22V340.17" stroke="#211F1A" stroke-width="2" stroke-miterlimit="10"/>
<path d="M1041.5 46L1000.5 119L786.5 320.61" stroke="#211F1A" stroke-width="2" stroke-miterlimit="10"/>
<path d="M885.86 227C885.5 227 885.86 299 885.86 299L895.68 308.82H924.5L932.5 296V250.39L944.22 227.22" stroke="#211F1A" stroke-width="2" stroke-miterlimit="10"/>
<path d="M904.67 308.82V379" stroke="#211F1A" stroke-width="2" stroke-miterlimit="10"/>
<path d="M1054.54 285.77L1027.19 311.72V379" stroke="#211F1A" stroke-width="2" stroke-miterlimit="10"/>
<path d="M1031.83 307.31H1067.78L1076.29 297.5" stroke="#211F1A" stroke-width="2" stroke-miterlimit="10"/>
<path d="M1000.5 119C1002.5 121 1192.5 224 1192.5 224" stroke="#211F1A" stroke-width="2" stroke-miterlimit="10"/>
<path d="M962.5 655L1244.5 129" stroke="#211F1A" stroke-width="2" stroke-miterlimit="10"/>
<path d="M1020.6 546.62L935.48 509.99" stroke="#211F1A" stroke-width="2" stroke-miterlimit="10"/>
<path d="M786.5 453.5H804.22L896.92 493.39" stroke="#211F1A" stroke-width="2" stroke-miterlimit="10"/>
<path d="M870.5 379V386L875.5 401L907.78 481.89" stroke="#211F1A" stroke-width="2" stroke-miterlimit="10"/>
<path d="M970.73 639.64L923.33 520.86" stroke="#211F1A" stroke-width="2" stroke-miterlimit="10"/>
<path d="M896.57 507.63L788 554.08" stroke="#211F1A" stroke-width="2" stroke-miterlimit="10"/>
<path d="M936.84 506.25L949.33 501.42C950.5 502 1070.5 431 1070.5 431L1080.15 435.56L1456.67 639.64" stroke="#211F1A" stroke-width="2" stroke-miterlimit="10"/>
<path d="M804.22 453.5L834.5 433L854.99 400.75" stroke="#211F1A" stroke-width="2" stroke-miterlimit="10"/>
<path d="M1082 379L1066.5 397L1070.5 431L1005.5 399L833.5 401L800.67 379" stroke="#211F1A" stroke-width="2" stroke-miterlimit="10"/>
<path d="M1040.86 448.91L1066.37 461.25" stroke="#211F1A" stroke-width="2" stroke-miterlimit="10"/>
<path d="M1110.47 379H786" stroke="#211F1A" stroke-width="2" stroke-miterlimit="10"/>
<path d="M937.5 501C937.5 502.81 937.27 504.57 936.84 506.25V506.26C936.5 507.55 936.05 508.8 935.48 509.99C933.08 515.06 928.7 519.02 923.33 520.86C921.19 521.6 918.89 522 916.5 522C907.22 522 899.34 515.98 896.57 507.63C895.88 505.55 895.5 503.32 895.5 501C895.5 498.32 896 495.75 896.92 493.39C898.91 488.29 902.83 484.15 907.78 481.89C910.44 480.68 913.39 480 916.5 480C928.1 480 937.5 489.4 937.5 501Z" stroke="#211F1A" stroke-width="2" stroke-miterlimit="10"/>
<path d="M1054.06 148.69L1024.67 207.2L979.78 183.31" stroke="#211F1A" stroke-width="2" stroke-miterlimit="10"/>
<path d="M1010.25 124.6L953.23 231.39" stroke="#211F1A" stroke-width="2" stroke-miterlimit="10"/>
<path d="M659.33 448.91V504H674.89V547.45" stroke="#211F1A" stroke-width="2" stroke-miterlimit="10"/>
<path d="M603 227.22V282.75H607.67V308.82" stroke="#211F1A" stroke-width="2" stroke-miterlimit="10"/>
<path d="M735 116.5V227" stroke="#211F1A" stroke-width="2" stroke-miterlimit="10"/>
<path d="M618 117V145L610.75 152.25V227" stroke="#211F1A" stroke-width="2" stroke-miterlimit="10"/>
<path d="M648.67 564.5C648.67 564.5 677.5 571 698.5 589L1293.5 919" stroke="#211F1A" stroke-width="2" stroke-miterlimit="10"/>
<path d="M1107.1 732.1L1076.29 798.53" stroke="#211F1A" stroke-width="2" stroke-miterlimit="10"/>
<path d="M1437.5 261C1437.5 263 1176.31 768.92 1176.31 768.92" stroke="#211F1A" stroke-width="2" stroke-miterlimit="10"/>
<path d="M973.77 661.19L1262.5 557L1280.67 522L1197.14 217.35" stroke="#211F1A" stroke-width="2" stroke-miterlimit="10"/>
<path d="M786.5 217.35H885.7" stroke="#211F1A" stroke-width="2" stroke-miterlimit="10"/>
<path d="M939.58 176.4C939.5 176 887.5 146 887.5 146H850.44" stroke="#211F1A" stroke-width="2" stroke-miterlimit="10"/>
<path d="M870.5 146C870.5 146 881.72 153.79 881.11 176.4C880.5 199 906.87 207.21 906.87 207.21C907.47 206.05 1137 330.5 1137 330.5" stroke="#211F1A" stroke-width="2" stroke-miterlimit="10"/>
<path d="M794.02 31.7299C794.02 31.7299 822.5 48.9999 844.5 25.9999C866.5 2.99994 920.62 8.60993 920.62 8.60993" stroke="#211F1A" stroke-width="2" stroke-miterlimit="10"/>
<path d="M817 279C833.845 279 847.5 265.345 847.5 248.5C847.5 231.655 833.845 218 817 218C800.155 218 786.5 231.655 786.5 248.5C786.5 265.345 800.155 279 817 279Z" stroke="#211F1A" stroke-width="2" stroke-miterlimit="10"/>
<path d="M512.22 448.83C512.44 449.05 512.22 522 512.22 522H558.5" stroke="#211F1A" stroke-width="2" stroke-miterlimit="10"/>
<path d="M500.22 448.91V498.18H467.78V515.72" stroke="#211F1A" stroke-width="2" stroke-miterlimit="10"/>
<path d="M529.56 448.83V402.83H464.22" stroke="#211F1A" stroke-width="2" stroke-miterlimit="10"/>
<path d="M425.56 340.17V448.5" stroke="#211F1A" stroke-width="2" stroke-miterlimit="10"/>
<path d="M447.78 227C447.78 230.1 447.78 340.5 447.78 340.5" stroke="#211F1A" stroke-width="2" stroke-miterlimit="10"/>
<path d="M484 227.22V277H500.22V308.82" stroke="#211F1A" stroke-width="2" stroke-miterlimit="10"/>
<path d="M695 117V227" stroke="#211F1A" stroke-width="2" stroke-miterlimit="10"/>
<path d="M340 712.5C347.18 712.5 353 706.68 353 699.5C353 692.32 347.18 686.5 340 686.5C332.82 686.5 327 692.32 327 699.5C327 706.68 332.82 712.5 340 712.5Z" stroke="#211F1A" stroke-width="2" stroke-miterlimit="10"/>
<path d="M353 699.5C353 699.5 634 629.5 788 891.5L863 1024.5" stroke="#211F1A" stroke-width="2" stroke-miterlimit="10"/>
<path d="M775.53 238.07C775.66 237.77 775.85 237.54 776.09 237.37C776.33 237.2 776.61 237.11 776.93 237.11V238.09C776.69 238.11 776.49 238.21 776.34 238.37C776.19 238.53 776.11 238.77 776.11 239.08C776.11 239.4 776.19 239.64 776.34 239.82C776.49 240 776.69 240.08 776.93 240.08C777.12 240.08 777.27 240.03 777.39 239.92C777.51 239.81 777.6 239.67 777.66 239.51C777.72 239.35 777.79 239.12 777.87 238.83C777.97 238.47 778.06 238.17 778.16 237.95C778.26 237.72 778.41 237.53 778.62 237.37C778.83 237.21 779.1 237.13 779.45 237.13C779.77 237.13 780.05 237.21 780.29 237.37C780.53 237.53 780.71 237.75 780.84 238.04C780.97 238.33 781.03 238.66 781.03 239.04C781.03 239.58 780.9 240.02 780.63 240.36C780.36 240.7 779.99 240.9 779.52 240.93V239.92C779.72 239.9 779.9 239.81 780.04 239.63C780.18 239.45 780.26 239.22 780.26 238.93C780.26 238.67 780.19 238.46 780.06 238.29C779.93 238.12 779.73 238.04 779.48 238.04C779.31 238.04 779.17 238.09 779.06 238.2C778.95 238.3 778.86 238.44 778.8 238.6C778.74 238.76 778.67 238.98 778.59 239.26C778.49 239.63 778.39 239.93 778.29 240.16C778.19 240.39 778.03 240.59 777.82 240.75C777.61 240.91 777.33 240.99 776.98 240.99C776.7 240.99 776.43 240.91 776.18 240.76C775.93 240.61 775.73 240.39 775.58 240.1C775.43 239.81 775.35 239.47 775.35 239.07C775.33 238.7 775.4 238.37 775.53 238.07Z" fill="#211F1A"/>
<path d="M779.66 243.46C779.8 243.73 779.87 244.03 779.87 244.36C779.87 244.74 779.78 245.09 779.59 245.41C779.4 245.73 779.14 245.98 778.79 246.16C778.45 246.34 778.06 246.43 777.61 246.43C777.17 246.43 776.77 246.34 776.42 246.16C776.07 245.98 775.8 245.73 775.6 245.41C775.4 245.09 775.31 244.74 775.31 244.36C775.31 244.02 775.38 243.73 775.51 243.46C775.65 243.2 775.81 242.99 776.02 242.82H773.28V241.91H779.78V242.82H779.13C779.35 242.98 779.52 243.19 779.66 243.46ZM778.4 245.32C778.62 245.2 778.79 245.03 778.9 244.82C779.01 244.61 779.07 244.4 779.07 244.16C779.07 243.93 779.01 243.71 778.89 243.51C778.77 243.3 778.6 243.14 778.38 243.01C778.16 242.88 777.89 242.82 777.59 242.82C777.29 242.82 777.02 242.88 776.79 243.01C776.56 243.13 776.39 243.3 776.27 243.51C776.15 243.72 776.09 243.93 776.09 244.16C776.09 244.4 776.15 244.62 776.27 244.82C776.39 245.02 776.56 245.19 776.79 245.32C777.02 245.44 777.29 245.51 777.59 245.51C777.92 245.51 778.18 245.44 778.4 245.32Z" fill="#211F1A"/>
<path d="M779.68 248.62C779.8 248.84 779.87 249.1 779.87 249.41H778.93V249.18C778.93 248.82 778.84 248.55 778.66 248.37C778.48 248.19 778.16 248.09 777.72 248.09H775.4V247.18H779.81V248.09H779.17C779.38 248.22 779.56 248.4 779.68 248.62Z" fill="#211F1A"/>
<path d="M779.8 251H775.39V250.09H779.8V251ZM780.55 250.14C780.66 250.03 780.8 249.97 780.97 249.97C781.14 249.97 781.27 250.03 781.39 250.14C781.5 250.25 781.56 250.39 781.56 250.56C781.56 250.72 781.5 250.86 781.39 250.97C781.28 251.08 781.14 251.14 780.97 251.14C780.8 251.14 780.67 251.08 780.55 250.97C780.44 250.86 780.38 250.72 780.38 250.56C780.38 250.39 780.44 250.25 780.55 250.14Z" fill="#211F1A"/>
<path d="M779.66 255.2C779.52 255.47 779.3 255.69 779.02 255.84C778.74 255.99 778.4 256.07 778 256.07H775.4V255.17H777.86C778.25 255.17 778.56 255.07 778.77 254.87C778.98 254.67 779.09 254.4 779.09 254.06C779.09 253.72 778.98 253.45 778.77 253.25C778.56 253.05 778.26 252.95 777.86 252.95H775.4V252.04H779.81V252.95H779.31C779.49 253.1 779.63 253.29 779.73 253.52C779.83 253.75 779.88 254 779.88 254.26C779.87 254.61 779.8 254.92 779.66 255.2Z" fill="#211F1A"/>
<path d="M779.67 259.76C779.53 260.02 779.36 260.23 779.16 260.38H779.8V261.3H775.32C774.91 261.3 774.55 261.21 774.24 261.04C773.92 260.87 773.67 260.62 773.49 260.3C773.31 259.98 773.22 259.59 773.22 259.14C773.22 258.54 773.36 258.05 773.64 257.65C773.92 257.26 774.3 257.03 774.78 256.98V257.88C774.55 257.95 774.36 258.1 774.22 258.32C774.08 258.55 774.01 258.82 774.01 259.13C774.01 259.5 774.12 259.8 774.35 260.02C774.57 260.25 774.9 260.36 775.33 260.36H776.07C775.86 260.2 775.69 260 775.55 259.73C775.41 259.47 775.34 259.17 775.34 258.83C775.34 258.45 775.44 258.1 775.63 257.78C775.82 257.46 776.1 257.21 776.45 257.03C776.8 256.85 777.19 256.75 777.64 256.75C778.08 256.75 778.47 256.84 778.82 257.03C779.16 257.21 779.43 257.46 779.62 257.78C779.81 258.1 779.9 258.45 779.9 258.83C779.87 259.19 779.8 259.49 779.67 259.76ZM778.39 260.19C778.61 260.07 778.78 259.9 778.9 259.7C779.02 259.5 779.08 259.28 779.08 259.04C779.08 258.8 779.02 258.59 778.91 258.38C778.8 258.18 778.63 258.01 778.41 257.89C778.19 257.77 777.93 257.7 777.62 257.7C777.32 257.7 777.05 257.76 776.82 257.89C776.59 258.01 776.42 258.18 776.3 258.39C776.18 258.6 776.12 258.81 776.12 259.04C776.12 259.27 776.18 259.49 776.3 259.7C776.42 259.9 776.59 260.07 776.82 260.19C777.05 260.31 777.31 260.38 777.62 260.38C777.9 260.38 778.17 260.32 778.39 260.19Z" fill="#211F1A"/>
<path d="M775.53 265.08C775.66 264.78 775.85 264.55 776.09 264.38C776.33 264.21 776.61 264.12 776.93 264.12V265.1C776.69 265.12 776.49 265.22 776.34 265.38C776.19 265.54 776.11 265.78 776.11 266.09C776.11 266.41 776.19 266.65 776.34 266.83C776.49 267.01 776.69 267.09 776.93 267.09C777.12 267.09 777.27 267.04 777.39 266.93C777.51 266.82 777.6 266.68 777.66 266.52C777.72 266.36 777.79 266.13 777.87 265.84C777.97 265.48 778.06 265.18 778.16 264.96C778.26 264.73 778.41 264.54 778.62 264.38C778.83 264.22 779.1 264.14 779.45 264.14C779.77 264.14 780.05 264.22 780.29 264.38C780.53 264.54 780.71 264.76 780.84 265.05C780.97 265.34 781.03 265.67 781.03 266.05C781.03 266.59 780.9 267.03 780.63 267.37C780.36 267.71 779.99 267.91 779.52 267.94V266.93C779.72 266.91 779.9 266.82 780.04 266.64C780.18 266.46 780.26 266.23 780.26 265.94C780.26 265.68 780.19 265.47 780.06 265.3C779.93 265.13 779.73 265.05 779.48 265.05C779.31 265.05 779.17 265.1 779.06 265.21C778.95 265.31 778.86 265.45 778.8 265.61C778.74 265.77 778.67 265.99 778.59 266.27C778.49 266.64 778.39 266.94 778.29 267.17C778.19 267.4 778.03 267.6 777.82 267.76C777.61 267.92 777.33 268 776.98 268C776.7 268 776.43 267.92 776.18 267.77C775.93 267.62 775.73 267.4 775.58 267.11C775.43 266.82 775.35 266.48 775.35 266.08C775.33 265.72 775.4 265.38 775.53 265.08Z" fill="#211F1A"/>
<path d="M779.05 269.99H776.61C776.44 269.99 776.33 270.03 776.25 270.11C776.18 270.19 776.14 270.32 776.14 270.51V271.07H775.38V270.35C775.38 269.94 775.48 269.63 775.67 269.41C775.86 269.19 776.17 269.08 776.61 269.08H779.05V268.56H779.79V269.08H780.89V270H779.79V271.07H779.05V269.99Z" fill="#211F1A"/>
<path d="M577.92 330.67C578.17 330.24 578.52 329.9 578.95 329.66C579.38 329.42 579.86 329.3 580.38 329.3C580.97 329.3 581.5 329.45 581.96 329.74C582.42 330.03 582.76 330.44 582.96 330.98H581.86C581.72 330.69 581.52 330.47 581.26 330.32C581 330.18 580.71 330.1 580.37 330.1C580 330.1 579.67 330.18 579.39 330.35C579.1 330.52 578.88 330.75 578.71 331.06C578.55 331.37 578.47 331.73 578.47 332.14C578.47 332.55 578.55 332.91 578.71 333.22C578.87 333.53 579.1 333.77 579.39 333.94C579.68 334.11 580.01 334.19 580.37 334.19C580.71 334.19 581 334.12 581.26 333.97C581.52 333.83 581.72 333.61 581.86 333.31H582.96C582.75 333.84 582.42 334.25 581.96 334.54C581.5 334.83 580.97 334.97 580.38 334.97C579.86 334.97 579.38 334.85 578.95 334.61C578.52 334.37 578.18 334.03 577.92 333.6C577.67 333.17 577.54 332.68 577.54 332.14C577.54 331.6 577.66 331.1 577.92 330.67Z" fill="#211F1A"/>
<path d="M584.65 334.71C584.31 334.52 584.05 334.25 583.86 333.91C583.67 333.57 583.57 333.17 583.57 332.71C583.57 332.26 583.67 331.86 583.87 331.52C584.07 331.18 584.34 330.91 584.68 330.72C585.02 330.53 585.4 330.44 585.82 330.44C586.24 330.44 586.62 330.53 586.96 330.72C587.3 330.91 587.57 331.17 587.77 331.52C587.97 331.87 588.07 332.26 588.07 332.71C588.07 333.16 587.97 333.56 587.77 333.9C587.57 334.25 587.29 334.51 586.94 334.7C586.59 334.89 586.21 334.98 585.78 334.98C585.36 335 584.98 334.9 584.65 334.71ZM586.44 334.04C586.65 333.93 586.81 333.76 586.94 333.54C587.07 333.32 587.13 333.04 587.13 332.72C587.13 332.4 587.07 332.13 586.95 331.91C586.83 331.69 586.66 331.52 586.46 331.41C586.26 331.3 586.04 331.24 585.8 331.24C585.56 331.24 585.35 331.3 585.15 331.41C584.95 331.52 584.79 331.69 584.67 331.91C584.55 332.13 584.49 332.4 584.49 332.72C584.49 333.19 584.61 333.56 584.85 333.82C585.09 334.08 585.4 334.21 585.77 334.21C586.01 334.21 586.23 334.15 586.44 334.04Z" fill="#211F1A"/>
<path d="M589.72 329.01V334.93H588.81V329.01H589.72Z" fill="#211F1A"/>
<path d="M591.67 329.01V334.93H590.76V329.01H591.67Z" fill="#211F1A"/>
<path d="M592.76 329.77C592.65 329.66 592.59 329.52 592.59 329.35C592.59 329.18 592.65 329.05 592.76 328.93C592.87 328.82 593.01 328.76 593.18 328.76C593.34 328.76 593.48 328.82 593.59 328.93C593.7 329.04 593.76 329.18 593.76 329.35C593.76 329.52 593.7 329.65 593.59 329.77C593.48 329.88 593.34 329.94 593.18 329.94C593.01 329.93 592.87 329.88 592.76 329.77ZM593.62 330.52V334.93H592.71V330.52H593.62Z" fill="#211F1A"/>
<path d="M597.82 330.66C598.09 330.8 598.31 331.02 598.46 331.3C598.61 331.58 598.69 331.92 598.69 332.32V334.92H597.79V332.46C597.79 332.07 597.69 331.76 597.49 331.55C597.29 331.34 597.02 331.23 596.68 331.23C596.34 331.23 596.07 331.34 595.87 331.55C595.67 331.76 595.57 332.06 595.57 332.46V334.92H594.66V330.51H595.57V331.01C595.72 330.83 595.91 330.69 596.14 330.59C596.37 330.49 596.62 330.44 596.88 330.44C597.23 330.45 597.55 330.52 597.82 330.66Z" fill="#211F1A"/>
<path d="M600.36 334.81C600.09 334.69 599.87 334.51 599.71 334.3C599.55 334.08 599.46 333.84 599.45 333.58H600.39C600.41 333.77 600.5 333.92 600.66 334.05C600.82 334.17 601.03 334.24 601.27 334.24C601.53 334.24 601.73 334.19 601.87 334.09C602.01 333.99 602.08 333.86 602.08 333.71C602.08 333.54 602 333.42 601.84 333.34C601.68 333.26 601.43 333.17 601.09 333.08C600.76 332.99 600.49 332.9 600.28 332.82C600.07 332.74 599.89 332.6 599.74 332.43C599.59 332.25 599.51 332.02 599.51 331.73C599.51 331.5 599.58 331.28 599.72 331.09C599.86 330.9 600.06 330.74 600.32 330.63C600.58 330.52 600.88 330.46 601.21 330.46C601.71 330.46 602.12 330.59 602.42 330.84C602.73 331.09 602.89 331.44 602.91 331.88H602C601.98 331.68 601.9 331.53 601.76 331.41C601.62 331.29 601.42 331.23 601.18 331.23C600.94 331.23 600.76 331.28 600.63 331.37C600.5 331.46 600.44 331.58 600.44 331.73C600.44 331.85 600.48 331.95 600.57 332.03C600.65 332.11 600.76 332.17 600.88 332.22C601 332.27 601.18 332.32 601.42 332.39C601.74 332.48 602 332.56 602.21 332.65C602.42 332.74 602.59 332.87 602.74 333.04C602.89 333.21 602.97 333.44 602.97 333.72C602.97 333.97 602.9 334.19 602.76 334.39C602.62 334.59 602.43 334.74 602.17 334.85C601.92 334.96 601.62 335.02 601.28 335.02C600.95 335 600.64 334.94 600.36 334.81Z" fill="#211F1A"/>
<path d="M606.55 334.79C606.25 334.66 606.02 334.47 605.85 334.23C605.68 333.99 605.59 333.71 605.59 333.39H606.57C606.59 333.63 606.69 333.83 606.85 333.98C607.01 334.13 607.25 334.21 607.56 334.21C607.88 334.21 608.12 334.13 608.3 333.98C608.48 333.83 608.56 333.63 608.56 333.39C608.56 333.2 608.51 333.05 608.4 332.93C608.29 332.81 608.15 332.72 607.99 332.66C607.83 332.6 607.6 332.53 607.31 332.45C606.95 332.35 606.65 332.26 606.43 332.16C606.21 332.06 606.01 331.91 605.85 331.7C605.69 331.49 605.61 331.21 605.61 330.87C605.61 330.55 605.69 330.27 605.85 330.03C606.01 329.79 606.23 329.61 606.52 329.48C606.81 329.35 607.14 329.29 607.52 329.29C608.06 329.29 608.5 329.42 608.84 329.69C609.18 329.96 609.38 330.33 609.41 330.8H608.4C608.38 330.6 608.29 330.42 608.11 330.28C607.93 330.14 607.7 330.06 607.41 330.06C607.15 330.06 606.94 330.13 606.77 330.26C606.6 330.39 606.52 330.59 606.52 330.84C606.52 331.01 606.57 331.15 606.68 331.26C606.78 331.37 606.92 331.46 607.08 331.52C607.24 331.58 607.46 331.65 607.74 331.73C608.11 331.83 608.41 331.93 608.64 332.03C608.87 332.13 609.07 332.29 609.23 332.5C609.39 332.71 609.47 332.99 609.47 333.34C609.47 333.62 609.39 333.89 609.24 334.14C609.09 334.39 608.87 334.59 608.58 334.74C608.29 334.89 607.95 334.97 607.55 334.97C607.19 334.98 606.85 334.92 606.55 334.79Z" fill="#211F1A"/>
<path d="M611.46 331.26V333.7C611.46 333.87 611.5 333.98 611.58 334.06C611.66 334.13 611.79 334.17 611.98 334.17H612.54V334.93H611.82C611.41 334.93 611.1 334.83 610.88 334.64C610.66 334.45 610.55 334.14 610.55 333.7V331.26H610.03V330.52H610.55V329.42H611.47V330.52H612.54V331.26H611.46Z" fill="#211F1A"/>
<path d="M580.11 436.37V437.11H577.75V438.75H579.59V439.49H577.75V441.92H576.84V436.36H580.11V436.37Z" fill="#211F1A"/>
<path d="M581.71 436.01V441.93H580.8V436.01H581.71Z" fill="#211F1A"/>
<path d="M582.8 436.77C582.69 436.66 582.63 436.52 582.63 436.35C582.63 436.18 582.69 436.05 582.8 435.93C582.91 435.82 583.05 435.76 583.22 435.76C583.38 435.76 583.52 435.82 583.63 435.93C583.74 436.04 583.8 436.18 583.8 436.35C583.8 436.52 583.74 436.65 583.63 436.77C583.52 436.88 583.38 436.94 583.22 436.94C583.05 436.93 582.91 436.88 582.8 436.77ZM583.66 437.52V441.93H582.75V437.52H583.66Z" fill="#211F1A"/>
<path d="M587.86 437.66C588.13 437.8 588.35 438.02 588.5 438.3C588.65 438.58 588.73 438.92 588.73 439.32V441.92H587.83V439.46C587.83 439.07 587.73 438.76 587.53 438.55C587.33 438.34 587.06 438.23 586.72 438.23C586.38 438.23 586.11 438.34 585.91 438.55C585.71 438.76 585.61 439.06 585.61 439.46V441.92H584.7V437.51H585.61V438.01C585.76 437.83 585.95 437.69 586.18 437.59C586.41 437.49 586.66 437.44 586.92 437.44C587.28 437.45 587.59 437.52 587.86 437.66Z" fill="#211F1A"/>
<path d="M589.71 438.53C589.89 438.19 590.14 437.92 590.46 437.73C590.78 437.54 591.13 437.45 591.52 437.45C591.81 437.45 592.09 437.51 592.37 437.64C592.65 437.77 592.87 437.93 593.04 438.14V436.01H593.96V441.93H593.04V441.27C592.89 441.48 592.68 441.66 592.42 441.8C592.16 441.94 591.85 442.01 591.51 442.01C591.13 442.01 590.78 441.91 590.46 441.72C590.14 441.53 589.89 441.25 589.71 440.9C589.53 440.55 589.43 440.15 589.43 439.71C589.43 439.26 589.52 438.87 589.71 438.53ZM592.85 438.93C592.73 438.71 592.56 438.54 592.36 438.42C592.16 438.3 591.94 438.24 591.7 438.24C591.46 438.24 591.25 438.3 591.04 438.41C590.84 438.52 590.67 438.69 590.55 438.91C590.43 439.13 590.36 439.39 590.36 439.7C590.36 440 590.42 440.27 590.55 440.5C590.67 440.73 590.84 440.9 591.05 441.02C591.26 441.14 591.47 441.2 591.7 441.2C591.93 441.2 592.15 441.14 592.36 441.02C592.56 440.9 592.73 440.73 592.85 440.5C592.97 440.27 593.04 440.01 593.04 439.7C593.04 439.39 592.98 439.15 592.85 438.93Z" fill="#211F1A"/>
<path d="M599.01 440.06H595.64C595.67 440.41 595.8 440.69 596.03 440.91C596.26 441.13 596.55 441.23 596.89 441.23C597.38 441.23 597.73 441.02 597.93 440.61H598.91C598.78 441.02 598.54 441.35 598.19 441.61C597.84 441.87 597.41 442 596.89 442C596.47 442 596.09 441.91 595.76 441.72C595.43 441.53 595.17 441.26 594.98 440.92C594.79 440.58 594.7 440.18 594.7 439.72C594.7 439.27 594.79 438.87 594.98 438.52C595.16 438.18 595.42 437.91 595.76 437.72C596.09 437.53 596.48 437.44 596.91 437.44C597.33 437.44 597.7 437.53 598.02 437.71C598.35 437.89 598.6 438.15 598.78 438.47C598.96 438.8 599.05 439.18 599.05 439.6C599.04 439.78 599.03 439.93 599.01 440.06ZM598.09 439.33C598.08 438.99 597.96 438.73 597.73 438.52C597.49 438.32 597.2 438.22 596.86 438.22C596.55 438.22 596.28 438.32 596.05 438.52C595.83 438.72 595.69 438.99 595.65 439.33H598.09Z" fill="#211F1A"/>
<path d="M601.22 437.63C601.44 437.5 601.7 437.44 602.01 437.44V438.38H601.78C601.42 438.38 601.15 438.47 600.97 438.65C600.79 438.83 600.69 439.15 600.69 439.59V441.91H599.78V437.5H600.69V438.14C600.82 437.93 601 437.76 601.22 437.63Z" fill="#211F1A"/>
<path d="M603.36 441.81C603.09 441.69 602.87 441.51 602.71 441.3C602.55 441.08 602.46 440.84 602.45 440.58H603.39C603.41 440.77 603.5 440.92 603.66 441.05C603.82 441.17 604.03 441.24 604.27 441.24C604.53 441.24 604.73 441.19 604.87 441.09C605.01 440.99 605.08 440.86 605.08 440.71C605.08 440.54 605 440.42 604.84 440.34C604.68 440.26 604.43 440.17 604.09 440.08C603.76 439.99 603.49 439.9 603.28 439.82C603.07 439.74 602.89 439.6 602.74 439.43C602.59 439.25 602.51 439.02 602.51 438.73C602.51 438.5 602.58 438.28 602.72 438.09C602.86 437.9 603.06 437.74 603.32 437.63C603.58 437.52 603.88 437.46 604.21 437.46C604.71 437.46 605.12 437.59 605.42 437.84C605.73 438.09 605.89 438.44 605.91 438.88H605C604.98 438.68 604.9 438.53 604.76 438.41C604.62 438.29 604.42 438.23 604.18 438.23C603.94 438.23 603.76 438.28 603.63 438.37C603.5 438.46 603.44 438.58 603.44 438.73C603.44 438.85 603.48 438.95 603.57 439.03C603.65 439.11 603.76 439.17 603.88 439.22C604 439.27 604.18 439.32 604.42 439.39C604.74 439.48 605 439.56 605.21 439.65C605.42 439.74 605.59 439.87 605.74 440.04C605.89 440.21 605.97 440.44 605.97 440.72C605.97 440.97 605.9 441.19 605.76 441.39C605.62 441.59 605.43 441.74 605.17 441.85C604.92 441.96 604.62 442.02 604.28 442.02C603.94 442 603.63 441.94 603.36 441.81Z" fill="#211F1A"/>
<path d="M609.63 441.19H611.51V441.93H608.72V436.37H609.63V441.19Z" fill="#211F1A"/>
<path d="M615.27 437.66C615.54 437.8 615.76 438.02 615.91 438.3C616.06 438.58 616.14 438.92 616.14 439.32V441.92H615.24V439.46C615.24 439.07 615.14 438.76 614.94 438.55C614.74 438.34 614.47 438.23 614.13 438.23C613.79 438.23 613.52 438.34 613.32 438.55C613.12 438.76 613.02 439.06 613.02 439.46V441.92H612.11V437.51H613.02V438.01C613.17 437.83 613.36 437.69 613.59 437.59C613.82 437.49 614.07 437.44 614.33 437.44C614.68 437.45 614.99 437.52 615.27 437.66Z" fill="#211F1A"/>
<path d="M759.08 607.41L754.95 611.48L754.05 610.98L755.06 606.73L751.94 609.82L751.04 609.33L752.35 603.69L753.2 604.16L752.02 608.68L755.3 605.32L756.2 605.81L755.04 610.31L758.23 606.93L759.08 607.41Z" fill="#211F1A"/>
<path d="M761.33 612.87L758.38 611.24C758.23 611.56 758.21 611.87 758.31 612.17C758.41 612.47 758.61 612.7 758.91 612.87C759.34 613.11 759.74 613.09 760.12 612.83L760.98 613.3C760.67 613.59 760.3 613.76 759.86 613.82C759.43 613.88 758.99 613.78 758.53 613.53C758.16 613.33 757.88 613.06 757.68 612.74C757.48 612.41 757.38 612.05 757.38 611.66C757.38 611.27 757.49 610.87 757.71 610.48C757.93 610.08 758.2 609.78 758.53 609.57C758.86 609.36 759.21 609.25 759.59 609.25C759.97 609.25 760.35 609.35 760.73 609.56C761.09 609.76 761.37 610.02 761.57 610.34C761.77 610.66 761.87 611 761.87 611.38C761.87 611.76 761.77 612.13 761.56 612.5C761.49 612.63 761.41 612.76 761.33 612.87ZM760.88 611.78C761.04 611.48 761.06 611.19 760.96 610.9C760.85 610.61 760.65 610.38 760.34 610.21C760.06 610.06 759.78 610.02 759.49 610.08C759.2 610.15 758.95 610.32 758.75 610.6L760.88 611.78Z" fill="#211F1A"/>
<path d="M764.75 610.12L761.89 615.3L761.09 614.86L763.95 609.68L764.75 610.12Z" fill="#211F1A"/>
<path d="M766.46 611.07L763.6 616.25L762.8 615.81L765.66 610.63L766.46 611.07Z" fill="#211F1A"/>
<path d="M767.44 613.33L765.31 617.19L764.51 616.75L766.64 612.89L767.44 613.33ZM767.05 612.26C767.01 612.11 767.02 611.96 767.1 611.81C767.18 611.67 767.3 611.57 767.45 611.53C767.6 611.49 767.75 611.5 767.9 611.58C768.04 611.66 768.13 611.77 768.18 611.92C768.22 612.07 768.21 612.22 768.13 612.37C768.05 612.52 767.93 612.61 767.78 612.65C767.63 612.69 767.48 612.68 767.34 612.6C767.19 612.53 767.09 612.41 767.05 612.26Z" fill="#211F1A"/>
<path d="M771.05 615.49C771.22 615.75 771.31 616.04 771.31 616.36C771.31 616.68 771.21 617.02 771.02 617.37L769.77 619.65L768.98 619.21L770.17 617.05C770.36 616.7 770.42 616.39 770.35 616.11C770.28 615.83 770.09 615.61 769.8 615.44C769.51 615.27 769.21 615.24 768.94 615.32C768.66 615.41 768.43 615.62 768.24 615.97L767.05 618.13L766.25 617.69L768.38 613.83L769.18 614.27L768.94 614.71C769.16 614.62 769.39 614.59 769.65 614.61C769.9 614.63 770.14 614.71 770.37 614.83C770.64 615.01 770.88 615.23 771.05 615.49Z" fill="#211F1A"/>
<path d="M775.05 617.68C775.22 617.93 775.32 618.17 775.35 618.42L775.66 617.86L776.47 618.3L774.31 622.22C774.11 622.58 773.86 622.85 773.56 623.05C773.26 623.25 772.92 623.34 772.55 623.35C772.18 623.35 771.8 623.25 771.41 623.03C770.89 622.74 770.52 622.38 770.31 621.94C770.1 621.5 770.09 621.06 770.27 620.62L771.06 621.06C771.01 621.29 771.05 621.53 771.18 621.76C771.31 621.99 771.51 622.19 771.79 622.34C772.11 622.52 772.43 622.56 772.73 622.48C773.04 622.39 773.29 622.16 773.5 621.79L773.86 621.15C773.62 621.26 773.36 621.31 773.06 621.31C772.76 621.31 772.46 621.22 772.17 621.06C771.83 620.87 771.57 620.62 771.39 620.3C771.21 619.98 771.12 619.62 771.13 619.22C771.14 618.83 771.25 618.43 771.46 618.05C771.67 617.66 771.94 617.36 772.27 617.15C772.6 616.94 772.94 616.83 773.31 616.82C773.68 616.81 774.03 616.89 774.37 617.08C774.65 617.22 774.88 617.43 775.05 617.68ZM774.81 619C774.81 618.74 774.75 618.51 774.63 618.31C774.51 618.11 774.35 617.95 774.14 617.84C773.93 617.73 773.71 617.67 773.48 617.67C773.25 617.67 773.02 617.74 772.81 617.87C772.6 618 772.41 618.2 772.27 618.47C772.12 618.74 772.05 619 772.05 619.26C772.05 619.52 772.11 619.75 772.23 619.96C772.35 620.16 772.51 620.32 772.71 620.43C772.92 620.54 773.14 620.6 773.37 620.59C773.6 620.59 773.83 620.51 774.05 620.38C774.27 620.24 774.45 620.04 774.6 619.77C774.75 619.5 774.81 619.26 774.81 619Z" fill="#211F1A"/>
<path d="M777.94 619.97L776.76 622.11C776.68 622.26 776.66 622.38 776.69 622.48C776.72 622.58 776.82 622.68 776.98 622.77L777.47 623.04L777.1 623.71L776.47 623.36C776.11 623.16 775.88 622.93 775.78 622.65C775.68 622.38 775.74 622.05 775.95 621.67L777.13 619.53L776.67 619.28L777.03 618.63L777.49 618.88L778.02 617.92L778.83 618.36L778.3 619.32L779.24 619.84L778.88 620.49L777.94 619.97Z" fill="#211F1A"/>
<path d="M778.5 624.22C778.3 623.89 778.2 623.53 778.19 623.14C778.19 622.75 778.3 622.35 778.52 621.95C778.74 621.56 779.02 621.26 779.35 621.05C779.69 620.84 780.06 620.74 780.44 620.74C780.83 620.74 781.21 620.84 781.58 621.05C781.95 621.25 782.24 621.52 782.45 621.85C782.66 622.18 782.77 622.54 782.77 622.94C782.77 623.34 782.67 623.73 782.45 624.13C782.23 624.52 781.95 624.82 781.61 625.03C781.27 625.24 780.89 625.34 780.5 625.33C780.11 625.32 779.72 625.22 779.35 625.02C778.98 624.81 778.7 624.55 778.5 624.22ZM780.39 624.49C780.62 624.49 780.85 624.42 781.07 624.29C781.29 624.16 781.48 623.95 781.63 623.67C781.78 623.39 781.86 623.12 781.86 622.87C781.86 622.62 781.8 622.39 781.67 622.2C781.55 622 781.38 621.85 781.18 621.74C780.97 621.63 780.76 621.57 780.53 621.57C780.3 621.57 780.08 621.64 779.87 621.78C779.66 621.92 779.48 622.13 779.32 622.41C779.09 622.83 779.02 623.21 779.11 623.55C779.2 623.89 779.4 624.15 779.73 624.33C779.94 624.43 780.16 624.49 780.39 624.49Z" fill="#211F1A"/>
<path d="M786.86 624.2C787.03 624.46 787.12 624.75 787.12 625.07C787.12 625.39 787.02 625.73 786.83 626.08L785.57 628.36L784.78 627.92L785.97 625.76C786.16 625.41 786.22 625.1 786.15 624.82C786.08 624.54 785.89 624.32 785.59 624.15C785.29 623.98 785 623.95 784.73 624.03C784.46 624.11 784.22 624.33 784.03 624.68L782.84 626.84L782.04 626.4L784.17 622.54L784.97 622.98L784.73 623.42C784.95 623.33 785.18 623.3 785.44 623.32C785.69 623.34 785.93 623.42 786.16 623.54C786.45 623.73 786.69 623.94 786.86 624.2Z" fill="#211F1A"/>
<path d="M792.85 628.83C792.61 628.99 792.33 629.06 791.99 629.06C791.66 629.06 791.29 628.94 790.89 628.72L790.01 628.23L788.92 630.21L788.12 629.77L790.8 624.9L792.48 625.83C792.85 626.04 793.13 626.27 793.32 626.55C793.51 626.82 793.61 627.1 793.61 627.39C793.62 627.68 793.55 627.96 793.4 628.23C793.28 628.48 793.09 628.68 792.85 628.83ZM792.05 628.24C792.28 628.18 792.46 628.03 792.6 627.78C792.89 627.25 792.74 626.82 792.14 626.48L791.26 625.99L790.38 627.58L791.26 628.07C791.56 628.24 791.82 628.29 792.05 628.24Z" fill="#211F1A"/>
<path d="M793.77 629C794.1 628.79 794.44 628.68 794.81 628.67C795.18 628.66 795.53 628.74 795.87 628.93C796.17 629.1 796.41 629.3 796.57 629.55C796.73 629.8 796.83 630.04 796.87 630.29L797.18 629.73L797.99 630.17L795.86 634.03L795.05 633.59L795.37 633.02C795.13 633.13 794.87 633.18 794.57 633.17C794.27 633.16 793.97 633.08 793.67 632.91C793.34 632.73 793.08 632.47 792.9 632.15C792.72 631.83 792.63 631.47 792.64 631.07C792.65 630.68 792.76 630.28 792.97 629.9C793.17 629.51 793.45 629.21 793.77 629ZM796.33 630.87C796.33 630.61 796.27 630.39 796.15 630.18C796.03 629.98 795.87 629.82 795.66 629.71C795.45 629.6 795.24 629.54 795 629.54C794.77 629.54 794.54 629.61 794.33 629.74C794.11 629.87 793.93 630.07 793.79 630.34C793.64 630.61 793.57 630.87 793.57 631.13C793.57 631.39 793.63 631.62 793.75 631.83C793.87 632.03 794.03 632.19 794.23 632.3C794.44 632.41 794.65 632.47 794.89 632.46C795.12 632.46 795.35 632.38 795.57 632.25C795.79 632.11 795.97 631.91 796.12 631.64C796.26 631.39 796.33 631.12 796.33 630.87Z" fill="#211F1A"/>
<path d="M800.1 631.47C800.35 631.47 800.61 631.54 800.88 631.69L800.42 632.52L800.22 632.41C799.91 632.24 799.63 632.19 799.38 632.26C799.13 632.33 798.9 632.56 798.68 632.95L797.56 634.98L796.76 634.54L798.89 630.68L799.69 631.12L799.38 631.68C799.61 631.54 799.85 631.47 800.1 631.47Z" fill="#211F1A"/>
<path d="M800.93 632.95C801.26 632.74 801.6 632.63 801.97 632.62C802.34 632.61 802.69 632.69 803.03 632.88C803.33 633.05 803.57 633.25 803.73 633.5C803.89 633.74 803.99 633.99 804.03 634.24L804.34 633.68L805.15 634.12L803.02 637.98L802.21 637.54L802.53 636.97C802.29 637.08 802.03 637.13 801.73 637.12C801.43 637.11 801.13 637.03 800.83 636.86C800.5 636.68 800.24 636.42 800.06 636.1C799.88 635.78 799.79 635.42 799.8 635.02C799.81 634.63 799.92 634.23 800.13 633.85C800.34 633.47 800.6 633.16 800.93 632.95ZM803.49 634.82C803.49 634.56 803.43 634.34 803.31 634.13C803.19 633.93 803.03 633.77 802.82 633.66C802.61 633.55 802.39 633.49 802.16 633.49C801.93 633.49 801.7 633.56 801.49 633.69C801.27 633.82 801.09 634.02 800.95 634.29C800.8 634.56 800.73 634.82 800.73 635.08C800.73 635.34 800.79 635.57 800.91 635.78C801.03 635.98 801.19 636.14 801.39 636.25C801.6 636.36 801.82 636.42 802.05 636.41C802.28 636.41 802.51 636.33 802.73 636.2C802.95 636.06 803.13 635.86 803.28 635.59C803.43 635.32 803.49 635.07 803.49 634.82Z" fill="#211F1A"/>
<path d="M805.54 635.49C805.87 635.28 806.21 635.17 806.58 635.16C806.95 635.15 807.3 635.24 807.64 635.42C807.89 635.56 808.11 635.75 808.3 636C808.48 636.25 808.6 636.5 808.64 636.76L809.67 634.9L810.48 635.34L807.62 640.52L806.81 640.07L807.13 639.49C806.9 639.6 806.63 639.66 806.33 639.65C806.03 639.64 805.73 639.56 805.43 639.39C805.09 639.2 804.83 638.95 804.65 638.63C804.47 638.31 804.38 637.95 804.39 637.55C804.4 637.16 804.51 636.76 804.72 636.38C804.94 636 805.21 635.7 805.54 635.49ZM808.1 637.36C808.1 637.1 808.04 636.87 807.92 636.67C807.8 636.47 807.64 636.31 807.43 636.2C807.22 636.09 807 636.03 806.77 636.03C806.54 636.03 806.31 636.1 806.1 636.23C805.89 636.36 805.7 636.56 805.56 636.83C805.42 637.1 805.34 637.36 805.34 637.62C805.34 637.88 805.4 638.11 805.52 638.32C805.64 638.53 805.8 638.68 806 638.79C806.21 638.9 806.43 638.96 806.66 638.95C806.89 638.95 807.12 638.87 807.34 638.74C807.56 638.6 807.74 638.4 807.89 638.13C808.03 637.88 808.1 637.61 808.1 637.36Z" fill="#211F1A"/>
<path d="M812.94 641.33L809.99 639.7C809.84 640.02 809.82 640.33 809.92 640.63C810.02 640.93 810.22 641.16 810.52 641.33C810.95 641.57 811.35 641.55 811.73 641.29L812.59 641.77C812.28 642.06 811.91 642.23 811.48 642.29C811.05 642.35 810.61 642.25 810.15 642C809.78 641.8 809.5 641.53 809.3 641.21C809.1 640.88 809 640.52 809 640.13C809 639.74 809.11 639.34 809.33 638.95C809.55 638.55 809.82 638.25 810.15 638.04C810.48 637.83 810.83 637.72 811.21 637.72C811.59 637.72 811.97 637.82 812.35 638.03C812.71 638.23 812.99 638.49 813.19 638.81C813.39 639.13 813.49 639.47 813.49 639.85C813.49 640.22 813.39 640.6 813.18 640.97C813.11 641.09 813.03 641.22 812.94 641.33ZM812.49 640.24C812.65 639.94 812.67 639.65 812.57 639.36C812.46 639.07 812.26 638.84 811.95 638.67C811.67 638.52 811.39 638.48 811.1 638.54C810.81 638.61 810.56 638.78 810.36 639.06L812.49 640.24Z" fill="#211F1A"/>
<path d="M815.19 644.53C814.99 644.27 814.88 644 814.84 643.7C814.81 643.41 814.87 643.12 815.02 642.84L815.88 643.31C815.78 643.53 815.77 643.75 815.84 643.97C815.91 644.19 816.08 644.37 816.35 644.51C816.63 644.66 816.88 644.71 817.1 644.67C817.32 644.63 817.5 644.49 817.61 644.28C817.7 644.12 817.73 643.96 817.69 643.8C817.65 643.64 817.58 643.5 817.47 643.36C817.36 643.23 817.19 643.06 816.98 642.85C816.71 642.59 816.5 642.36 816.35 642.17C816.2 641.97 816.1 641.75 816.06 641.49C816.02 641.23 816.08 640.95 816.25 640.65C816.4 640.37 816.61 640.16 816.87 640.03C817.13 639.9 817.41 639.84 817.72 639.87C818.03 639.9 818.36 640 818.69 640.18C819.16 640.44 819.48 640.77 819.65 641.17C819.82 641.57 819.81 641.99 819.62 642.42L818.74 641.93C818.82 641.74 818.82 641.55 818.74 641.34C818.66 641.13 818.49 640.95 818.23 640.81C818 640.68 817.78 640.64 817.57 640.68C817.36 640.72 817.2 640.85 817.07 641.06C816.99 641.21 816.97 641.36 817 641.5C817.04 641.65 817.11 641.79 817.22 641.92C817.33 642.05 817.49 642.22 817.69 642.42C817.96 642.69 818.18 642.92 818.33 643.12C818.48 643.32 818.58 643.55 818.62 643.82C818.66 644.08 818.6 644.37 818.43 644.68C818.29 644.93 818.1 645.12 817.84 645.27C817.59 645.42 817.3 645.49 816.97 645.48C816.64 645.47 816.3 645.37 815.96 645.18C815.65 645.01 815.38 644.79 815.19 644.53Z" fill="#211F1A"/>
<path d="M922.87 423.06V424.55H919.91V434.18H918.09V424.55H915.11V423.06H922.87Z" fill="#211F1A"/>
<path d="M927.28 425.59C927.72 425.34 928.25 425.21 928.86 425.21V427.1H928.4C927.69 427.1 927.14 427.28 926.78 427.64C926.42 428 926.23 428.63 926.23 429.53V434.17H924.41V425.35H926.23V426.63C926.48 426.19 926.83 425.84 927.28 425.59Z" fill="#211F1A"/>
<path d="M938.23 430.45H931.49C931.54 431.15 931.8 431.72 932.27 432.15C932.74 432.58 933.32 432.79 934 432.79C934.98 432.79 935.67 432.38 936.08 431.56H938.05C937.78 432.37 937.3 433.03 936.6 433.55C935.9 434.07 935.03 434.33 934 434.33C933.16 434.33 932.4 434.14 931.74 433.76C931.07 433.38 930.55 432.85 930.17 432.16C929.79 431.47 929.6 430.67 929.6 429.77C929.6 428.86 929.78 428.07 930.15 427.38C930.52 426.69 931.04 426.16 931.7 425.79C932.37 425.42 933.13 425.23 934 425.23C934.83 425.23 935.57 425.41 936.22 425.77C936.87 426.13 937.38 426.64 937.74 427.3C938.1 427.96 938.28 428.71 938.28 429.56C938.29 429.88 938.27 430.18 938.23 430.45ZM936.39 428.98C936.38 428.31 936.14 427.77 935.67 427.36C935.2 426.95 934.62 426.75 933.93 426.75C933.3 426.75 932.76 426.95 932.31 427.35C931.86 427.75 931.6 428.29 931.51 428.97H936.39V428.98Z" fill="#211F1A"/>
<path d="M939.71 427.38C940.08 426.7 940.58 426.17 941.21 425.79C941.84 425.41 942.55 425.22 943.31 425.22C944 425.22 944.61 425.36 945.13 425.63C945.65 425.9 946.06 426.24 946.37 426.65V425.37H948.21V434.19H946.37V432.88C946.06 433.3 945.64 433.64 945.11 433.92C944.58 434.2 943.97 434.34 943.29 434.34C942.53 434.34 941.84 434.15 941.21 433.76C940.58 433.37 940.08 432.83 939.71 432.13C939.34 431.43 939.16 430.64 939.16 429.75C939.16 428.84 939.34 428.06 939.71 427.38ZM946 428.18C945.75 427.73 945.42 427.39 945.02 427.16C944.61 426.93 944.18 426.81 943.71 426.81C943.24 426.81 942.8 426.92 942.4 427.15C941.99 427.38 941.67 427.72 941.42 428.16C941.17 428.6 941.04 429.13 941.04 429.74C941.04 430.35 941.16 430.88 941.42 431.34C941.67 431.8 942 432.15 942.41 432.39C942.82 432.63 943.26 432.75 943.71 432.75C944.18 432.75 944.62 432.63 945.02 432.4C945.43 432.17 945.75 431.82 946 431.37C946.25 430.92 946.38 430.39 946.38 429.78C946.38 429.17 946.25 428.63 946 428.18Z" fill="#211F1A"/>
<path d="M951.63 433.95C951.08 433.7 950.65 433.36 950.33 432.93C950.01 432.5 949.84 432.02 949.82 431.48H951.71C951.74 431.85 951.92 432.17 952.25 432.42C952.58 432.67 952.98 432.8 953.47 432.8C953.98 432.8 954.38 432.7 954.66 432.5C954.94 432.3 955.08 432.05 955.08 431.74C955.08 431.41 954.92 431.16 954.61 431C954.3 430.84 953.8 430.66 953.11 430.47C952.45 430.29 951.91 430.11 951.49 429.94C951.07 429.77 950.71 429.51 950.41 429.16C950.11 428.81 949.95 428.34 949.95 427.77C949.95 427.3 950.09 426.87 950.37 426.48C950.65 426.09 951.04 425.78 951.56 425.56C952.08 425.34 952.67 425.22 953.34 425.22C954.34 425.22 955.15 425.47 955.76 425.98C956.37 426.49 956.7 427.18 956.74 428.05H954.92C954.89 427.66 954.73 427.34 954.44 427.11C954.15 426.88 953.76 426.76 953.27 426.76C952.79 426.76 952.42 426.85 952.17 427.03C951.92 427.21 951.79 427.45 951.79 427.75C951.79 427.98 951.87 428.18 952.05 428.34C952.22 428.5 952.43 428.63 952.67 428.72C952.91 428.81 953.28 428.93 953.76 429.06C954.4 429.23 954.93 429.4 955.34 429.58C955.75 429.76 956.11 430.02 956.4 430.36C956.7 430.7 956.85 431.15 956.86 431.72C956.86 432.22 956.72 432.67 956.44 433.06C956.16 433.46 955.77 433.76 955.26 433.99C954.75 434.21 954.16 434.33 953.48 434.33C952.8 434.32 952.18 434.2 951.63 433.95Z" fill="#211F1A"/>
<path d="M966.5 425.36V434.18H964.68V433.14C964.39 433.5 964.02 433.79 963.55 434C963.09 434.21 962.59 434.31 962.07 434.31C961.38 434.31 960.76 434.17 960.21 433.88C959.66 433.59 959.23 433.17 958.91 432.6C958.59 432.03 958.44 431.35 958.44 430.55V425.37H960.25V430.28C960.25 431.07 960.45 431.67 960.84 432.1C961.23 432.53 961.77 432.73 962.46 432.73C963.15 432.73 963.68 432.52 964.08 432.1C964.48 431.68 964.68 431.07 964.68 430.28V425.37H966.5V425.36Z" fill="#211F1A"/>
<path d="M971.47 425.59C971.91 425.34 972.44 425.21 973.05 425.21V427.1H972.59C971.88 427.1 971.33 427.28 970.97 427.64C970.61 428 970.42 428.63 970.42 429.53V434.17H968.6V425.35H970.42V426.63C970.67 426.19 971.03 425.84 971.47 425.59Z" fill="#211F1A"/>
<path d="M982.34 425.36L976.93 438.32H975.04L976.83 434.03L973.36 425.36H975.39L977.87 432.08L980.45 425.36H982.34Z" fill="#211F1A"/>
<path d="M924.2 445.46C923.91 444.91 923.51 444.49 923 444.2C922.49 443.91 921.9 443.78 921.22 443.78C920.48 443.78 919.83 443.95 919.25 444.28C918.67 444.61 918.22 445.08 917.9 445.69C917.57 446.3 917.41 447 917.41 447.8C917.41 448.6 917.57 449.31 917.9 449.92C918.23 450.53 918.68 451.01 919.25 451.34C919.82 451.67 920.48 451.84 921.22 451.84C922.21 451.84 923.02 451.56 923.64 451.01C924.26 450.46 924.64 449.7 924.78 448.75H920.6V447.29H926.73V448.71C926.61 449.57 926.31 450.37 925.81 451.09C925.31 451.82 924.67 452.39 923.87 452.83C923.08 453.26 922.19 453.48 921.22 453.48C920.17 453.48 919.22 453.24 918.36 452.75C917.5 452.26 916.81 451.59 916.3 450.73C915.79 449.87 915.54 448.89 915.54 447.8C915.54 446.71 915.79 445.74 916.3 444.87C916.81 444.01 917.5 443.33 918.36 442.85C919.23 442.36 920.18 442.12 921.22 442.12C922.4 442.12 923.46 442.41 924.38 442.99C925.3 443.57 925.97 444.4 926.39 445.46H924.2Z" fill="#211F1A"/>
<path d="M928.15 446.58C928.52 445.9 929.02 445.37 929.65 444.99C930.28 444.61 930.99 444.42 931.75 444.42C932.44 444.42 933.05 444.56 933.57 444.83C934.09 445.1 934.5 445.44 934.81 445.85V444.57H936.65V453.39H934.81V452.08C934.5 452.5 934.08 452.84 933.55 453.12C933.02 453.4 932.41 453.54 931.73 453.54C930.97 453.54 930.28 453.35 929.65 452.96C929.02 452.57 928.52 452.03 928.15 451.33C927.78 450.63 927.6 449.84 927.6 448.95C927.6 448.04 927.78 447.26 928.15 446.58ZM934.44 447.38C934.19 446.93 933.86 446.59 933.46 446.36C933.05 446.13 932.62 446.01 932.15 446.01C931.68 446.01 931.24 446.12 930.84 446.35C930.43 446.58 930.11 446.92 929.86 447.36C929.61 447.8 929.48 448.33 929.48 448.94C929.48 449.55 929.6 450.08 929.86 450.54C930.11 451 930.44 451.35 930.85 451.59C931.26 451.83 931.7 451.95 932.15 451.95C932.62 451.95 933.06 451.83 933.46 451.6C933.87 451.37 934.19 451.02 934.44 450.57C934.69 450.12 934.82 449.59 934.82 448.98C934.82 448.37 934.69 447.83 934.44 447.38Z" fill="#211F1A"/>
<path d="M941.62 444.79C942.06 444.54 942.59 444.41 943.2 444.41V446.3H942.74C942.03 446.3 941.48 446.48 941.12 446.84C940.76 447.2 940.57 447.83 940.57 448.73V453.37H938.75V444.55H940.57V445.83C940.82 445.39 941.18 445.04 941.62 444.79Z" fill="#211F1A"/>
<path d="M944.5 446.58C944.87 445.9 945.37 445.37 946 444.99C946.63 444.61 947.34 444.42 948.12 444.42C948.7 444.42 949.26 444.55 949.82 444.8C950.38 445.05 950.83 445.38 951.16 445.8V441.54H953V453.38H951.16V452.05C950.86 452.48 950.45 452.83 949.92 453.11C949.39 453.39 948.79 453.53 948.1 453.53C947.33 453.53 946.63 453.34 946 452.95C945.37 452.56 944.86 452.02 944.5 451.32C944.13 450.62 943.95 449.83 943.95 448.94C943.95 448.04 944.13 447.26 944.5 446.58ZM950.79 447.38C950.54 446.93 950.21 446.59 949.81 446.36C949.4 446.13 948.97 446.01 948.5 446.01C948.03 446.01 947.59 446.12 947.19 446.35C946.78 446.58 946.46 446.92 946.21 447.36C945.96 447.8 945.83 448.33 945.83 448.94C945.83 449.55 945.95 450.08 946.21 450.54C946.46 451 946.79 451.35 947.2 451.59C947.61 451.83 948.05 451.95 948.5 451.95C948.97 451.95 949.41 451.83 949.81 451.6C950.22 451.37 950.54 451.02 950.79 450.57C951.04 450.12 951.17 449.59 951.17 448.98C951.17 448.37 951.04 447.83 950.79 447.38Z" fill="#211F1A"/>
<path d="M963.1 449.65H956.36C956.41 450.35 956.67 450.92 957.14 451.35C957.61 451.78 958.19 451.99 958.87 451.99C959.85 451.99 960.54 451.58 960.95 450.76H962.92C962.65 451.57 962.17 452.23 961.47 452.75C960.77 453.27 959.9 453.53 958.87 453.53C958.03 453.53 957.27 453.34 956.61 452.96C955.94 452.58 955.42 452.05 955.04 451.36C954.66 450.67 954.47 449.87 954.47 448.97C954.47 448.06 954.65 447.27 955.02 446.58C955.39 445.89 955.91 445.36 956.57 444.99C957.24 444.62 958 444.43 958.87 444.43C959.7 444.43 960.44 444.61 961.09 444.97C961.74 445.33 962.25 445.84 962.61 446.5C962.97 447.16 963.15 447.91 963.15 448.76C963.16 449.08 963.14 449.38 963.1 449.65ZM961.26 448.18C961.25 447.51 961.01 446.97 960.54 446.56C960.07 446.15 959.49 445.95 958.8 445.95C958.17 445.95 957.63 446.15 957.18 446.55C956.73 446.95 956.47 447.49 956.38 448.17H961.26V448.18Z" fill="#211F1A"/>
<path d="M970.95 444.85C971.5 445.14 971.93 445.56 972.24 446.13C972.55 446.7 972.7 447.38 972.7 448.18V453.38H970.89V448.45C970.89 447.66 970.69 447.06 970.3 446.63C969.91 446.21 969.37 446 968.68 446C967.99 446 967.46 446.21 967.06 446.63C966.66 447.05 966.46 447.66 966.46 448.45V453.38H964.64V444.56H966.46V445.57C966.76 445.21 967.14 444.92 967.6 444.72C968.06 444.52 968.56 444.42 969.08 444.42C969.78 444.42 970.4 444.56 970.95 444.85Z" fill="#211F1A"/>
<path d="M976.04 453.15C975.49 452.9 975.06 452.56 974.74 452.13C974.42 451.7 974.25 451.22 974.23 450.68H976.12C976.15 451.05 976.33 451.37 976.66 451.62C976.99 451.87 977.39 452 977.88 452C978.39 452 978.79 451.9 979.07 451.7C979.35 451.5 979.49 451.25 979.49 450.94C979.49 450.61 979.33 450.36 979.02 450.2C978.71 450.04 978.21 449.86 977.52 449.67C976.86 449.49 976.32 449.31 975.9 449.14C975.48 448.97 975.12 448.71 974.82 448.36C974.52 448.01 974.36 447.54 974.36 446.97C974.36 446.5 974.5 446.07 974.78 445.68C975.06 445.29 975.45 444.98 975.97 444.76C976.49 444.54 977.08 444.42 977.75 444.42C978.75 444.42 979.56 444.67 980.17 445.18C980.78 445.69 981.11 446.38 981.15 447.25H979.33C979.3 446.86 979.14 446.54 978.85 446.31C978.56 446.08 978.17 445.96 977.68 445.96C977.2 445.96 976.83 446.05 976.58 446.23C976.33 446.41 976.2 446.65 976.2 446.95C976.2 447.18 976.28 447.38 976.46 447.54C976.63 447.7 976.84 447.83 977.08 447.92C977.32 448.01 977.69 448.13 978.17 448.26C978.81 448.43 979.34 448.6 979.75 448.78C980.16 448.96 980.52 449.22 980.81 449.56C981.11 449.9 981.26 450.35 981.27 450.92C981.27 451.42 981.13 451.87 980.85 452.26C980.57 452.66 980.18 452.96 979.67 453.19C979.16 453.41 978.57 453.53 977.89 453.53C977.21 453.52 976.58 453.4 976.04 453.15Z" fill="#211F1A"/>
<path d="M804.47 182.26C804.18 181.71 803.78 181.29 803.27 181C802.76 180.71 802.17 180.58 801.49 180.58C800.75 180.58 800.1 180.75 799.52 181.08C798.94 181.41 798.49 181.88 798.17 182.49C797.84 183.1 797.68 183.8 797.68 184.6C797.68 185.4 797.84 186.11 798.17 186.72C798.5 187.33 798.95 187.81 799.52 188.14C800.09 188.47 800.75 188.64 801.49 188.64C802.48 188.64 803.29 188.36 803.91 187.81C804.53 187.26 804.91 186.5 805.05 185.55H800.87V184.09H807V185.51C806.88 186.37 806.58 187.17 806.08 187.89C805.58 188.62 804.94 189.19 804.14 189.63C803.35 190.06 802.46 190.28 801.49 190.28C800.44 190.28 799.49 190.04 798.63 189.55C797.77 189.06 797.08 188.39 796.57 187.53C796.06 186.67 795.81 185.69 795.81 184.6C795.81 183.51 796.06 182.54 796.57 181.67C797.08 180.81 797.77 180.13 798.63 179.65C799.5 179.16 800.45 178.92 801.49 178.92C802.67 178.92 803.73 179.21 804.65 179.79C805.57 180.37 806.24 181.2 806.66 182.26H804.47Z" fill="#211F1A"/>
<path d="M810.04 189.75C809.37 189.37 808.84 188.84 808.46 188.15C808.08 187.46 807.88 186.66 807.88 185.76C807.88 184.86 808.08 184.07 808.47 183.38C808.86 182.69 809.4 182.15 810.09 181.78C810.77 181.41 811.54 181.22 812.38 181.22C813.22 181.22 813.99 181.41 814.67 181.78C815.35 182.15 815.89 182.69 816.29 183.38C816.69 184.07 816.88 184.87 816.88 185.76C816.88 186.65 816.68 187.45 816.27 188.14C815.86 188.83 815.31 189.37 814.61 189.75C813.91 190.13 813.14 190.32 812.3 190.32C811.46 190.32 810.71 190.13 810.04 189.75ZM813.61 188.4C814.02 188.18 814.35 187.84 814.61 187.39C814.87 186.94 814.99 186.4 814.99 185.76C814.99 185.12 814.87 184.58 814.62 184.14C814.37 183.7 814.05 183.36 813.64 183.14C813.23 182.92 812.8 182.8 812.33 182.8C811.86 182.8 811.43 182.91 811.03 183.14C810.63 183.36 810.31 183.7 810.08 184.14C809.84 184.58 809.73 185.12 809.73 185.76C809.73 186.71 809.97 187.44 810.46 187.96C810.95 188.48 811.56 188.74 812.29 188.74C812.76 188.74 813.2 188.63 813.61 188.4Z" fill="#211F1A"/>
<path d="M821.24 181.59C821.68 181.34 822.21 181.21 822.82 181.21V183.1H822.36C821.65 183.1 821.1 183.28 820.74 183.64C820.38 184 820.19 184.63 820.19 185.53V190.17H818.37V181.35H820.19V182.63C820.45 182.19 820.8 181.84 821.24 181.59Z" fill="#211F1A"/>
<path d="M824.12 183.38C824.49 182.7 824.99 182.17 825.62 181.79C826.25 181.41 826.96 181.22 827.74 181.22C828.32 181.22 828.88 181.35 829.44 181.6C830 181.85 830.45 182.18 830.78 182.6V178.34H832.62V190.18H830.78V188.85C830.48 189.28 830.07 189.63 829.54 189.91C829.01 190.19 828.41 190.33 827.72 190.33C826.95 190.33 826.25 190.14 825.62 189.75C824.99 189.36 824.48 188.82 824.12 188.12C823.75 187.42 823.57 186.63 823.57 185.74C823.57 184.84 823.76 184.06 824.12 183.38ZM830.41 184.18C830.16 183.73 829.83 183.39 829.43 183.16C829.02 182.93 828.59 182.81 828.12 182.81C827.65 182.81 827.21 182.92 826.81 183.15C826.4 183.38 826.08 183.72 825.83 184.16C825.58 184.6 825.45 185.13 825.45 185.74C825.45 186.35 825.57 186.88 825.83 187.34C826.08 187.8 826.41 188.15 826.82 188.39C827.23 188.63 827.67 188.75 828.12 188.75C828.59 188.75 829.03 188.63 829.43 188.4C829.84 188.17 830.16 187.82 830.41 187.37C830.66 186.92 830.79 186.39 830.79 185.78C830.79 185.17 830.66 184.63 830.41 184.18Z" fill="#211F1A"/>
<path d="M836.28 189.75C835.61 189.37 835.08 188.84 834.7 188.15C834.32 187.46 834.12 186.66 834.12 185.76C834.12 184.86 834.32 184.07 834.71 183.38C835.1 182.69 835.64 182.15 836.33 181.78C837.01 181.41 837.78 181.22 838.62 181.22C839.46 181.22 840.23 181.41 840.91 181.78C841.59 182.15 842.13 182.69 842.53 183.38C842.93 184.07 843.12 184.87 843.12 185.76C843.12 186.65 842.92 187.45 842.51 188.14C842.1 188.83 841.55 189.37 840.85 189.75C840.15 190.13 839.38 190.32 838.54 190.32C837.7 190.32 836.95 190.13 836.28 189.75ZM839.85 188.4C840.26 188.18 840.59 187.84 840.85 187.39C841.11 186.94 841.23 186.4 841.23 185.76C841.23 185.12 841.11 184.58 840.86 184.14C840.61 183.7 840.29 183.36 839.88 183.14C839.47 182.92 839.04 182.8 838.57 182.8C838.1 182.8 837.67 182.91 837.27 183.14C836.87 183.36 836.55 183.7 836.32 184.14C836.08 184.58 835.97 185.12 835.97 185.76C835.97 186.71 836.21 187.44 836.7 187.96C837.19 188.48 837.8 188.74 838.53 188.74C839 188.74 839.44 188.63 839.85 188.4Z" fill="#211F1A"/>
<path d="M850.91 181.65C851.46 181.94 851.89 182.36 852.2 182.93C852.51 183.5 852.66 184.18 852.66 184.98V190.18H850.85V185.25C850.85 184.46 850.65 183.86 850.26 183.43C849.87 183.01 849.33 182.8 848.64 182.8C847.95 182.8 847.42 183.01 847.02 183.43C846.62 183.85 846.42 184.46 846.42 185.25V190.18H844.6V181.36H846.42V182.37C846.72 182.01 847.1 181.72 847.56 181.52C848.02 181.32 848.52 181.22 849.04 181.22C849.74 181.22 850.36 181.36 850.91 181.65Z" fill="#211F1A"/>
<path d="M800.62 209.38L798.06 204.93H796.67V209.38H794.85V198.26H798.69C799.54 198.26 800.27 198.41 800.86 198.71C801.45 199.01 801.89 199.41 802.19 199.91C802.48 200.41 802.63 200.97 802.63 201.59C802.63 202.32 802.42 202.97 802 203.57C801.58 204.16 800.93 204.56 800.06 204.78L802.81 209.39H800.62V209.38ZM796.67 203.47H798.69C799.37 203.47 799.89 203.3 800.23 202.96C800.57 202.62 800.75 202.16 800.75 201.58C800.75 201 800.58 200.55 800.24 200.23C799.9 199.9 799.38 199.74 798.69 199.74H796.67V203.47Z" fill="#211F1A"/>
<path d="M812.65 205.65H805.91C805.96 206.35 806.22 206.92 806.69 207.35C807.16 207.78 807.74 207.99 808.42 207.99C809.4 207.99 810.09 207.58 810.5 206.76H812.47C812.2 207.57 811.72 208.23 811.02 208.75C810.32 209.27 809.45 209.53 808.42 209.53C807.58 209.53 806.82 209.34 806.16 208.96C805.49 208.58 804.97 208.05 804.59 207.36C804.21 206.67 804.02 205.87 804.02 204.97C804.02 204.06 804.2 203.27 804.57 202.58C804.94 201.89 805.46 201.36 806.12 200.99C806.79 200.62 807.55 200.43 808.42 200.43C809.25 200.43 809.99 200.61 810.64 200.97C811.29 201.33 811.8 201.84 812.16 202.5C812.52 203.16 812.7 203.91 812.7 204.76C812.72 205.08 812.7 205.38 812.65 205.65ZM810.81 204.18C810.8 203.51 810.56 202.97 810.09 202.56C809.62 202.15 809.04 201.95 808.35 201.95C807.72 201.95 807.18 202.15 806.73 202.55C806.28 202.95 806.02 203.49 805.93 204.17H810.81V204.18Z" fill="#211F1A"/>
<path d="M815.52 209.15C814.97 208.9 814.54 208.56 814.22 208.13C813.9 207.7 813.73 207.22 813.71 206.68H815.6C815.63 207.05 815.81 207.37 816.14 207.62C816.47 207.87 816.87 208 817.36 208C817.87 208 818.27 207.9 818.55 207.7C818.83 207.5 818.97 207.25 818.97 206.94C818.97 206.61 818.81 206.36 818.5 206.2C818.19 206.04 817.69 205.86 817 205.67C816.34 205.49 815.8 205.31 815.38 205.14C814.96 204.97 814.6 204.71 814.3 204.36C814 204.01 813.84 203.54 813.84 202.97C813.84 202.5 813.98 202.07 814.26 201.68C814.54 201.29 814.93 200.98 815.45 200.76C815.97 200.54 816.56 200.42 817.23 200.42C818.23 200.42 819.04 200.67 819.65 201.18C820.26 201.69 820.59 202.38 820.63 203.25H818.81C818.78 202.86 818.62 202.54 818.33 202.31C818.04 202.08 817.65 201.96 817.16 201.96C816.68 201.96 816.31 202.05 816.06 202.23C815.81 202.41 815.68 202.65 815.68 202.95C815.68 203.18 815.76 203.38 815.94 203.54C816.11 203.7 816.32 203.83 816.56 203.92C816.8 204.01 817.17 204.13 817.65 204.26C818.29 204.43 818.82 204.6 819.23 204.78C819.64 204.96 820 205.22 820.29 205.56C820.59 205.9 820.74 206.35 820.75 206.92C820.75 207.42 820.61 207.87 820.33 208.26C820.05 208.66 819.66 208.96 819.15 209.19C818.64 209.41 818.05 209.53 817.37 209.53C816.69 209.52 816.07 209.4 815.52 209.15Z" fill="#211F1A"/>
<path d="M830.43 205.65H823.69C823.74 206.35 824 206.92 824.47 207.35C824.94 207.78 825.52 207.99 826.2 207.99C827.18 207.99 827.87 207.58 828.28 206.76H830.25C829.98 207.57 829.5 208.23 828.8 208.75C828.1 209.27 827.23 209.53 826.2 209.53C825.36 209.53 824.6 209.34 823.94 208.96C823.27 208.58 822.75 208.05 822.37 207.36C821.99 206.67 821.8 205.87 821.8 204.97C821.8 204.06 821.98 203.27 822.35 202.58C822.72 201.89 823.24 201.36 823.9 200.99C824.57 200.62 825.33 200.43 826.2 200.43C827.03 200.43 827.77 200.61 828.42 200.97C829.07 201.33 829.58 201.84 829.94 202.5C830.3 203.16 830.48 203.91 830.48 204.76C830.49 205.08 830.47 205.38 830.43 205.65ZM828.59 204.18C828.58 203.51 828.34 202.97 827.87 202.56C827.4 202.15 826.82 201.95 826.13 201.95C825.5 201.95 824.96 202.15 824.51 202.55C824.06 202.95 823.8 203.49 823.71 204.17H828.59V204.18Z" fill="#211F1A"/>
<path d="M834.85 200.79C835.29 200.54 835.82 200.41 836.43 200.41V202.3H835.97C835.26 202.3 834.71 202.48 834.35 202.84C833.99 203.2 833.8 203.83 833.8 204.73V209.37H831.98V200.55H833.8V201.83C834.05 201.39 834.41 201.04 834.85 200.79Z" fill="#211F1A"/>
<path d="M841.2 207.75L843.7 200.57H845.64L842.28 209.39H840.1L836.76 200.57H838.71L841.2 207.75Z" fill="#211F1A"/>
<path d="M854.7 205.65H847.96C848.01 206.35 848.27 206.92 848.74 207.35C849.21 207.78 849.79 207.99 850.47 207.99C851.45 207.99 852.14 207.58 852.55 206.76H854.52C854.25 207.57 853.77 208.23 853.07 208.75C852.37 209.27 851.5 209.53 850.47 209.53C849.63 209.53 848.87 209.34 848.21 208.96C847.54 208.58 847.02 208.05 846.64 207.36C846.26 206.67 846.07 205.87 846.07 204.97C846.07 204.06 846.25 203.27 846.62 202.58C846.99 201.89 847.51 201.36 848.17 200.99C848.84 200.62 849.6 200.43 850.47 200.43C851.3 200.43 852.04 200.61 852.69 200.97C853.34 201.33 853.85 201.84 854.21 202.5C854.57 203.16 854.75 203.91 854.75 204.76C854.76 205.08 854.74 205.38 854.7 205.65ZM852.86 204.18C852.85 203.51 852.61 202.97 852.14 202.56C851.67 202.15 851.09 201.95 850.4 201.95C849.77 201.95 849.23 202.15 848.78 202.55C848.33 202.95 848.07 203.49 847.98 204.17H852.86V204.18Z" fill="#211F1A"/>
</g>
<defs>
<filter id="filter0_d_375_184" x="0.932129" y="0.258545" width="1460.21" height="1032.73" filterUnits="userSpaceOnUse" color-interpolation-filters="sRGB">
<feFlood flood-opacity="0" result="BackgroundImageFix"/>
<feColorMatrix in="SourceAlpha" type="matrix" values="0 0 0 0 0 0 0 0 0 0 0 0 0 0 0 0 0 0 127 0" result="hardAlpha"/>
<feOffset dy="4"/>
<feGaussianBlur stdDeviation="2"/>
<feComposite in2="hardAlpha" operator="out"/>
<feColorMatrix type="matrix" values="0 0 0 0 0 0 0 0 0 0 0 0 0 0 0 0 0 0 0.25 0"/>
<feBlend mode="normal" in2="BackgroundImageFix" result="effect1_dropShadow_375_184"/>
<feBlend mode="normal" in="SourceGraphic" in2="effect1_dropShadow_375_184" result="shape"/>
</filter>
</defs>
</svg>
