<svg width="530" height="43" viewBox="0 0 530 43" fill="none" xmlns="http://www.w3.org/2000/svg">
<path d="M19.5615 43C16.0156 43 12.7455 42.1792 9.7512 40.5377C6.79629 38.8561 4.43236 36.3939 2.65942 33.1508C0.886473 29.9078 0 26.0242 0 21.5C0 16.9758 0.886473 13.0922 2.65942 9.84916C4.43236 6.60615 6.79629 4.16387 9.7512 2.52235C12.7455 0.840782 16.0156 0 19.5615 0C24.053 0 27.7762 1.12104 30.7311 3.36313C33.7254 5.56518 35.715 8.68808 36.7 12.7318L29.7855 14.5335C28.9187 12.2114 27.6777 10.4097 26.0623 9.12849C24.447 7.8473 22.28 7.2067 19.5615 7.2067C17.3552 7.2067 15.3655 7.74721 13.5926 8.82821C11.8196 9.86918 10.4013 11.4707 9.33751 13.6327C8.31315 15.7547 7.80096 18.3771 7.80096 21.5C7.80096 24.6229 8.31315 27.2654 9.33751 29.4274C10.4013 31.5493 11.8196 33.1508 13.5926 34.2318C15.3655 35.2728 17.3552 35.7933 19.5615 35.7933C22.28 35.7933 24.447 35.1527 26.0623 33.8715C27.6777 32.5903 28.9187 30.7886 29.7855 28.4665L36.7 30.2682C35.715 34.3119 33.7254 37.4548 30.7311 39.6969C27.7762 41.899 24.053 43 19.5615 43Z" fill="#FFFCFA"/>
<path d="M43.7936 0.480444H69.3831V7.68715H51.4764V16.5154H65.8372V23.7221H51.4764V35.3129H69.9741V42.5196H43.7936V0.480444Z" fill="#FFFCFA"/>
<path d="M77.4403 0.480444H85.1231V35.3129H102.675V42.5196H77.4403V0.480444Z" fill="#FFFCFA"/>
<path d="M109.413 0.480444H135.003V7.68715H117.096V16.5154H131.457V23.7221H117.096V35.3129H135.594V42.5196H109.413V0.480444Z" fill="#FFFCFA"/>
<path d="M154.062 43C151.619 43 149.393 42.4795 147.384 41.4385C145.414 40.3976 143.759 38.9763 142.42 37.1746C141.12 35.3729 140.253 33.3911 139.819 31.229L146.025 27.2654C146.655 29.8277 147.64 31.8897 148.98 33.4511C150.359 35.0126 152.112 35.7933 154.239 35.7933C155.855 35.7933 157.155 35.3929 158.14 34.5922C159.125 33.7514 159.617 32.4902 159.617 30.8087C159.617 29.7677 159.282 28.8468 158.613 28.0461C157.943 27.2453 157.096 26.5447 156.071 25.9441C155.086 25.3436 153.668 24.5829 151.816 23.662L150.102 22.8212C147.739 21.6201 145.847 20.1187 144.429 18.317C143.011 16.4753 142.302 14.1331 142.302 11.2905C142.302 9.16853 142.774 7.24674 143.72 5.52514C144.705 3.80354 146.064 2.46229 147.798 1.5014C149.571 0.500465 151.58 0 153.826 0C159.538 0 163.439 2.54236 165.527 7.62709L159.322 11.6508C158.297 8.68808 156.465 7.2067 153.826 7.2067C152.683 7.2067 151.698 7.58706 150.871 8.34777C150.043 9.06844 149.63 9.96927 149.63 11.0503C149.63 12.1313 149.984 13.0922 150.693 13.933C151.442 14.7337 152.329 15.4344 153.353 16.0349C154.417 16.5954 155.934 17.3361 157.903 18.257C159.834 19.1778 161.449 20.1187 162.749 21.0796C164.089 22.0405 165.173 23.3017 166 24.8631C166.867 26.3845 167.3 28.2463 167.3 30.4483C167.3 32.9707 166.729 35.1927 165.586 37.1145C164.483 38.9963 162.927 40.4576 160.917 41.4986C158.908 42.4995 156.623 43 154.062 43Z" fill="#FFFCFA"/>
<path d="M179.9 7.68715H168.376V0.480444H199.107V7.68715H187.583V42.5196H179.9V7.68715Z" fill="#FFFCFA"/>
<path d="M204.121 0.480444H211.803V42.5196H204.121V0.480444Z" fill="#FFFCFA"/>
<path d="M231.131 0.480444H238.813L252.82 42.5196H244.546L241.532 32.6103H228.412L225.398 42.5196H217.124L231.131 0.480444ZM239.345 25.4036L234.972 10.8101L230.599 25.4036H239.345Z" fill="#FFFCFA"/>
<path d="M257.563 0.480444H265.246V35.3129H282.798V42.5196H257.563V0.480444Z" fill="#FFFCFA"/>
<path d="M304.195 0.480444H312.823L322.575 26.7249L332.326 0.480444H340.954V42.5196H333.271V16.5754L325.352 38.676H319.797L311.878 16.5754V42.5196H304.195V0.480444Z" fill="#FFFCFA"/>
<path d="M360.293 0.480444H367.975L381.982 42.5196H373.708L370.694 32.6103H357.574L354.56 42.5196H346.286L360.293 0.480444ZM368.507 25.4036L364.134 10.8101L359.761 25.4036H368.507Z" fill="#FFFCFA"/>
<path d="M386.725 0.480444H394.821L410.009 28.2263V0.480444H417.692V42.5196H409.596L394.407 14.7737V42.5196H386.725V0.480444Z" fill="#FFFCFA"/>
<path d="M444.617 43C441.032 43 437.762 42.1993 434.807 40.5978C431.852 38.9963 429.488 36.594 427.715 33.3911C425.981 30.148 425.115 26.1844 425.115 21.5C425.115 16.8156 425.981 12.872 427.715 9.66899C429.488 6.42598 431.852 4.00372 434.807 2.40223C437.762 0.800745 441.032 0 444.617 0C448.202 0 451.472 0.800745 454.427 2.40223C457.382 4.00372 459.726 6.42598 461.46 9.66899C463.233 12.872 464.119 16.8156 464.119 21.5C464.119 26.1844 463.233 30.148 461.46 33.3911C459.726 36.594 457.382 38.9963 454.427 40.5978C451.472 42.1993 448.202 43 444.617 43ZM444.617 35.7933C446.784 35.7933 448.734 35.2928 450.468 34.2919C452.241 33.2509 453.659 31.6695 454.723 29.5475C455.787 27.3855 456.318 24.703 456.318 21.5C456.318 18.297 455.787 15.6345 454.723 13.5126C453.659 11.3506 452.241 9.76909 450.468 8.76816C448.734 7.72719 446.784 7.2067 444.617 7.2067C442.45 7.2067 440.48 7.72719 438.707 8.76816C436.974 9.76909 435.575 11.3506 434.511 13.5126C433.447 15.6345 432.915 18.297 432.915 21.5C432.915 24.703 433.447 27.3855 434.511 29.5475C435.575 31.6695 436.974 33.2509 438.707 34.2919C440.48 35.2928 442.45 35.7933 444.617 35.7933Z" fill="#FFFCFA"/>
<path d="M471.563 0.480444H486.633C490.652 0.480444 493.744 1.58147 495.911 3.78352C498.118 5.94553 499.221 8.82821 499.221 12.4316C499.221 15.2342 498.551 17.6364 497.212 19.6383C495.872 21.6001 493.961 22.9614 491.479 23.7221L502.944 42.5196H494.375L483.264 24.3827H479.246V42.5196H471.563V0.480444ZM486.692 17.176C488.189 17.176 489.371 16.7956 490.238 16.0349C491.105 15.2742 491.538 14.0731 491.538 12.4316C491.538 10.79 491.105 9.58892 490.238 8.82821C489.371 8.0675 488.189 7.68715 486.692 7.68715H479.246V17.176H486.692Z" fill="#FFFCFA"/>
<path d="M509.67 18.257L513.63 12.7919L507.188 10.5698L509.138 4.6243L515.58 6.78631V0H521.608V6.78631L528.05 4.6243L530 10.5698L523.558 12.7919L527.518 18.257L522.495 22.0405L518.594 16.4553L514.694 22.0405L509.67 18.257Z" fill="#FFFCFA"/>
</svg>
