<svg width="42" height="144" viewBox="0 0 42 144" fill="none" xmlns="http://www.w3.org/2000/svg">
<g clip-path="url(#clip0_139_172)">
<path d="M11.4923 45.3543C8.13669 43.4936 5.46279 40.7462 3.46576 37.1169C1.46873 33.4876 0.470215 29.1411 0.470215 24.0727C0.470215 19.0042 1.46873 14.6578 3.46576 11.0285C5.46279 7.39915 8.14149 4.65173 11.4923 2.79104C14.8479 0.930345 18.5203 0 22.5191 0C27.5837 0 31.789 1.24531 35.1446 3.73107C38.4954 6.21684 40.7276 9.72502 41.8413 14.2556L34.0452 16.2714C33.0659 13.6741 31.669 11.6535 29.8496 10.2193C28.0302 8.78498 25.5867 8.06784 22.5191 8.06784C20.0324 8.06784 17.7906 8.66384 15.7888 9.851C13.7917 11.0382 12.2028 12.831 11.0266 15.2296C9.85049 17.6281 9.26002 20.5742 9.26002 24.0727C9.26002 27.5712 9.85049 30.5173 11.0266 32.9158C12.2028 35.3144 13.7917 37.1072 15.7888 38.2944C17.7858 39.4815 20.0276 40.0775 22.5191 40.0775C25.5819 40.0775 28.0254 39.3604 29.8496 37.9261C31.669 36.4918 33.0707 34.4761 34.0452 31.874L41.8413 33.8898C40.7324 38.4204 38.5002 41.9237 35.1446 44.4143C31.789 46.9001 27.5837 48.1454 22.5191 48.1454C18.5203 48.1454 14.8479 47.215 11.4923 45.3543Z" fill="#211F1A"/>
<path d="M0.335938 52.3853H10.0666L21.0599 81.7687L32.0532 52.3853H41.7791V99.4549H33.1189V70.4058L24.1899 95.1521H17.9299L9.00093 70.4058V99.4549H0.335938V52.3853Z" fill="#211F1A"/>
<path d="M4.57012 137.081L11.8622 127.084L0 123.024L3.59081 112.15L15.4482 116.104V103.695H26.547V116.104L38.4044 112.15L41.9952 123.024L30.133 127.089L37.4251 137.085L28.1744 144.005L20.9928 133.79L13.8112 144.005L4.56532 137.085L4.57012 137.081Z" fill="#211F1A"/>
</g>
<defs>
<clipPath id="clip0_139_172">
<rect width="42" height="144" fill="white"/>
</clipPath>
</defs>
</svg>
